M48
; DRILL file {KiCad (6.0.0)} date Sat Oct 15 21:00:18 2022
; FORMAT={-:-/ absolute / inch / decimal}
; #@! TF.CreationDate,2022-10-15T21:00:18-04:00
; #@! TF.GenerationSoftware,Kicad,Pcbnew,(6.0.0)
; #@! TF.FileFunction,Plated,1,2,PTH
FMAT,2
INCH
; #@! TA.AperFunction,Plated,PTH,ComponentDrill
T1C0.0315
; #@! TA.AperFunction,Plated,PTH,ComponentDrill
T2C0.0354
; #@! TA.AperFunction,Plated,PTH,ComponentDrill
T3C0.0394
; #@! TA.AperFunction,Plated,PTH,ComponentDrill
T4C0.0433
; #@! TA.AperFunction,Plated,PTH,ComponentDrill
T5C0.0480
; #@! TA.AperFunction,Plated,PTH,ComponentDrill
T6C0.0559
; #@! TA.AperFunction,Plated,PTH,ComponentDrill
T7C0.0563
; #@! TA.AperFunction,Plated,PTH,ComponentDrill
T8C0.1260
; #@! TA.AperFunction,Plated,PTH,ComponentDrill
T9C0.2362
; #@! TA.AperFunction,Plated,PTH,ComponentDrill
T10C0.2756
%
G90
G05
T1
X5.2692Y-4.26
X5.2692Y-4.56
X5.2742Y-3.285
X5.2742Y-3.585
X5.3348Y-2.2246
X5.3348Y-2.5246
X5.4348Y-2.2246
X5.4348Y-2.5246
X5.5348Y-2.2246
X5.5348Y-2.5246
X5.6348Y-2.2246
X5.6348Y-2.5246
X5.6718Y-2.8
X5.6718Y-3.125
X5.6892Y-1.27
X5.6942Y-3.79
X5.6942Y-4.09
X5.7348Y-2.2246
X5.7348Y-2.5246
X5.7702Y-2.8
X5.7702Y-3.125
X5.8342Y-4.245
X5.8342Y-4.545
X5.8348Y-2.2246
X5.8348Y-2.5246
X5.8442Y-3.275
X5.8442Y-3.575
X5.9348Y-2.2246
X5.9348Y-2.5246
X5.9892Y-1.27
X6.0348Y-2.2246
X6.0348Y-2.5246
X6.1792Y-1.24
X6.1792Y-1.3384
X6.1942Y-2.9258
X6.1942Y-3.0242
X6.3346Y-2.2346
X6.3346Y-2.5346
X6.3592Y-1.91
X6.3592Y-2.06
X6.3892Y-3.285
X6.3892Y-3.585
X6.3892Y-4.25
X6.3892Y-4.55
X6.4346Y-2.2346
X6.4346Y-2.5346
X6.5346Y-2.2346
X6.5346Y-2.5346
X6.58Y-1.715
X6.6346Y-2.2346
X6.6346Y-2.5346
X6.6592Y-1.91
X6.6592Y-2.06
X6.6784Y-1.715
T2
X5.384Y-3.4781
X5.3842Y-4.3781
X5.484Y-3.4781
X5.4842Y-4.3781
X5.954Y-3.4781
X5.954Y-4.3781
X6.054Y-3.4781
X6.054Y-4.3781
X6.504Y-3.4781
X6.504Y-4.3781
X6.604Y-3.4781
X6.604Y-4.3781
T3
X5.3646Y-1.365
X5.3646Y-1.465
X5.3646Y-1.565
X5.3646Y-1.665
X5.3646Y-1.765
X5.4352Y-2.8356
X5.4352Y-2.9356
X5.4352Y-3.0356
X5.4646Y-1.365
X5.4646Y-1.465
X5.4646Y-1.565
X5.4646Y-1.665
X5.4646Y-1.765
X5.9058Y-2.0104
X6.0042Y-2.0104
X6.0052Y-2.8356
X6.0052Y-2.9356
X6.0052Y-3.0356
X6.1026Y-2.0104
X6.5552Y-2.835
X6.5552Y-2.935
X6.5552Y-3.035
T4
X6.382Y-1.27
X6.382Y-1.37
X6.382Y-1.47
T5
X5.4342Y-3.685
X5.4344Y-4.585
X6.0042Y-3.685
X6.0042Y-4.585
X6.5542Y-3.685
X6.5542Y-4.585
T6
X5.4342Y-3.807
X5.4344Y-4.707
X6.0042Y-3.807
X6.0042Y-4.707
X6.5542Y-3.807
X6.5542Y-4.707
T7
X5.4342Y-4.1338
X5.4344Y-5.0338
X6.0042Y-4.1338
X6.0042Y-5.0338
X6.5542Y-4.1338
X6.5542Y-5.0338
T9
X2.9642Y-4.0559
X2.9644Y-4.955
X2.965Y-3.045
X3.5342Y-3.05
X3.5342Y-4.0559
X3.5342Y-4.9559
X4.0842Y-3.0494
X4.0842Y-4.0559
X4.0842Y-4.9559
T10
X3.535Y-1.83
T4
G00X5.8152Y-1.7387
M15
G01X5.8152Y-1.6915
M16
G05
G00X6.1932Y-1.7387
M15
G01X6.1932Y-1.6915
M16
G05
T8
G00X2.9452Y-0.8281
M15
G01X3.0554Y-0.8281
M16
G05
G00X2.9452Y-5.6509
M15
G01X3.0554Y-5.6509
M16
G05
T0
M30
