%TF.GenerationSoftware,KiCad,Pcbnew,(6.0.0)*%
%TF.CreationDate,2022-10-15T21:00:10-04:00*%
%TF.ProjectId,bindec,62696e64-6563-42e6-9b69-6361645f7063,rev?*%
%TF.SameCoordinates,Original*%
%TF.FileFunction,Soldermask,Bot*%
%TF.FilePolarity,Negative*%
%FSLAX46Y46*%
G04 Gerber Fmt 4.6, Leading zero omitted, Abs format (unit mm)*
G04 Created by KiCad (PCBNEW (6.0.0)) date 2022-10-15 21:00:10*
%MOMM*%
%LPD*%
G01*
G04 APERTURE LIST*
G04 Aperture macros list*
%AMRoundRect*
0 Rectangle with rounded corners*
0 $1 Rounding radius*
0 $2 $3 $4 $5 $6 $7 $8 $9 X,Y pos of 4 corners*
0 Add a 4 corners polygon primitive as box body*
4,1,4,$2,$3,$4,$5,$6,$7,$8,$9,$2,$3,0*
0 Add four circle primitives for the rounded corners*
1,1,$1+$1,$2,$3*
1,1,$1+$1,$4,$5*
1,1,$1+$1,$6,$7*
1,1,$1+$1,$8,$9*
0 Add four rect primitives between the rounded corners*
20,1,$1+$1,$2,$3,$4,$5,0*
20,1,$1+$1,$4,$5,$6,$7,0*
20,1,$1+$1,$6,$7,$8,$9,0*
20,1,$1+$1,$8,$9,$2,$3,0*%
G04 Aperture macros list end*
%ADD10C,7.000000*%
%ADD11C,1.600000*%
%ADD12O,1.600000X1.600000*%
%ADD13R,1.700000X1.700000*%
%ADD14O,1.700000X1.700000*%
%ADD15C,8.000000*%
%ADD16R,1.800000X1.800000*%
%ADD17C,1.800000*%
%ADD18R,1.930000X1.830000*%
%ADD19C,2.130000*%
%ADD20O,2.720000X3.240000*%
%ADD21R,1.600000X1.600000*%
%ADD22R,2.000000X1.905000*%
%ADD23O,2.000000X1.905000*%
%ADD24O,7.000000X4.200000*%
%ADD25RoundRect,0.250000X-0.600000X-0.600000X0.600000X-0.600000X0.600000X0.600000X-0.600000X0.600000X0*%
%ADD26C,1.700000*%
G04 APERTURE END LIST*
D10*
%TO.C,REF\u002A\u002A*%
X89769000Y-77470000D03*
%TD*%
D11*
%TO.C,R2*%
X162286000Y-91059000D03*
D12*
X162286000Y-83439000D03*
%TD*%
D13*
%TO.C,SW3*%
X152532000Y-72024000D03*
D14*
X152532000Y-74564000D03*
X152532000Y-77104000D03*
%TD*%
D15*
%TO.C,REF\u002A\u002A*%
X89789000Y-46482000D03*
%TD*%
D16*
%TO.C,D5*%
X136759000Y-111205000D03*
D17*
X139299000Y-111205000D03*
%TD*%
D11*
%TO.C,C2*%
X157333000Y-76815000D03*
X157333000Y-74315000D03*
%TD*%
D16*
%TO.C,D3*%
X165202000Y-88345000D03*
D17*
X167742000Y-88345000D03*
%TD*%
D10*
%TO.C,REF\u002A\u002A*%
X75291000Y-103020000D03*
%TD*%
D11*
%TO.C,R9*%
X162286000Y-115570000D03*
D12*
X162286000Y-107950000D03*
%TD*%
D11*
%TO.C,C1*%
X156952000Y-31496000D03*
X156952000Y-33996000D03*
%TD*%
D18*
%TO.C,J3*%
X166477000Y-93599000D03*
D19*
X166477000Y-104999000D03*
X166477000Y-96699000D03*
%TD*%
D13*
%TO.C,SW2*%
X138054000Y-72024000D03*
D14*
X138054000Y-74564000D03*
X138054000Y-77104000D03*
%TD*%
D20*
%TO.C,RV1*%
X157307000Y-43564000D03*
X147707000Y-43564000D03*
D16*
X150007000Y-51064000D03*
D17*
X152507000Y-51064000D03*
X155007000Y-51064000D03*
%TD*%
D11*
%TO.C,R7*%
X161524000Y-48514000D03*
D12*
X169144000Y-48514000D03*
%TD*%
D11*
%TO.C,R5*%
X133838000Y-115824000D03*
D12*
X133838000Y-108204000D03*
%TD*%
D11*
%TO.C,R6*%
X161524000Y-52324000D03*
D12*
X169144000Y-52324000D03*
%TD*%
D16*
%TO.C,D2*%
X151232000Y-88345000D03*
D17*
X153772000Y-88345000D03*
%TD*%
D18*
%TO.C,J4*%
X138029000Y-93599000D03*
D19*
X138029000Y-104999000D03*
X138029000Y-96699000D03*
%TD*%
D18*
%TO.C,J7*%
X166477000Y-116459000D03*
D19*
X166477000Y-127859000D03*
X166477000Y-119559000D03*
%TD*%
D10*
%TO.C,REF\u002A\u002A*%
X103739000Y-77455000D03*
%TD*%
D21*
%TO.C,U2*%
X135504000Y-64125000D03*
D12*
X138044000Y-64125000D03*
X140584000Y-64125000D03*
X143124000Y-64125000D03*
X145664000Y-64125000D03*
X148204000Y-64125000D03*
X150744000Y-64125000D03*
X153284000Y-64125000D03*
X153284000Y-56505000D03*
X150744000Y-56505000D03*
X148204000Y-56505000D03*
X145664000Y-56505000D03*
X143124000Y-56505000D03*
X140584000Y-56505000D03*
X138044000Y-56505000D03*
X135504000Y-56505000D03*
%TD*%
D21*
%TO.C,U3*%
X160899000Y-64379000D03*
D12*
X163439000Y-64379000D03*
X165979000Y-64379000D03*
X168519000Y-64379000D03*
X168519000Y-56759000D03*
X165979000Y-56759000D03*
X163439000Y-56759000D03*
X160899000Y-56759000D03*
%TD*%
D21*
%TO.C,D1*%
X152126000Y-32258000D03*
D12*
X144506000Y-32258000D03*
%TD*%
D10*
%TO.C,REF\u002A\u002A*%
X75311000Y-77343000D03*
%TD*%
%TO.C,REF\u002A\u002A*%
X103739000Y-125880000D03*
%TD*%
D11*
%TO.C,R8*%
X148189000Y-115443000D03*
D12*
X148189000Y-107823000D03*
%TD*%
D10*
%TO.C,REF\u002A\u002A*%
X89769000Y-103020000D03*
%TD*%
D18*
%TO.C,J6*%
X152507000Y-116459000D03*
D19*
X152507000Y-127859000D03*
X152507000Y-119559000D03*
%TD*%
D11*
%TO.C,R3*%
X144633000Y-96266000D03*
D12*
X144633000Y-103886000D03*
%TD*%
D10*
%TO.C,REF\u002A\u002A*%
X75296000Y-125857000D03*
%TD*%
D22*
%TO.C,U1*%
X162103000Y-32258000D03*
D23*
X162103000Y-34798000D03*
X162103000Y-37338000D03*
%TD*%
D24*
%TO.C,REF\u002A\u002A*%
X76207000Y-143534000D03*
X76207000Y-21034000D03*
%TD*%
D21*
%TO.C,C3*%
X144062900Y-71120000D03*
D11*
X146562900Y-71120000D03*
%TD*%
D16*
%TO.C,D4*%
X136754000Y-88345000D03*
D17*
X139294000Y-88345000D03*
%TD*%
D10*
%TO.C,REF\u002A\u002A*%
X89769000Y-125880000D03*
%TD*%
D18*
%TO.C,J5*%
X138034000Y-116459000D03*
D19*
X138034000Y-127859000D03*
X138034000Y-119559000D03*
%TD*%
D11*
%TO.C,R4*%
X133965000Y-91059000D03*
D12*
X133965000Y-83439000D03*
%TD*%
D13*
%TO.C,SW1*%
X166502000Y-72009000D03*
D14*
X166502000Y-74549000D03*
X166502000Y-77089000D03*
%TD*%
D10*
%TO.C,REF\u002A\u002A*%
X103739000Y-103020000D03*
%TD*%
D16*
%TO.C,D6*%
X151232000Y-111205000D03*
D17*
X153772000Y-111205000D03*
%TD*%
D18*
%TO.C,J2*%
X152507000Y-93599000D03*
D19*
X152507000Y-104999000D03*
X152507000Y-96699000D03*
%TD*%
D11*
%TO.C,C5*%
X167132000Y-43561000D03*
X169632000Y-43561000D03*
%TD*%
D21*
%TO.C,C4*%
X144062900Y-79375000D03*
D11*
X146562900Y-79375000D03*
%TD*%
D16*
%TO.C,D7*%
X165202000Y-111205000D03*
D17*
X167742000Y-111205000D03*
%TD*%
D11*
%TO.C,R1*%
X148443000Y-90805000D03*
D12*
X148443000Y-83185000D03*
%TD*%
D25*
%TO.C,J1*%
X136260500Y-34671000D03*
D26*
X138800500Y-34671000D03*
X136260500Y-37211000D03*
X138800500Y-37211000D03*
X136260500Y-39751000D03*
X138800500Y-39751000D03*
X136260500Y-42291000D03*
X138800500Y-42291000D03*
X136260500Y-44831000D03*
X138800500Y-44831000D03*
%TD*%
M02*
