M48
; DRILL file {KiCad (6.0.0)} date Sat Oct 15 20:50:51 2022
; FORMAT={-:-/ absolute / inch / decimal}
; #@! TF.CreationDate,2022-10-15T20:50:51-04:00
; #@! TF.GenerationSoftware,Kicad,Pcbnew,(6.0.0)
; #@! TF.FileFunction,Plated,1,2,PTH
FMAT,2
INCH
; #@! TA.AperFunction,Plated,PTH,ViaDrill
T1C0.0157
; #@! TA.AperFunction,Plated,PTH,ComponentDrill
T2C0.0315
; #@! TA.AperFunction,Plated,PTH,ComponentDrill
T3C0.0394
; #@! TA.AperFunction,Plated,PTH,ComponentDrill
T4C0.0433
; #@! TA.AperFunction,Plated,PTH,ComponentDrill
T5C0.0480
; #@! TA.AperFunction,Plated,PTH,ComponentDrill
T6C0.0559
; #@! TA.AperFunction,Plated,PTH,ComponentDrill
T7C0.0563
; #@! TA.AperFunction,Plated,PTH,ComponentDrill
T8C0.1260
; #@! TA.AperFunction,Plated,PTH,ComponentDrill
T9C0.2362
; #@! TA.AperFunction,Plated,PTH,ComponentDrill
T10C0.2756
%
G90
G05
T1
X2.6611Y-1.4486
X4.8092Y-3.5663
T2
X2.1004Y-1.0598
X2.1004Y-1.1598
X2.1004Y-1.2598
X2.1004Y-1.3598
X2.1004Y-1.4598
X2.1004Y-1.5598
X2.1004Y-1.6598
X2.1516Y-1.845
X2.265Y-2.215
X2.265Y-2.3278
X2.265Y-2.4406
X2.265Y-2.5533
X2.265Y-2.6661
X2.265Y-2.7789
X2.265Y-2.8917
X2.265Y-3.0044
X2.265Y-3.1172
X2.265Y-3.23
X2.2704Y-3.3798
X2.2704Y-3.4798
X2.2704Y-3.5798
X2.2704Y-3.6798
X2.2704Y-3.7798
X2.2704Y-3.8798
X2.2704Y-3.9798
X2.3484Y-1.845
X2.4004Y-1.0598
X2.4004Y-1.1598
X2.4004Y-1.2598
X2.4004Y-1.3598
X2.4004Y-1.4598
X2.4004Y-1.5598
X2.4004Y-1.6598
X2.565Y-2.215
X2.565Y-2.3278
X2.565Y-2.4406
X2.565Y-2.5533
X2.565Y-2.6661
X2.565Y-2.7789
X2.565Y-2.8917
X2.565Y-3.0044
X2.565Y-3.1172
X2.565Y-3.23
X2.5704Y-3.3798
X2.5704Y-3.4798
X2.5704Y-3.5798
X2.5704Y-3.6798
X2.5704Y-3.7798
X2.5704Y-3.8798
X2.5704Y-3.9798
X2.5766Y-4.145
X2.595Y-1.02
X2.595Y-1.145
X2.595Y-1.27
X2.595Y-1.395
X2.595Y-1.52
X2.595Y-1.645
X2.595Y-1.77
X2.595Y-1.895
X2.595Y-2.02
X2.625Y-4.3026
X2.625Y-4.401
X2.625Y-4.604
X2.625Y-4.7024
X2.7734Y-4.145
X2.8616Y-4.385
X2.8616Y-4.645
X2.895Y-1.02
X2.895Y-1.145
X2.895Y-1.27
X2.895Y-1.395
X2.895Y-1.52
X2.895Y-1.645
X2.895Y-1.77
X2.895Y-1.895
X2.895Y-2.02
X2.9654Y-3.3848
X2.9654Y-3.4848
X2.9654Y-3.5848
X2.9654Y-3.6848
X2.9654Y-3.7848
X2.9654Y-3.8848
X2.9654Y-3.9848
X2.975Y-2.205
X2.975Y-2.3325
X2.975Y-2.46
X2.975Y-2.5875
X2.975Y-2.715
X2.975Y-2.8425
X2.975Y-2.97
X2.975Y-3.0975
X2.975Y-3.225
X3.0166Y-4.135
X3.0584Y-4.385
X3.0584Y-4.645
X3.1104Y-1.0346
X3.1104Y-1.1346
X3.1104Y-1.2346
X3.1104Y-1.3346
X3.1104Y-1.4346
X3.1104Y-1.5346
X3.1104Y-1.6346
X3.1104Y-1.7346
X3.165Y-4.38
X3.165Y-4.525
X3.165Y-4.66
X3.2134Y-4.135
X3.2654Y-3.3848
X3.2654Y-3.4848
X3.2654Y-3.5848
X3.2654Y-3.6848
X3.2654Y-3.7848
X3.2654Y-3.8848
X3.2654Y-3.9848
X3.275Y-2.205
X3.275Y-2.3325
X3.275Y-2.46
X3.275Y-2.5875
X3.275Y-2.715
X3.275Y-2.8425
X3.275Y-2.97
X3.275Y-3.0975
X3.275Y-3.225
X3.4104Y-1.0346
X3.4104Y-1.1346
X3.4104Y-1.2346
X3.4104Y-1.3346
X3.4104Y-1.4346
X3.4104Y-1.5346
X3.4104Y-1.6346
X3.4104Y-1.7346
X3.465Y-4.38
X3.465Y-4.525
X3.465Y-4.66
T3
X2.1654Y-4.3
X2.1654Y-4.4
X2.1654Y-4.5
X2.1654Y-4.6
X2.1654Y-4.7
X2.2654Y-4.3
X2.2654Y-4.4
X2.2654Y-4.5
X2.2654Y-4.6
X2.2654Y-4.7
X2.755Y-2.185
X2.755Y-2.285
X2.755Y-2.385
X2.755Y-2.485
X2.755Y-2.585
X2.755Y-2.685
X2.755Y-2.785
X2.755Y-2.885
X2.755Y-2.985
X2.755Y-3.085
X2.755Y-3.185
X2.755Y-3.285
X2.755Y-3.385
X2.755Y-3.485
X2.755Y-3.585
X2.755Y-3.685
X4.5578Y-1.2266
X4.5578Y-1.325
X4.5578Y-1.4234
X4.5578Y-2.3886
X4.5578Y-2.487
X4.5578Y-2.5854
X4.5578Y-3.5506
X4.5578Y-3.649
X4.5578Y-3.7474
X4.735Y-2.22
X4.735Y-2.32
X4.735Y-2.42
X4.735Y-2.52
X4.735Y-2.62
X4.735Y-2.72
X4.735Y-2.82
X4.735Y-2.92
X4.735Y-3.02
X4.735Y-3.12
X4.735Y-3.22
X4.735Y-3.32
X4.735Y-3.42
X4.735Y-3.52
X4.735Y-3.62
X4.735Y-3.72
T5
X4.56Y-1.906
X4.56Y-3.068
X4.56Y-4.23
X4.9024Y-1.275
X4.9024Y-1.8417
X4.9024Y-2.4083
X4.9024Y-2.975
X4.9024Y-3.5417
X4.9024Y-4.1083
X4.9024Y-4.675
T6
X4.438Y-1.906
X4.438Y-3.068
X4.438Y-4.23
X5.0245Y-1.275
X5.0245Y-1.8417
X5.0245Y-2.4083
X5.0245Y-2.975
X5.0245Y-3.5417
X5.0245Y-4.1083
X5.0245Y-4.675
T7
X4.1112Y-1.906
X4.1112Y-3.068
X4.1112Y-4.23
X5.3513Y-1.275
X5.3513Y-1.8417
X5.3513Y-2.4083
X5.3513Y-2.975
X5.3513Y-3.5417
X5.3513Y-4.1083
X5.3513Y-4.675
T9
X6.1941Y-2.251
X6.1941Y-3.413
X6.1941Y-4.575
X7.0483Y-1.62
X7.0483Y-2.1867
X7.0483Y-2.7533
X7.0483Y-3.32
X7.0483Y-3.8867
X7.0483Y-4.4533
X7.0483Y-5.02
T10
X6.1526Y-2.832
X6.1528Y-1.6684
X6.1576Y-3.995
T4
G00X4.2862Y-1.136
M15
G01X4.2389Y-1.136
M16
G05
G00X4.2862Y-1.514
M15
G01X4.2389Y-1.514
M16
G05
G00X4.2862Y-2.298
M15
G01X4.2389Y-2.298
M16
G05
G00X4.2862Y-2.676
M15
G01X4.2389Y-2.676
M16
G05
G00X4.2862Y-3.46
M15
G01X4.2389Y-3.46
M16
G05
G00X4.2862Y-3.838
M15
G01X4.2389Y-3.838
M16
G05
T8
G00X6.073Y-0.9165
M15
G01X6.1832Y-0.9165
M16
G05
G00X6.073Y-5.7394
M15
G01X6.1832Y-5.7394
M16
G05
T0
M30
