%TF.GenerationSoftware,KiCad,Pcbnew,(6.0.0)*%
%TF.CreationDate,2022-10-15T20:50:48-04:00*%
%TF.ProjectId,ASVCA,41535643-412e-46b6-9963-61645f706362,rev?*%
%TF.SameCoordinates,Original*%
%TF.FileFunction,Soldermask,Top*%
%TF.FilePolarity,Negative*%
%FSLAX46Y46*%
G04 Gerber Fmt 4.6, Leading zero omitted, Abs format (unit mm)*
G04 Created by KiCad (PCBNEW (6.0.0)) date 2022-10-15 20:50:48*
%MOMM*%
%LPD*%
G01*
G04 APERTURE LIST*
G04 Aperture macros list*
%AMRoundRect*
0 Rectangle with rounded corners*
0 $1 Rounding radius*
0 $2 $3 $4 $5 $6 $7 $8 $9 X,Y pos of 4 corners*
0 Add a 4 corners polygon primitive as box body*
4,1,4,$2,$3,$4,$5,$6,$7,$8,$9,$2,$3,0*
0 Add four circle primitives for the rounded corners*
1,1,$1+$1,$2,$3*
1,1,$1+$1,$4,$5*
1,1,$1+$1,$6,$7*
1,1,$1+$1,$8,$9*
0 Add four rect primitives between the rounded corners*
20,1,$1+$1,$2,$3,$4,$5,0*
20,1,$1+$1,$4,$5,$6,$7,0*
20,1,$1+$1,$6,$7,$8,$9,0*
20,1,$1+$1,$8,$9,$2,$3,0*%
G04 Aperture macros list end*
%ADD10R,1.600000X1.600000*%
%ADD11C,1.600000*%
%ADD12O,1.600000X1.600000*%
%ADD13O,3.240000X2.720000*%
%ADD14R,1.800000X1.800000*%
%ADD15C,1.800000*%
%ADD16R,1.830000X1.930000*%
%ADD17C,2.130000*%
%ADD18C,7.000000*%
%ADD19C,8.000000*%
%ADD20RoundRect,0.250000X-0.600000X-0.600000X0.600000X-0.600000X0.600000X0.600000X-0.600000X0.600000X0*%
%ADD21C,1.700000*%
%ADD22R,1.700000X1.700000*%
%ADD23O,1.700000X1.700000*%
%ADD24O,7.000000X4.200000*%
G04 APERTURE END LIST*
D10*
%TO.C,C1*%
X66675000Y-109284900D03*
D11*
X66675000Y-111784900D03*
%TD*%
%TO.C,R3*%
X80391000Y-111252000D03*
D12*
X88011000Y-111252000D03*
%TD*%
D11*
%TO.C,R25*%
X75565000Y-65722500D03*
D12*
X83185000Y-65722500D03*
%TD*%
D13*
%TO.C,RV3*%
X108269000Y-87884600D03*
X108269000Y-97484600D03*
D14*
X115769000Y-95184600D03*
D15*
X115769000Y-92684600D03*
X115769000Y-90184600D03*
%TD*%
D16*
%TO.C,J8*%
X124522000Y-75565000D03*
D17*
X135922000Y-75565000D03*
X127622000Y-75565000D03*
%TD*%
D11*
%TO.C,R30*%
X75565000Y-56007000D03*
D12*
X83185000Y-56007000D03*
%TD*%
D18*
%TO.C,-*%
X179028000Y-55541300D03*
%TD*%
%TO.C,-*%
X179028000Y-69934700D03*
%TD*%
D11*
%TO.C,R10*%
X57531000Y-79177400D03*
D12*
X65151000Y-79177400D03*
%TD*%
D11*
%TO.C,R2*%
X75565000Y-81915000D03*
D12*
X83185000Y-81915000D03*
%TD*%
D11*
%TO.C,R24*%
X75565000Y-62484000D03*
D12*
X83185000Y-62484000D03*
%TD*%
D11*
%TO.C,R7*%
X65913000Y-29083000D03*
D12*
X73533000Y-29083000D03*
%TD*%
D19*
%TO.C,REF\u002A\u002A*%
X156282000Y-42378000D03*
%TD*%
D16*
%TO.C,J2*%
X124522000Y-104351700D03*
D17*
X135922000Y-104351700D03*
X127622000Y-104351700D03*
%TD*%
D16*
%TO.C,J10*%
X115824000Y-48412400D03*
D17*
X104424000Y-48412400D03*
X112724000Y-48412400D03*
%TD*%
D11*
%TO.C,C3*%
X72684000Y-111379000D03*
X77684000Y-111379000D03*
%TD*%
D16*
%TO.C,J11*%
X124522000Y-46778300D03*
D17*
X135922000Y-46778300D03*
X127622000Y-46778300D03*
%TD*%
D11*
%TO.C,R5*%
X65913000Y-38608000D03*
D12*
X73533000Y-38608000D03*
%TD*%
D11*
%TO.C,R21*%
X57531000Y-61990100D03*
D12*
X65151000Y-61990100D03*
%TD*%
D11*
%TO.C,R18*%
X57531000Y-64854700D03*
D12*
X65151000Y-64854700D03*
%TD*%
D11*
%TO.C,R31*%
X75565000Y-75438000D03*
D12*
X83185000Y-75438000D03*
%TD*%
D18*
%TO.C,-*%
X179028000Y-127508000D03*
%TD*%
D11*
%TO.C,R4*%
X80391000Y-114935000D03*
D12*
X88011000Y-114935000D03*
%TD*%
D20*
%TO.C,J1*%
X55000500Y-109220000D03*
D21*
X57540500Y-109220000D03*
X55000500Y-111760000D03*
X57540500Y-111760000D03*
X55000500Y-114300000D03*
X57540500Y-114300000D03*
X55000500Y-116840000D03*
X57540500Y-116840000D03*
X55000500Y-119380000D03*
X57540500Y-119380000D03*
%TD*%
D10*
%TO.C,U2*%
X53350000Y-26919000D03*
D12*
X53350000Y-29459000D03*
X53350000Y-31999000D03*
X53350000Y-34539000D03*
X53350000Y-37079000D03*
X53350000Y-39619000D03*
X53350000Y-42159000D03*
X60970000Y-42159000D03*
X60970000Y-39619000D03*
X60970000Y-37079000D03*
X60970000Y-34539000D03*
X60970000Y-31999000D03*
X60970000Y-29459000D03*
X60970000Y-26919000D03*
%TD*%
D11*
%TO.C,R15*%
X65913000Y-44958000D03*
D12*
X73533000Y-44958000D03*
%TD*%
D11*
%TO.C,R6*%
X57531000Y-67719200D03*
D12*
X65151000Y-67719200D03*
%TD*%
D16*
%TO.C,J9*%
X124522000Y-32385000D03*
D17*
X135922000Y-32385000D03*
X127622000Y-32385000D03*
%TD*%
D16*
%TO.C,J3*%
X124522000Y-89958300D03*
D17*
X135922000Y-89958300D03*
X127622000Y-89958300D03*
%TD*%
D11*
%TO.C,R19*%
X57531000Y-70583800D03*
D12*
X65151000Y-70583800D03*
%TD*%
D18*
%TO.C,-*%
X179028000Y-84328000D03*
%TD*%
D19*
%TO.C,REF\u002A\u002A*%
X156402000Y-101473000D03*
%TD*%
D16*
%TO.C,J7*%
X115824000Y-77927200D03*
D17*
X104424000Y-77927200D03*
X112724000Y-77927200D03*
%TD*%
D11*
%TO.C,C5*%
X59650000Y-46863000D03*
X54650000Y-46863000D03*
%TD*%
%TO.C,C4*%
X72684000Y-117983000D03*
X77684000Y-117983000D03*
%TD*%
%TO.C,R9*%
X65913000Y-35433000D03*
D12*
X73533000Y-35433000D03*
%TD*%
D10*
%TO.C,C2*%
X66675000Y-119442100D03*
D11*
X66675000Y-116942100D03*
%TD*%
%TO.C,R27*%
X75565000Y-59245500D03*
D12*
X83185000Y-59245500D03*
%TD*%
D16*
%TO.C,J6*%
X124522000Y-61171700D03*
D17*
X135922000Y-61171700D03*
X127622000Y-61171700D03*
%TD*%
D11*
%TO.C,R17*%
X57531000Y-82042000D03*
D12*
X65151000Y-82042000D03*
%TD*%
D11*
%TO.C,R28*%
X75565000Y-78676500D03*
D12*
X83185000Y-78676500D03*
%TD*%
D10*
%TO.C,U3*%
X57668000Y-85847000D03*
D12*
X57668000Y-88387000D03*
X57668000Y-90927000D03*
X57668000Y-93467000D03*
X57668000Y-96007000D03*
X57668000Y-98547000D03*
X57668000Y-101087000D03*
X65288000Y-101087000D03*
X65288000Y-98547000D03*
X65288000Y-96007000D03*
X65288000Y-93467000D03*
X65288000Y-90927000D03*
X65288000Y-88387000D03*
X65288000Y-85847000D03*
%TD*%
D11*
%TO.C,C6*%
X65445000Y-105283000D03*
X70445000Y-105283000D03*
%TD*%
%TO.C,R20*%
X57531000Y-76312900D03*
D12*
X65151000Y-76312900D03*
%TD*%
D16*
%TO.C,J4*%
X115824000Y-107442000D03*
D17*
X104424000Y-107442000D03*
X112724000Y-107442000D03*
%TD*%
D11*
%TO.C,R26*%
X75565000Y-68961000D03*
D12*
X83185000Y-68961000D03*
%TD*%
D16*
%TO.C,J5*%
X124522000Y-118745000D03*
D17*
X135922000Y-118745000D03*
X127622000Y-118745000D03*
%TD*%
D11*
%TO.C,R12*%
X65913000Y-32258000D03*
D12*
X73533000Y-32258000D03*
%TD*%
D11*
%TO.C,R14*%
X65913000Y-48133000D03*
D12*
X73533000Y-48133000D03*
%TD*%
D13*
%TO.C,RV2*%
X108269000Y-67969800D03*
X108269000Y-58369800D03*
D14*
X115769000Y-65669800D03*
D15*
X115769000Y-63169800D03*
X115769000Y-60669800D03*
%TD*%
D22*
%TO.C,J13*%
X120269000Y-56388000D03*
D23*
X120269000Y-58928000D03*
X120269000Y-61468000D03*
X120269000Y-64008000D03*
X120269000Y-66548000D03*
X120269000Y-69088000D03*
X120269000Y-71628000D03*
X120269000Y-74168000D03*
X120269000Y-76708000D03*
X120269000Y-79248000D03*
X120269000Y-81788000D03*
X120269000Y-84328000D03*
X120269000Y-86868000D03*
X120269000Y-89408000D03*
X120269000Y-91948000D03*
X120269000Y-94488000D03*
%TD*%
D19*
%TO.C,REF\u002A\u002A*%
X156275000Y-71932800D03*
%TD*%
D10*
%TO.C,U1*%
X79004000Y-26279000D03*
D12*
X79004000Y-28819000D03*
X79004000Y-31359000D03*
X79004000Y-33899000D03*
X79004000Y-36439000D03*
X79004000Y-38979000D03*
X79004000Y-41519000D03*
X79004000Y-44059000D03*
X86624000Y-44059000D03*
X86624000Y-41519000D03*
X86624000Y-38979000D03*
X86624000Y-36439000D03*
X86624000Y-33899000D03*
X86624000Y-31359000D03*
X86624000Y-28819000D03*
X86624000Y-26279000D03*
%TD*%
D18*
%TO.C,-*%
X179028000Y-98721300D03*
%TD*%
D24*
%TO.C,REF\u002A\u002A*%
X155654000Y-23280000D03*
X155654000Y-145780000D03*
%TD*%
D11*
%TO.C,R8*%
X65913000Y-41783000D03*
D12*
X73533000Y-41783000D03*
%TD*%
D22*
%TO.C,J12*%
X69977000Y-55499000D03*
D23*
X69977000Y-58039000D03*
X69977000Y-60579000D03*
X69977000Y-63119000D03*
X69977000Y-65659000D03*
X69977000Y-68199000D03*
X69977000Y-70739000D03*
X69977000Y-73279000D03*
X69977000Y-75819000D03*
X69977000Y-78359000D03*
X69977000Y-80899000D03*
X69977000Y-83439000D03*
X69977000Y-85979000D03*
X69977000Y-88519000D03*
X69977000Y-91059000D03*
X69977000Y-93599000D03*
%TD*%
D18*
%TO.C,-*%
X157330000Y-57175400D03*
%TD*%
D13*
%TO.C,RV1*%
X108269000Y-28855000D03*
X108269000Y-38455000D03*
D14*
X115769000Y-36155000D03*
D15*
X115769000Y-33655000D03*
X115769000Y-31155000D03*
%TD*%
D11*
%TO.C,R22*%
X57531000Y-73448300D03*
D12*
X65151000Y-73448300D03*
%TD*%
D18*
%TO.C,-*%
X157330000Y-86690200D03*
%TD*%
D11*
%TO.C,C7*%
X76621000Y-105029000D03*
X81621000Y-105029000D03*
%TD*%
%TO.C,R29*%
X75565000Y-72199500D03*
D12*
X83185000Y-72199500D03*
%TD*%
D18*
%TO.C,-*%
X179028000Y-41148000D03*
%TD*%
D11*
%TO.C,R1*%
X80391000Y-118364000D03*
D12*
X88011000Y-118364000D03*
%TD*%
D11*
%TO.C,R16*%
X57531000Y-59125600D03*
D12*
X65151000Y-59125600D03*
%TD*%
D11*
%TO.C,R11*%
X65913000Y-51308000D03*
D12*
X73533000Y-51308000D03*
%TD*%
D18*
%TO.C,-*%
X157330000Y-116205000D03*
%TD*%
D11*
%TO.C,R23*%
X57531000Y-56261000D03*
D12*
X65151000Y-56261000D03*
%TD*%
D10*
%TO.C,U4*%
X75321000Y-85974000D03*
D12*
X75321000Y-88514000D03*
X75321000Y-91054000D03*
X75321000Y-93594000D03*
X75321000Y-96134000D03*
X75321000Y-98674000D03*
X75321000Y-101214000D03*
X82941000Y-101214000D03*
X82941000Y-98674000D03*
X82941000Y-96134000D03*
X82941000Y-93594000D03*
X82941000Y-91054000D03*
X82941000Y-88514000D03*
X82941000Y-85974000D03*
%TD*%
D11*
%TO.C,R13*%
X65913000Y-25908000D03*
D12*
X73533000Y-25908000D03*
%TD*%
D18*
%TO.C,-*%
X179028000Y-113114700D03*
%TD*%
M02*
