%TF.GenerationSoftware,KiCad,Pcbnew,(6.0.0)*%
%TF.CreationDate,2022-10-17T09:47:37-04:00*%
%TF.ProjectId,bindec,62696e64-6563-42e6-9b69-6361645f7063,rev?*%
%TF.SameCoordinates,Original*%
%TF.FileFunction,Legend,Top*%
%TF.FilePolarity,Positive*%
%FSLAX46Y46*%
G04 Gerber Fmt 4.6, Leading zero omitted, Abs format (unit mm)*
G04 Created by KiCad (PCBNEW (6.0.0)) date 2022-10-17 09:47:37*
%MOMM*%
%LPD*%
G01*
G04 APERTURE LIST*
%ADD10C,0.150000*%
%ADD11C,0.140000*%
%ADD12C,0.120000*%
G04 APERTURE END LIST*
D10*
%TO.C,R2*%
X160238380Y-87225666D02*
X159762190Y-87559000D01*
X160238380Y-87797095D02*
X159238380Y-87797095D01*
X159238380Y-87416142D01*
X159286000Y-87320904D01*
X159333619Y-87273285D01*
X159428857Y-87225666D01*
X159571714Y-87225666D01*
X159666952Y-87273285D01*
X159714571Y-87320904D01*
X159762190Y-87416142D01*
X159762190Y-87797095D01*
X159333619Y-86844714D02*
X159286000Y-86797095D01*
X159238380Y-86701857D01*
X159238380Y-86463761D01*
X159286000Y-86368523D01*
X159333619Y-86320904D01*
X159428857Y-86273285D01*
X159524095Y-86273285D01*
X159666952Y-86320904D01*
X160238380Y-86892333D01*
X160238380Y-86273285D01*
X162738380Y-87178047D02*
X162738380Y-87749476D01*
X162738380Y-87463761D02*
X161738380Y-87463761D01*
X161881238Y-87559000D01*
X161976476Y-87654238D01*
X162024095Y-87749476D01*
X162738380Y-86749476D02*
X161738380Y-86749476D01*
X162357428Y-86654238D02*
X162738380Y-86368523D01*
X162071714Y-86368523D02*
X162452666Y-86749476D01*
%TO.C,SW3*%
X151198666Y-69658761D02*
X151341523Y-69706380D01*
X151579619Y-69706380D01*
X151674857Y-69658761D01*
X151722476Y-69611142D01*
X151770095Y-69515904D01*
X151770095Y-69420666D01*
X151722476Y-69325428D01*
X151674857Y-69277809D01*
X151579619Y-69230190D01*
X151389142Y-69182571D01*
X151293904Y-69134952D01*
X151246285Y-69087333D01*
X151198666Y-68992095D01*
X151198666Y-68896857D01*
X151246285Y-68801619D01*
X151293904Y-68754000D01*
X151389142Y-68706380D01*
X151627238Y-68706380D01*
X151770095Y-68754000D01*
X152103428Y-68706380D02*
X152341523Y-69706380D01*
X152532000Y-68992095D01*
X152722476Y-69706380D01*
X152960571Y-68706380D01*
X153246285Y-68706380D02*
X153865333Y-68706380D01*
X153532000Y-69087333D01*
X153674857Y-69087333D01*
X153770095Y-69134952D01*
X153817714Y-69182571D01*
X153865333Y-69277809D01*
X153865333Y-69515904D01*
X153817714Y-69611142D01*
X153770095Y-69658761D01*
X153674857Y-69706380D01*
X153389142Y-69706380D01*
X153293904Y-69658761D01*
X153246285Y-69611142D01*
%TO.C,D5*%
X137290904Y-108697380D02*
X137290904Y-107697380D01*
X137529000Y-107697380D01*
X137671857Y-107745000D01*
X137767095Y-107840238D01*
X137814714Y-107935476D01*
X137862333Y-108125952D01*
X137862333Y-108268809D01*
X137814714Y-108459285D01*
X137767095Y-108554523D01*
X137671857Y-108649761D01*
X137529000Y-108697380D01*
X137290904Y-108697380D01*
X138767095Y-107697380D02*
X138290904Y-107697380D01*
X138243285Y-108173571D01*
X138290904Y-108125952D01*
X138386142Y-108078333D01*
X138624238Y-108078333D01*
X138719476Y-108125952D01*
X138767095Y-108173571D01*
X138814714Y-108268809D01*
X138814714Y-108506904D01*
X138767095Y-108602142D01*
X138719476Y-108649761D01*
X138624238Y-108697380D01*
X138386142Y-108697380D01*
X138290904Y-108649761D01*
X138243285Y-108602142D01*
D11*
%TO.C,C2*%
X155368714Y-75698333D02*
X155406809Y-75736428D01*
X155444904Y-75850714D01*
X155444904Y-75926904D01*
X155406809Y-76041190D01*
X155330619Y-76117380D01*
X155254428Y-76155476D01*
X155102047Y-76193571D01*
X154987761Y-76193571D01*
X154835380Y-76155476D01*
X154759190Y-76117380D01*
X154683000Y-76041190D01*
X154644904Y-75926904D01*
X154644904Y-75850714D01*
X154683000Y-75736428D01*
X154721095Y-75698333D01*
X154721095Y-75393571D02*
X154683000Y-75355476D01*
X154644904Y-75279285D01*
X154644904Y-75088809D01*
X154683000Y-75012619D01*
X154721095Y-74974523D01*
X154797285Y-74936428D01*
X154873476Y-74936428D01*
X154987761Y-74974523D01*
X155444904Y-75431666D01*
X155444904Y-74936428D01*
D12*
X159944904Y-76460238D02*
X159944904Y-76917380D01*
X159944904Y-76688809D02*
X159144904Y-76688809D01*
X159259190Y-76765000D01*
X159335380Y-76841190D01*
X159373476Y-76917380D01*
X159144904Y-75965000D02*
X159144904Y-75888809D01*
X159183000Y-75812619D01*
X159221095Y-75774523D01*
X159297285Y-75736428D01*
X159449666Y-75698333D01*
X159640142Y-75698333D01*
X159792523Y-75736428D01*
X159868714Y-75774523D01*
X159906809Y-75812619D01*
X159944904Y-75888809D01*
X159944904Y-75965000D01*
X159906809Y-76041190D01*
X159868714Y-76079285D01*
X159792523Y-76117380D01*
X159640142Y-76155476D01*
X159449666Y-76155476D01*
X159297285Y-76117380D01*
X159221095Y-76079285D01*
X159183000Y-76041190D01*
X159144904Y-75965000D01*
X159144904Y-75203095D02*
X159144904Y-75126904D01*
X159183000Y-75050714D01*
X159221095Y-75012619D01*
X159297285Y-74974523D01*
X159449666Y-74936428D01*
X159640142Y-74936428D01*
X159792523Y-74974523D01*
X159868714Y-75012619D01*
X159906809Y-75050714D01*
X159944904Y-75126904D01*
X159944904Y-75203095D01*
X159906809Y-75279285D01*
X159868714Y-75317380D01*
X159792523Y-75355476D01*
X159640142Y-75393571D01*
X159449666Y-75393571D01*
X159297285Y-75355476D01*
X159221095Y-75317380D01*
X159183000Y-75279285D01*
X159144904Y-75203095D01*
X159411571Y-74593571D02*
X159944904Y-74593571D01*
X159487761Y-74593571D02*
X159449666Y-74555476D01*
X159411571Y-74479285D01*
X159411571Y-74365000D01*
X159449666Y-74288809D01*
X159525857Y-74250714D01*
X159944904Y-74250714D01*
D10*
%TO.C,D3*%
X165733904Y-85837380D02*
X165733904Y-84837380D01*
X165972000Y-84837380D01*
X166114857Y-84885000D01*
X166210095Y-84980238D01*
X166257714Y-85075476D01*
X166305333Y-85265952D01*
X166305333Y-85408809D01*
X166257714Y-85599285D01*
X166210095Y-85694523D01*
X166114857Y-85789761D01*
X165972000Y-85837380D01*
X165733904Y-85837380D01*
X166638666Y-84837380D02*
X167257714Y-84837380D01*
X166924380Y-85218333D01*
X167067238Y-85218333D01*
X167162476Y-85265952D01*
X167210095Y-85313571D01*
X167257714Y-85408809D01*
X167257714Y-85646904D01*
X167210095Y-85742142D01*
X167162476Y-85789761D01*
X167067238Y-85837380D01*
X166781523Y-85837380D01*
X166686285Y-85789761D01*
X166638666Y-85742142D01*
%TO.C,R9*%
X160238380Y-111736666D02*
X159762190Y-112070000D01*
X160238380Y-112308095D02*
X159238380Y-112308095D01*
X159238380Y-111927142D01*
X159286000Y-111831904D01*
X159333619Y-111784285D01*
X159428857Y-111736666D01*
X159571714Y-111736666D01*
X159666952Y-111784285D01*
X159714571Y-111831904D01*
X159762190Y-111927142D01*
X159762190Y-112308095D01*
X160238380Y-111260476D02*
X160238380Y-111070000D01*
X160190761Y-110974761D01*
X160143142Y-110927142D01*
X160000285Y-110831904D01*
X159809809Y-110784285D01*
X159428857Y-110784285D01*
X159333619Y-110831904D01*
X159286000Y-110879523D01*
X159238380Y-110974761D01*
X159238380Y-111165238D01*
X159286000Y-111260476D01*
X159333619Y-111308095D01*
X159428857Y-111355714D01*
X159666952Y-111355714D01*
X159762190Y-111308095D01*
X159809809Y-111260476D01*
X159857428Y-111165238D01*
X159857428Y-110974761D01*
X159809809Y-110879523D01*
X159762190Y-110831904D01*
X159666952Y-110784285D01*
X162738380Y-111689047D02*
X162738380Y-112260476D01*
X162738380Y-111974761D02*
X161738380Y-111974761D01*
X161881238Y-112070000D01*
X161976476Y-112165238D01*
X162024095Y-112260476D01*
X162738380Y-111260476D02*
X161738380Y-111260476D01*
X162357428Y-111165238D02*
X162738380Y-110879523D01*
X162071714Y-110879523D02*
X162452666Y-111260476D01*
D11*
%TO.C,C1*%
X159487714Y-32879333D02*
X159525809Y-32917428D01*
X159563904Y-33031714D01*
X159563904Y-33107904D01*
X159525809Y-33222190D01*
X159449619Y-33298380D01*
X159373428Y-33336476D01*
X159221047Y-33374571D01*
X159106761Y-33374571D01*
X158954380Y-33336476D01*
X158878190Y-33298380D01*
X158802000Y-33222190D01*
X158763904Y-33107904D01*
X158763904Y-33031714D01*
X158802000Y-32917428D01*
X158840095Y-32879333D01*
X159563904Y-32117428D02*
X159563904Y-32574571D01*
X159563904Y-32346000D02*
X158763904Y-32346000D01*
X158878190Y-32422190D01*
X158954380Y-32498380D01*
X158992476Y-32574571D01*
D12*
X154340095Y-33717428D02*
X154302000Y-33679333D01*
X154263904Y-33603142D01*
X154263904Y-33412666D01*
X154302000Y-33336476D01*
X154340095Y-33298380D01*
X154416285Y-33260285D01*
X154492476Y-33260285D01*
X154606761Y-33298380D01*
X155063904Y-33755523D01*
X155063904Y-33260285D01*
X154340095Y-32955523D02*
X154302000Y-32917428D01*
X154263904Y-32841238D01*
X154263904Y-32650761D01*
X154302000Y-32574571D01*
X154340095Y-32536476D01*
X154416285Y-32498380D01*
X154492476Y-32498380D01*
X154606761Y-32536476D01*
X155063904Y-32993619D01*
X155063904Y-32498380D01*
X154530571Y-31812666D02*
X155063904Y-31812666D01*
X154530571Y-32155523D02*
X154949619Y-32155523D01*
X155025809Y-32117428D01*
X155063904Y-32041238D01*
X155063904Y-31926952D01*
X155025809Y-31850761D01*
X154987714Y-31812666D01*
D10*
%TO.C,J3*%
X166143666Y-90551380D02*
X166143666Y-91265666D01*
X166096047Y-91408523D01*
X166000809Y-91503761D01*
X165857952Y-91551380D01*
X165762714Y-91551380D01*
X166524619Y-90551380D02*
X167143666Y-90551380D01*
X166810333Y-90932333D01*
X166953190Y-90932333D01*
X167048428Y-90979952D01*
X167096047Y-91027571D01*
X167143666Y-91122809D01*
X167143666Y-91360904D01*
X167096047Y-91456142D01*
X167048428Y-91503761D01*
X166953190Y-91551380D01*
X166667476Y-91551380D01*
X166572238Y-91503761D01*
X166524619Y-91456142D01*
X166310333Y-107956142D02*
X166262714Y-108003761D01*
X166119857Y-108051380D01*
X166024619Y-108051380D01*
X165881761Y-108003761D01*
X165786523Y-107908523D01*
X165738904Y-107813285D01*
X165691285Y-107622809D01*
X165691285Y-107479952D01*
X165738904Y-107289476D01*
X165786523Y-107194238D01*
X165881761Y-107099000D01*
X166024619Y-107051380D01*
X166119857Y-107051380D01*
X166262714Y-107099000D01*
X166310333Y-107146619D01*
X166691285Y-107146619D02*
X166738904Y-107099000D01*
X166834142Y-107051380D01*
X167072238Y-107051380D01*
X167167476Y-107099000D01*
X167215095Y-107146619D01*
X167262714Y-107241857D01*
X167262714Y-107337095D01*
X167215095Y-107479952D01*
X166643666Y-108051380D01*
X167262714Y-108051380D01*
%TO.C,SW2*%
X136720666Y-69658761D02*
X136863523Y-69706380D01*
X137101619Y-69706380D01*
X137196857Y-69658761D01*
X137244476Y-69611142D01*
X137292095Y-69515904D01*
X137292095Y-69420666D01*
X137244476Y-69325428D01*
X137196857Y-69277809D01*
X137101619Y-69230190D01*
X136911142Y-69182571D01*
X136815904Y-69134952D01*
X136768285Y-69087333D01*
X136720666Y-68992095D01*
X136720666Y-68896857D01*
X136768285Y-68801619D01*
X136815904Y-68754000D01*
X136911142Y-68706380D01*
X137149238Y-68706380D01*
X137292095Y-68754000D01*
X137625428Y-68706380D02*
X137863523Y-69706380D01*
X138054000Y-68992095D01*
X138244476Y-69706380D01*
X138482571Y-68706380D01*
X138815904Y-68801619D02*
X138863523Y-68754000D01*
X138958761Y-68706380D01*
X139196857Y-68706380D01*
X139292095Y-68754000D01*
X139339714Y-68801619D01*
X139387333Y-68896857D01*
X139387333Y-68992095D01*
X139339714Y-69134952D01*
X138768285Y-69706380D01*
X139387333Y-69706380D01*
%TO.C,RV1*%
X145459380Y-44159238D02*
X144983190Y-44492571D01*
X145459380Y-44730666D02*
X144459380Y-44730666D01*
X144459380Y-44349714D01*
X144507000Y-44254476D01*
X144554619Y-44206857D01*
X144649857Y-44159238D01*
X144792714Y-44159238D01*
X144887952Y-44206857D01*
X144935571Y-44254476D01*
X144983190Y-44349714D01*
X144983190Y-44730666D01*
X144459380Y-43873523D02*
X145459380Y-43540190D01*
X144459380Y-43206857D01*
X145459380Y-42349714D02*
X145459380Y-42921142D01*
X145459380Y-42635428D02*
X144459380Y-42635428D01*
X144602238Y-42730666D01*
X144697476Y-42825904D01*
X144745095Y-42921142D01*
%TO.C,R7*%
X165357333Y-46466380D02*
X165024000Y-45990190D01*
X164785904Y-46466380D02*
X164785904Y-45466380D01*
X165166857Y-45466380D01*
X165262095Y-45514000D01*
X165309714Y-45561619D01*
X165357333Y-45656857D01*
X165357333Y-45799714D01*
X165309714Y-45894952D01*
X165262095Y-45942571D01*
X165166857Y-45990190D01*
X164785904Y-45990190D01*
X165690666Y-45466380D02*
X166357333Y-45466380D01*
X165928761Y-46466380D01*
X164928761Y-48966380D02*
X164357333Y-48966380D01*
X164643047Y-48966380D02*
X164643047Y-47966380D01*
X164547809Y-48109238D01*
X164452571Y-48204476D01*
X164357333Y-48252095D01*
X165547809Y-47966380D02*
X165643047Y-47966380D01*
X165738285Y-48014000D01*
X165785904Y-48061619D01*
X165833523Y-48156857D01*
X165881142Y-48347333D01*
X165881142Y-48585428D01*
X165833523Y-48775904D01*
X165785904Y-48871142D01*
X165738285Y-48918761D01*
X165643047Y-48966380D01*
X165547809Y-48966380D01*
X165452571Y-48918761D01*
X165404952Y-48871142D01*
X165357333Y-48775904D01*
X165309714Y-48585428D01*
X165309714Y-48347333D01*
X165357333Y-48156857D01*
X165404952Y-48061619D01*
X165452571Y-48014000D01*
X165547809Y-47966380D01*
X166309714Y-48966380D02*
X166309714Y-47966380D01*
X166404952Y-48585428D02*
X166690666Y-48966380D01*
X166690666Y-48299714D02*
X166309714Y-48680666D01*
%TO.C,R5*%
X131790380Y-111990666D02*
X131314190Y-112324000D01*
X131790380Y-112562095D02*
X130790380Y-112562095D01*
X130790380Y-112181142D01*
X130838000Y-112085904D01*
X130885619Y-112038285D01*
X130980857Y-111990666D01*
X131123714Y-111990666D01*
X131218952Y-112038285D01*
X131266571Y-112085904D01*
X131314190Y-112181142D01*
X131314190Y-112562095D01*
X130790380Y-111085904D02*
X130790380Y-111562095D01*
X131266571Y-111609714D01*
X131218952Y-111562095D01*
X131171333Y-111466857D01*
X131171333Y-111228761D01*
X131218952Y-111133523D01*
X131266571Y-111085904D01*
X131361809Y-111038285D01*
X131599904Y-111038285D01*
X131695142Y-111085904D01*
X131742761Y-111133523D01*
X131790380Y-111228761D01*
X131790380Y-111466857D01*
X131742761Y-111562095D01*
X131695142Y-111609714D01*
X134290380Y-111943047D02*
X134290380Y-112514476D01*
X134290380Y-112228761D02*
X133290380Y-112228761D01*
X133433238Y-112324000D01*
X133528476Y-112419238D01*
X133576095Y-112514476D01*
X134290380Y-111514476D02*
X133290380Y-111514476D01*
X133909428Y-111419238D02*
X134290380Y-111133523D01*
X133623714Y-111133523D02*
X134004666Y-111514476D01*
%TO.C,R6*%
X165357333Y-50276380D02*
X165024000Y-49800190D01*
X164785904Y-50276380D02*
X164785904Y-49276380D01*
X165166857Y-49276380D01*
X165262095Y-49324000D01*
X165309714Y-49371619D01*
X165357333Y-49466857D01*
X165357333Y-49609714D01*
X165309714Y-49704952D01*
X165262095Y-49752571D01*
X165166857Y-49800190D01*
X164785904Y-49800190D01*
X166214476Y-49276380D02*
X166024000Y-49276380D01*
X165928761Y-49324000D01*
X165881142Y-49371619D01*
X165785904Y-49514476D01*
X165738285Y-49704952D01*
X165738285Y-50085904D01*
X165785904Y-50181142D01*
X165833523Y-50228761D01*
X165928761Y-50276380D01*
X166119238Y-50276380D01*
X166214476Y-50228761D01*
X166262095Y-50181142D01*
X166309714Y-50085904D01*
X166309714Y-49847809D01*
X166262095Y-49752571D01*
X166214476Y-49704952D01*
X166119238Y-49657333D01*
X165928761Y-49657333D01*
X165833523Y-49704952D01*
X165785904Y-49752571D01*
X165738285Y-49847809D01*
X164928761Y-52776380D02*
X164357333Y-52776380D01*
X164643047Y-52776380D02*
X164643047Y-51776380D01*
X164547809Y-51919238D01*
X164452571Y-52014476D01*
X164357333Y-52062095D01*
X165547809Y-51776380D02*
X165643047Y-51776380D01*
X165738285Y-51824000D01*
X165785904Y-51871619D01*
X165833523Y-51966857D01*
X165881142Y-52157333D01*
X165881142Y-52395428D01*
X165833523Y-52585904D01*
X165785904Y-52681142D01*
X165738285Y-52728761D01*
X165643047Y-52776380D01*
X165547809Y-52776380D01*
X165452571Y-52728761D01*
X165404952Y-52681142D01*
X165357333Y-52585904D01*
X165309714Y-52395428D01*
X165309714Y-52157333D01*
X165357333Y-51966857D01*
X165404952Y-51871619D01*
X165452571Y-51824000D01*
X165547809Y-51776380D01*
X166309714Y-52776380D02*
X166309714Y-51776380D01*
X166404952Y-52395428D02*
X166690666Y-52776380D01*
X166690666Y-52109714D02*
X166309714Y-52490666D01*
%TO.C,D2*%
X151763904Y-85837380D02*
X151763904Y-84837380D01*
X152002000Y-84837380D01*
X152144857Y-84885000D01*
X152240095Y-84980238D01*
X152287714Y-85075476D01*
X152335333Y-85265952D01*
X152335333Y-85408809D01*
X152287714Y-85599285D01*
X152240095Y-85694523D01*
X152144857Y-85789761D01*
X152002000Y-85837380D01*
X151763904Y-85837380D01*
X152716285Y-84932619D02*
X152763904Y-84885000D01*
X152859142Y-84837380D01*
X153097238Y-84837380D01*
X153192476Y-84885000D01*
X153240095Y-84932619D01*
X153287714Y-85027857D01*
X153287714Y-85123095D01*
X153240095Y-85265952D01*
X152668666Y-85837380D01*
X153287714Y-85837380D01*
%TO.C,J4*%
X137695666Y-90551380D02*
X137695666Y-91265666D01*
X137648047Y-91408523D01*
X137552809Y-91503761D01*
X137409952Y-91551380D01*
X137314714Y-91551380D01*
X138600428Y-90884714D02*
X138600428Y-91551380D01*
X138362333Y-90503761D02*
X138124238Y-91218047D01*
X138743285Y-91218047D01*
X136409952Y-107956142D02*
X136362333Y-108003761D01*
X136219476Y-108051380D01*
X136124238Y-108051380D01*
X135981380Y-108003761D01*
X135886142Y-107908523D01*
X135838523Y-107813285D01*
X135790904Y-107622809D01*
X135790904Y-107479952D01*
X135838523Y-107289476D01*
X135886142Y-107194238D01*
X135981380Y-107099000D01*
X136124238Y-107051380D01*
X136219476Y-107051380D01*
X136362333Y-107099000D01*
X136409952Y-107146619D01*
X137314714Y-108051380D02*
X136838523Y-108051380D01*
X136838523Y-107051380D01*
X137838523Y-107051380D02*
X138029000Y-107051380D01*
X138124238Y-107099000D01*
X138219476Y-107194238D01*
X138267095Y-107384714D01*
X138267095Y-107718047D01*
X138219476Y-107908523D01*
X138124238Y-108003761D01*
X138029000Y-108051380D01*
X137838523Y-108051380D01*
X137743285Y-108003761D01*
X137648047Y-107908523D01*
X137600428Y-107718047D01*
X137600428Y-107384714D01*
X137648047Y-107194238D01*
X137743285Y-107099000D01*
X137838523Y-107051380D01*
X139267095Y-107956142D02*
X139219476Y-108003761D01*
X139076619Y-108051380D01*
X138981380Y-108051380D01*
X138838523Y-108003761D01*
X138743285Y-107908523D01*
X138695666Y-107813285D01*
X138648047Y-107622809D01*
X138648047Y-107479952D01*
X138695666Y-107289476D01*
X138743285Y-107194238D01*
X138838523Y-107099000D01*
X138981380Y-107051380D01*
X139076619Y-107051380D01*
X139219476Y-107099000D01*
X139267095Y-107146619D01*
X139695666Y-108051380D02*
X139695666Y-107051380D01*
X140267095Y-108051380D02*
X139838523Y-107479952D01*
X140267095Y-107051380D02*
X139695666Y-107622809D01*
%TO.C,J7*%
X166143666Y-113411380D02*
X166143666Y-114125666D01*
X166096047Y-114268523D01*
X166000809Y-114363761D01*
X165857952Y-114411380D01*
X165762714Y-114411380D01*
X166524619Y-113411380D02*
X167191285Y-113411380D01*
X166762714Y-114411380D01*
X165334142Y-130816142D02*
X165286523Y-130863761D01*
X165143666Y-130911380D01*
X165048428Y-130911380D01*
X164905571Y-130863761D01*
X164810333Y-130768523D01*
X164762714Y-130673285D01*
X164715095Y-130482809D01*
X164715095Y-130339952D01*
X164762714Y-130149476D01*
X164810333Y-130054238D01*
X164905571Y-129959000D01*
X165048428Y-129911380D01*
X165143666Y-129911380D01*
X165286523Y-129959000D01*
X165334142Y-130006619D01*
X166191285Y-130911380D02*
X166191285Y-130387571D01*
X166143666Y-130292333D01*
X166048428Y-130244714D01*
X165857952Y-130244714D01*
X165762714Y-130292333D01*
X166191285Y-130863761D02*
X166096047Y-130911380D01*
X165857952Y-130911380D01*
X165762714Y-130863761D01*
X165715095Y-130768523D01*
X165715095Y-130673285D01*
X165762714Y-130578047D01*
X165857952Y-130530428D01*
X166096047Y-130530428D01*
X166191285Y-130482809D01*
X166667476Y-130911380D02*
X166667476Y-130244714D01*
X166667476Y-130435190D02*
X166715095Y-130339952D01*
X166762714Y-130292333D01*
X166857952Y-130244714D01*
X166953190Y-130244714D01*
X167286523Y-130911380D02*
X167286523Y-130244714D01*
X167286523Y-130435190D02*
X167334142Y-130339952D01*
X167381761Y-130292333D01*
X167477000Y-130244714D01*
X167572238Y-130244714D01*
X167810333Y-130244714D02*
X168048428Y-130911380D01*
X168286523Y-130244714D02*
X168048428Y-130911380D01*
X167953190Y-131149476D01*
X167905571Y-131197095D01*
X167810333Y-131244714D01*
%TO.C,U2*%
X132626380Y-61076904D02*
X133435904Y-61076904D01*
X133531142Y-61029285D01*
X133578761Y-60981666D01*
X133626380Y-60886428D01*
X133626380Y-60695952D01*
X133578761Y-60600714D01*
X133531142Y-60553095D01*
X133435904Y-60505476D01*
X132626380Y-60505476D01*
X132721619Y-60076904D02*
X132674000Y-60029285D01*
X132626380Y-59934047D01*
X132626380Y-59695952D01*
X132674000Y-59600714D01*
X132721619Y-59553095D01*
X132816857Y-59505476D01*
X132912095Y-59505476D01*
X133054952Y-59553095D01*
X133626380Y-60124523D01*
X133626380Y-59505476D01*
%TO.C,U3*%
X158021380Y-61330904D02*
X158830904Y-61330904D01*
X158926142Y-61283285D01*
X158973761Y-61235666D01*
X159021380Y-61140428D01*
X159021380Y-60949952D01*
X158973761Y-60854714D01*
X158926142Y-60807095D01*
X158830904Y-60759476D01*
X158021380Y-60759476D01*
X158021380Y-60378523D02*
X158021380Y-59759476D01*
X158402333Y-60092809D01*
X158402333Y-59949952D01*
X158449952Y-59854714D01*
X158497571Y-59807095D01*
X158592809Y-59759476D01*
X158830904Y-59759476D01*
X158926142Y-59807095D01*
X158973761Y-59854714D01*
X159021380Y-59949952D01*
X159021380Y-60235666D01*
X158973761Y-60330904D01*
X158926142Y-60378523D01*
%TO.C,D1*%
X147577904Y-34830380D02*
X147577904Y-33830380D01*
X147816000Y-33830380D01*
X147958857Y-33878000D01*
X148054095Y-33973238D01*
X148101714Y-34068476D01*
X148149333Y-34258952D01*
X148149333Y-34401809D01*
X148101714Y-34592285D01*
X148054095Y-34687523D01*
X147958857Y-34782761D01*
X147816000Y-34830380D01*
X147577904Y-34830380D01*
X149101714Y-34830380D02*
X148530285Y-34830380D01*
X148816000Y-34830380D02*
X148816000Y-33830380D01*
X148720761Y-33973238D01*
X148625523Y-34068476D01*
X148530285Y-34116095D01*
X151864095Y-34510380D02*
X151864095Y-33510380D01*
X152435523Y-34510380D02*
X152006952Y-33938952D01*
X152435523Y-33510380D02*
X151864095Y-34081809D01*
%TO.C,R8*%
X146141380Y-111609666D02*
X145665190Y-111943000D01*
X146141380Y-112181095D02*
X145141380Y-112181095D01*
X145141380Y-111800142D01*
X145189000Y-111704904D01*
X145236619Y-111657285D01*
X145331857Y-111609666D01*
X145474714Y-111609666D01*
X145569952Y-111657285D01*
X145617571Y-111704904D01*
X145665190Y-111800142D01*
X145665190Y-112181095D01*
X145569952Y-111038238D02*
X145522333Y-111133476D01*
X145474714Y-111181095D01*
X145379476Y-111228714D01*
X145331857Y-111228714D01*
X145236619Y-111181095D01*
X145189000Y-111133476D01*
X145141380Y-111038238D01*
X145141380Y-110847761D01*
X145189000Y-110752523D01*
X145236619Y-110704904D01*
X145331857Y-110657285D01*
X145379476Y-110657285D01*
X145474714Y-110704904D01*
X145522333Y-110752523D01*
X145569952Y-110847761D01*
X145569952Y-111038238D01*
X145617571Y-111133476D01*
X145665190Y-111181095D01*
X145760428Y-111228714D01*
X145950904Y-111228714D01*
X146046142Y-111181095D01*
X146093761Y-111133476D01*
X146141380Y-111038238D01*
X146141380Y-110847761D01*
X146093761Y-110752523D01*
X146046142Y-110704904D01*
X145950904Y-110657285D01*
X145760428Y-110657285D01*
X145665190Y-110704904D01*
X145617571Y-110752523D01*
X145569952Y-110847761D01*
X148641380Y-111562047D02*
X148641380Y-112133476D01*
X148641380Y-111847761D02*
X147641380Y-111847761D01*
X147784238Y-111943000D01*
X147879476Y-112038238D01*
X147927095Y-112133476D01*
X148641380Y-111133476D02*
X147641380Y-111133476D01*
X148260428Y-111038238D02*
X148641380Y-110752523D01*
X147974714Y-110752523D02*
X148355666Y-111133476D01*
%TO.C,J6*%
X152173666Y-113411380D02*
X152173666Y-114125666D01*
X152126047Y-114268523D01*
X152030809Y-114363761D01*
X151887952Y-114411380D01*
X151792714Y-114411380D01*
X153078428Y-113411380D02*
X152887952Y-113411380D01*
X152792714Y-113459000D01*
X152745095Y-113506619D01*
X152649857Y-113649476D01*
X152602238Y-113839952D01*
X152602238Y-114220904D01*
X152649857Y-114316142D01*
X152697476Y-114363761D01*
X152792714Y-114411380D01*
X152983190Y-114411380D01*
X153078428Y-114363761D01*
X153126047Y-114316142D01*
X153173666Y-114220904D01*
X153173666Y-113982809D01*
X153126047Y-113887571D01*
X153078428Y-113839952D01*
X152983190Y-113792333D01*
X152792714Y-113792333D01*
X152697476Y-113839952D01*
X152649857Y-113887571D01*
X152602238Y-113982809D01*
X152340333Y-130816142D02*
X152292714Y-130863761D01*
X152149857Y-130911380D01*
X152054619Y-130911380D01*
X151911761Y-130863761D01*
X151816523Y-130768523D01*
X151768904Y-130673285D01*
X151721285Y-130482809D01*
X151721285Y-130339952D01*
X151768904Y-130149476D01*
X151816523Y-130054238D01*
X151911761Y-129959000D01*
X152054619Y-129911380D01*
X152149857Y-129911380D01*
X152292714Y-129959000D01*
X152340333Y-130006619D01*
X153197476Y-130244714D02*
X153197476Y-130911380D01*
X152959380Y-129863761D02*
X152721285Y-130578047D01*
X153340333Y-130578047D01*
%TO.C,R3*%
X147585380Y-100432666D02*
X147109190Y-100766000D01*
X147585380Y-101004095D02*
X146585380Y-101004095D01*
X146585380Y-100623142D01*
X146633000Y-100527904D01*
X146680619Y-100480285D01*
X146775857Y-100432666D01*
X146918714Y-100432666D01*
X147013952Y-100480285D01*
X147061571Y-100527904D01*
X147109190Y-100623142D01*
X147109190Y-101004095D01*
X146585380Y-100099333D02*
X146585380Y-99480285D01*
X146966333Y-99813619D01*
X146966333Y-99670761D01*
X147013952Y-99575523D01*
X147061571Y-99527904D01*
X147156809Y-99480285D01*
X147394904Y-99480285D01*
X147490142Y-99527904D01*
X147537761Y-99575523D01*
X147585380Y-99670761D01*
X147585380Y-99956476D01*
X147537761Y-100051714D01*
X147490142Y-100099333D01*
X145085380Y-100385047D02*
X145085380Y-100956476D01*
X145085380Y-100670761D02*
X144085380Y-100670761D01*
X144228238Y-100766000D01*
X144323476Y-100861238D01*
X144371095Y-100956476D01*
X145085380Y-99956476D02*
X144085380Y-99956476D01*
X144704428Y-99861238D02*
X145085380Y-99575523D01*
X144418714Y-99575523D02*
X144799666Y-99956476D01*
%TO.C,U1*%
X165825380Y-35559904D02*
X166634904Y-35559904D01*
X166730142Y-35512285D01*
X166777761Y-35464666D01*
X166825380Y-35369428D01*
X166825380Y-35178952D01*
X166777761Y-35083714D01*
X166730142Y-35036095D01*
X166634904Y-34988476D01*
X165825380Y-34988476D01*
X166825380Y-33988476D02*
X166825380Y-34559904D01*
X166825380Y-34274190D02*
X165825380Y-34274190D01*
X165968238Y-34369428D01*
X166063476Y-34464666D01*
X166111095Y-34559904D01*
%TO.C,C3*%
X145146233Y-67977142D02*
X145098614Y-68024761D01*
X144955757Y-68072380D01*
X144860519Y-68072380D01*
X144717661Y-68024761D01*
X144622423Y-67929523D01*
X144574804Y-67834285D01*
X144527185Y-67643809D01*
X144527185Y-67500952D01*
X144574804Y-67310476D01*
X144622423Y-67215238D01*
X144717661Y-67120000D01*
X144860519Y-67072380D01*
X144955757Y-67072380D01*
X145098614Y-67120000D01*
X145146233Y-67167619D01*
X145479566Y-67072380D02*
X146098614Y-67072380D01*
X145765280Y-67453333D01*
X145908138Y-67453333D01*
X146003376Y-67500952D01*
X146050995Y-67548571D01*
X146098614Y-67643809D01*
X146098614Y-67881904D01*
X146050995Y-67977142D01*
X146003376Y-68024761D01*
X145908138Y-68072380D01*
X145622423Y-68072380D01*
X145527185Y-68024761D01*
X145479566Y-67977142D01*
X144670042Y-75572380D02*
X144098614Y-75572380D01*
X144384328Y-75572380D02*
X144384328Y-74572380D01*
X144289090Y-74715238D01*
X144193852Y-74810476D01*
X144098614Y-74858095D01*
X145289090Y-74572380D02*
X145384328Y-74572380D01*
X145479566Y-74620000D01*
X145527185Y-74667619D01*
X145574804Y-74762857D01*
X145622423Y-74953333D01*
X145622423Y-75191428D01*
X145574804Y-75381904D01*
X145527185Y-75477142D01*
X145479566Y-75524761D01*
X145384328Y-75572380D01*
X145289090Y-75572380D01*
X145193852Y-75524761D01*
X145146233Y-75477142D01*
X145098614Y-75381904D01*
X145050995Y-75191428D01*
X145050995Y-74953333D01*
X145098614Y-74762857D01*
X145146233Y-74667619D01*
X145193852Y-74620000D01*
X145289090Y-74572380D01*
X146479566Y-74905714D02*
X146479566Y-75572380D01*
X146050995Y-74905714D02*
X146050995Y-75429523D01*
X146098614Y-75524761D01*
X146193852Y-75572380D01*
X146336709Y-75572380D01*
X146431947Y-75524761D01*
X146479566Y-75477142D01*
%TO.C,D4*%
X137285904Y-85837380D02*
X137285904Y-84837380D01*
X137524000Y-84837380D01*
X137666857Y-84885000D01*
X137762095Y-84980238D01*
X137809714Y-85075476D01*
X137857333Y-85265952D01*
X137857333Y-85408809D01*
X137809714Y-85599285D01*
X137762095Y-85694523D01*
X137666857Y-85789761D01*
X137524000Y-85837380D01*
X137285904Y-85837380D01*
X138714476Y-85170714D02*
X138714476Y-85837380D01*
X138476380Y-84789761D02*
X138238285Y-85504047D01*
X138857333Y-85504047D01*
%TO.C,J5*%
X137700666Y-113411380D02*
X137700666Y-114125666D01*
X137653047Y-114268523D01*
X137557809Y-114363761D01*
X137414952Y-114411380D01*
X137319714Y-114411380D01*
X138653047Y-113411380D02*
X138176857Y-113411380D01*
X138129238Y-113887571D01*
X138176857Y-113839952D01*
X138272095Y-113792333D01*
X138510190Y-113792333D01*
X138605428Y-113839952D01*
X138653047Y-113887571D01*
X138700666Y-113982809D01*
X138700666Y-114220904D01*
X138653047Y-114316142D01*
X138605428Y-114363761D01*
X138510190Y-114411380D01*
X138272095Y-114411380D01*
X138176857Y-114363761D01*
X138129238Y-114316142D01*
X137867333Y-130816142D02*
X137819714Y-130863761D01*
X137676857Y-130911380D01*
X137581619Y-130911380D01*
X137438761Y-130863761D01*
X137343523Y-130768523D01*
X137295904Y-130673285D01*
X137248285Y-130482809D01*
X137248285Y-130339952D01*
X137295904Y-130149476D01*
X137343523Y-130054238D01*
X137438761Y-129959000D01*
X137581619Y-129911380D01*
X137676857Y-129911380D01*
X137819714Y-129959000D01*
X137867333Y-130006619D01*
X138200666Y-129911380D02*
X138819714Y-129911380D01*
X138486380Y-130292333D01*
X138629238Y-130292333D01*
X138724476Y-130339952D01*
X138772095Y-130387571D01*
X138819714Y-130482809D01*
X138819714Y-130720904D01*
X138772095Y-130816142D01*
X138724476Y-130863761D01*
X138629238Y-130911380D01*
X138343523Y-130911380D01*
X138248285Y-130863761D01*
X138200666Y-130816142D01*
%TO.C,R4*%
X131917380Y-87225666D02*
X131441190Y-87559000D01*
X131917380Y-87797095D02*
X130917380Y-87797095D01*
X130917380Y-87416142D01*
X130965000Y-87320904D01*
X131012619Y-87273285D01*
X131107857Y-87225666D01*
X131250714Y-87225666D01*
X131345952Y-87273285D01*
X131393571Y-87320904D01*
X131441190Y-87416142D01*
X131441190Y-87797095D01*
X131250714Y-86368523D02*
X131917380Y-86368523D01*
X130869761Y-86606619D02*
X131584047Y-86844714D01*
X131584047Y-86225666D01*
X134417380Y-87178047D02*
X134417380Y-87749476D01*
X134417380Y-87463761D02*
X133417380Y-87463761D01*
X133560238Y-87559000D01*
X133655476Y-87654238D01*
X133703095Y-87749476D01*
X134417380Y-86749476D02*
X133417380Y-86749476D01*
X134036428Y-86654238D02*
X134417380Y-86368523D01*
X133750714Y-86368523D02*
X134131666Y-86749476D01*
%TO.C,SW1*%
X165168666Y-69643761D02*
X165311523Y-69691380D01*
X165549619Y-69691380D01*
X165644857Y-69643761D01*
X165692476Y-69596142D01*
X165740095Y-69500904D01*
X165740095Y-69405666D01*
X165692476Y-69310428D01*
X165644857Y-69262809D01*
X165549619Y-69215190D01*
X165359142Y-69167571D01*
X165263904Y-69119952D01*
X165216285Y-69072333D01*
X165168666Y-68977095D01*
X165168666Y-68881857D01*
X165216285Y-68786619D01*
X165263904Y-68739000D01*
X165359142Y-68691380D01*
X165597238Y-68691380D01*
X165740095Y-68739000D01*
X166073428Y-68691380D02*
X166311523Y-69691380D01*
X166502000Y-68977095D01*
X166692476Y-69691380D01*
X166930571Y-68691380D01*
X167835333Y-69691380D02*
X167263904Y-69691380D01*
X167549619Y-69691380D02*
X167549619Y-68691380D01*
X167454380Y-68834238D01*
X167359142Y-68929476D01*
X167263904Y-68977095D01*
%TO.C,D6*%
X151763904Y-108697380D02*
X151763904Y-107697380D01*
X152002000Y-107697380D01*
X152144857Y-107745000D01*
X152240095Y-107840238D01*
X152287714Y-107935476D01*
X152335333Y-108125952D01*
X152335333Y-108268809D01*
X152287714Y-108459285D01*
X152240095Y-108554523D01*
X152144857Y-108649761D01*
X152002000Y-108697380D01*
X151763904Y-108697380D01*
X153192476Y-107697380D02*
X153002000Y-107697380D01*
X152906761Y-107745000D01*
X152859142Y-107792619D01*
X152763904Y-107935476D01*
X152716285Y-108125952D01*
X152716285Y-108506904D01*
X152763904Y-108602142D01*
X152811523Y-108649761D01*
X152906761Y-108697380D01*
X153097238Y-108697380D01*
X153192476Y-108649761D01*
X153240095Y-108602142D01*
X153287714Y-108506904D01*
X153287714Y-108268809D01*
X153240095Y-108173571D01*
X153192476Y-108125952D01*
X153097238Y-108078333D01*
X152906761Y-108078333D01*
X152811523Y-108125952D01*
X152763904Y-108173571D01*
X152716285Y-108268809D01*
%TO.C,J2*%
X152173666Y-90551380D02*
X152173666Y-91265666D01*
X152126047Y-91408523D01*
X152030809Y-91503761D01*
X151887952Y-91551380D01*
X151792714Y-91551380D01*
X152602238Y-90646619D02*
X152649857Y-90599000D01*
X152745095Y-90551380D01*
X152983190Y-90551380D01*
X153078428Y-90599000D01*
X153126047Y-90646619D01*
X153173666Y-90741857D01*
X153173666Y-90837095D01*
X153126047Y-90979952D01*
X152554619Y-91551380D01*
X153173666Y-91551380D01*
X152340333Y-107956142D02*
X152292714Y-108003761D01*
X152149857Y-108051380D01*
X152054619Y-108051380D01*
X151911761Y-108003761D01*
X151816523Y-107908523D01*
X151768904Y-107813285D01*
X151721285Y-107622809D01*
X151721285Y-107479952D01*
X151768904Y-107289476D01*
X151816523Y-107194238D01*
X151911761Y-107099000D01*
X152054619Y-107051380D01*
X152149857Y-107051380D01*
X152292714Y-107099000D01*
X152340333Y-107146619D01*
X153292714Y-108051380D02*
X152721285Y-108051380D01*
X153007000Y-108051380D02*
X153007000Y-107051380D01*
X152911761Y-107194238D01*
X152816523Y-107289476D01*
X152721285Y-107337095D01*
D11*
%TO.C,C5*%
X168248666Y-41596714D02*
X168210571Y-41634809D01*
X168096285Y-41672904D01*
X168020095Y-41672904D01*
X167905809Y-41634809D01*
X167829619Y-41558619D01*
X167791523Y-41482428D01*
X167753428Y-41330047D01*
X167753428Y-41215761D01*
X167791523Y-41063380D01*
X167829619Y-40987190D01*
X167905809Y-40911000D01*
X168020095Y-40872904D01*
X168096285Y-40872904D01*
X168210571Y-40911000D01*
X168248666Y-40949095D01*
X168972476Y-40872904D02*
X168591523Y-40872904D01*
X168553428Y-41253857D01*
X168591523Y-41215761D01*
X168667714Y-41177666D01*
X168858190Y-41177666D01*
X168934380Y-41215761D01*
X168972476Y-41253857D01*
X169010571Y-41330047D01*
X169010571Y-41520523D01*
X168972476Y-41596714D01*
X168934380Y-41634809D01*
X168858190Y-41672904D01*
X168667714Y-41672904D01*
X168591523Y-41634809D01*
X168553428Y-41596714D01*
D12*
X167486761Y-46172904D02*
X167029619Y-46172904D01*
X167258190Y-46172904D02*
X167258190Y-45372904D01*
X167182000Y-45487190D01*
X167105809Y-45563380D01*
X167029619Y-45601476D01*
X167982000Y-45372904D02*
X168058190Y-45372904D01*
X168134380Y-45411000D01*
X168172476Y-45449095D01*
X168210571Y-45525285D01*
X168248666Y-45677666D01*
X168248666Y-45868142D01*
X168210571Y-46020523D01*
X168172476Y-46096714D01*
X168134380Y-46134809D01*
X168058190Y-46172904D01*
X167982000Y-46172904D01*
X167905809Y-46134809D01*
X167867714Y-46096714D01*
X167829619Y-46020523D01*
X167791523Y-45868142D01*
X167791523Y-45677666D01*
X167829619Y-45525285D01*
X167867714Y-45449095D01*
X167905809Y-45411000D01*
X167982000Y-45372904D01*
X168743904Y-45372904D02*
X168820095Y-45372904D01*
X168896285Y-45411000D01*
X168934380Y-45449095D01*
X168972476Y-45525285D01*
X169010571Y-45677666D01*
X169010571Y-45868142D01*
X168972476Y-46020523D01*
X168934380Y-46096714D01*
X168896285Y-46134809D01*
X168820095Y-46172904D01*
X168743904Y-46172904D01*
X168667714Y-46134809D01*
X168629619Y-46096714D01*
X168591523Y-46020523D01*
X168553428Y-45868142D01*
X168553428Y-45677666D01*
X168591523Y-45525285D01*
X168629619Y-45449095D01*
X168667714Y-45411000D01*
X168743904Y-45372904D01*
X169353428Y-45639571D02*
X169353428Y-46172904D01*
X169353428Y-45715761D02*
X169391523Y-45677666D01*
X169467714Y-45639571D01*
X169582000Y-45639571D01*
X169658190Y-45677666D01*
X169696285Y-45753857D01*
X169696285Y-46172904D01*
D10*
%TO.C,C4*%
X145146233Y-76232142D02*
X145098614Y-76279761D01*
X144955757Y-76327380D01*
X144860519Y-76327380D01*
X144717661Y-76279761D01*
X144622423Y-76184523D01*
X144574804Y-76089285D01*
X144527185Y-75898809D01*
X144527185Y-75755952D01*
X144574804Y-75565476D01*
X144622423Y-75470238D01*
X144717661Y-75375000D01*
X144860519Y-75327380D01*
X144955757Y-75327380D01*
X145098614Y-75375000D01*
X145146233Y-75422619D01*
X146003376Y-75660714D02*
X146003376Y-76327380D01*
X145765280Y-75279761D02*
X145527185Y-75994047D01*
X146146233Y-75994047D01*
X145146233Y-83827380D02*
X144574804Y-83827380D01*
X144860519Y-83827380D02*
X144860519Y-82827380D01*
X144765280Y-82970238D01*
X144670042Y-83065476D01*
X144574804Y-83113095D01*
X146003376Y-83160714D02*
X146003376Y-83827380D01*
X145574804Y-83160714D02*
X145574804Y-83684523D01*
X145622423Y-83779761D01*
X145717661Y-83827380D01*
X145860519Y-83827380D01*
X145955757Y-83779761D01*
X146003376Y-83732142D01*
%TO.C,D7*%
X165733904Y-108697380D02*
X165733904Y-107697380D01*
X165972000Y-107697380D01*
X166114857Y-107745000D01*
X166210095Y-107840238D01*
X166257714Y-107935476D01*
X166305333Y-108125952D01*
X166305333Y-108268809D01*
X166257714Y-108459285D01*
X166210095Y-108554523D01*
X166114857Y-108649761D01*
X165972000Y-108697380D01*
X165733904Y-108697380D01*
X166638666Y-107697380D02*
X167305333Y-107697380D01*
X166876761Y-108697380D01*
%TO.C,R1*%
X146395380Y-86971666D02*
X145919190Y-87305000D01*
X146395380Y-87543095D02*
X145395380Y-87543095D01*
X145395380Y-87162142D01*
X145443000Y-87066904D01*
X145490619Y-87019285D01*
X145585857Y-86971666D01*
X145728714Y-86971666D01*
X145823952Y-87019285D01*
X145871571Y-87066904D01*
X145919190Y-87162142D01*
X145919190Y-87543095D01*
X146395380Y-86019285D02*
X146395380Y-86590714D01*
X146395380Y-86305000D02*
X145395380Y-86305000D01*
X145538238Y-86400238D01*
X145633476Y-86495476D01*
X145681095Y-86590714D01*
X148895380Y-86924047D02*
X148895380Y-87495476D01*
X148895380Y-87209761D02*
X147895380Y-87209761D01*
X148038238Y-87305000D01*
X148133476Y-87400238D01*
X148181095Y-87495476D01*
X148895380Y-86495476D02*
X147895380Y-86495476D01*
X148514428Y-86400238D02*
X148895380Y-86114523D01*
X148228714Y-86114523D02*
X148609666Y-86495476D01*
%TO.C,J1*%
X137197166Y-28023380D02*
X137197166Y-28737666D01*
X137149547Y-28880523D01*
X137054309Y-28975761D01*
X136911452Y-29023380D01*
X136816214Y-29023380D01*
X138197166Y-29023380D02*
X137625738Y-29023380D01*
X137911452Y-29023380D02*
X137911452Y-28023380D01*
X137816214Y-28166238D01*
X137720976Y-28261476D01*
X137625738Y-28309095D01*
D12*
%TO.C,R2*%
X163326000Y-90519000D02*
X163656000Y-90519000D01*
X163656000Y-83979000D02*
X163326000Y-83979000D01*
X160916000Y-83979000D02*
X161246000Y-83979000D01*
X161246000Y-90519000D02*
X160916000Y-90519000D01*
X163656000Y-90519000D02*
X163656000Y-83979000D01*
X160916000Y-90519000D02*
X160916000Y-83979000D01*
%TO.C,SW3*%
X151202000Y-73294000D02*
X153862000Y-73294000D01*
X153862000Y-70694000D02*
X153862000Y-72024000D01*
X151202000Y-73294000D02*
X151202000Y-78434000D01*
X153862000Y-73294000D02*
X153862000Y-78434000D01*
X152532000Y-70694000D02*
X153862000Y-70694000D01*
X151202000Y-78434000D02*
X153862000Y-78434000D01*
%TO.C,D5*%
X136469000Y-112285000D02*
X136469000Y-112441000D01*
X136469000Y-109969000D02*
X136469000Y-110125000D01*
X136469000Y-112440516D02*
G75*
G03*
X139701335Y-112283608I1560000J1235517D01*
G01*
X139701335Y-110126392D02*
G75*
G03*
X136469000Y-109969484I-1672335J-1078609D01*
G01*
X139070130Y-110125163D02*
G75*
G03*
X136988039Y-110125000I-1041130J-1079837D01*
G01*
X136988039Y-112285000D02*
G75*
G03*
X139070130Y-112284837I1040961J1080000D01*
G01*
%TO.C,C2*%
X155913000Y-77585000D02*
X156538000Y-77585000D01*
X155913000Y-77585000D02*
X155913000Y-73545000D01*
X155913000Y-73545000D02*
X156538000Y-73545000D01*
X158128000Y-77585000D02*
X158753000Y-77585000D01*
X158128000Y-73545000D02*
X158753000Y-73545000D01*
X158753000Y-77585000D02*
X158753000Y-73545000D01*
%TO.C,D3*%
X164912000Y-87109000D02*
X164912000Y-87265000D01*
X164912000Y-89425000D02*
X164912000Y-89581000D01*
X168144335Y-87266392D02*
G75*
G03*
X164912000Y-87109484I-1672335J-1078609D01*
G01*
X167513130Y-87265163D02*
G75*
G03*
X165431039Y-87265000I-1041130J-1079837D01*
G01*
X164912000Y-89580516D02*
G75*
G03*
X168144335Y-89423608I1560000J1235517D01*
G01*
X165431039Y-89425000D02*
G75*
G03*
X167513130Y-89424837I1040961J1080000D01*
G01*
%TO.C,R9*%
X163656000Y-115030000D02*
X163656000Y-108490000D01*
X161246000Y-115030000D02*
X160916000Y-115030000D01*
X163326000Y-115030000D02*
X163656000Y-115030000D01*
X160916000Y-115030000D02*
X160916000Y-108490000D01*
X163656000Y-108490000D02*
X163326000Y-108490000D01*
X160916000Y-108490000D02*
X161246000Y-108490000D01*
%TO.C,C1*%
X155532000Y-30726000D02*
X155532000Y-34766000D01*
X156157000Y-34766000D02*
X155532000Y-34766000D01*
X156157000Y-30726000D02*
X155532000Y-30726000D01*
X158372000Y-30726000D02*
X157747000Y-30726000D01*
X158372000Y-34766000D02*
X157747000Y-34766000D01*
X158372000Y-30726000D02*
X158372000Y-34766000D01*
%TO.C,J3*%
X161977000Y-95579000D02*
X161977000Y-106079000D01*
X166127000Y-95579000D02*
X161977000Y-95579000D01*
X165417000Y-92599000D02*
X165417000Y-93399000D01*
X165417000Y-92599000D02*
X166277000Y-92599000D01*
X170977000Y-106079000D02*
X166977000Y-106079000D01*
X165977000Y-106079000D02*
X161977000Y-106079000D01*
X170977000Y-95579000D02*
X170977000Y-106079000D01*
X170977000Y-95579000D02*
X166827000Y-95579000D01*
X168277000Y-100079000D02*
G75*
G03*
X168277000Y-100079000I-1800000J0D01*
G01*
%TO.C,SW2*%
X139384000Y-73294000D02*
X139384000Y-78434000D01*
X136724000Y-78434000D02*
X139384000Y-78434000D01*
X138054000Y-70694000D02*
X139384000Y-70694000D01*
X136724000Y-73294000D02*
X139384000Y-73294000D01*
X139384000Y-70694000D02*
X139384000Y-72024000D01*
X136724000Y-73294000D02*
X136724000Y-78434000D01*
%TO.C,RV1*%
X151717000Y-50184000D02*
X151187000Y-50184000D01*
X157377000Y-41654000D02*
X157377000Y-38594000D01*
X157377000Y-50184000D02*
X155887000Y-50184000D01*
X147627000Y-50184000D02*
X147627000Y-45464000D01*
X148817000Y-50184000D02*
X147637000Y-50184000D01*
X157377000Y-50184000D02*
X157377000Y-45464000D01*
X157377000Y-38594000D02*
X147637000Y-38594000D01*
X154167000Y-50184000D02*
X153337000Y-50184000D01*
X147637000Y-41654000D02*
X147637000Y-38594000D01*
%TO.C,R7*%
X162064000Y-49554000D02*
X162064000Y-49884000D01*
X168604000Y-47144000D02*
X168604000Y-47474000D01*
X168604000Y-49884000D02*
X168604000Y-49554000D01*
X162064000Y-47474000D02*
X162064000Y-47144000D01*
X162064000Y-47144000D02*
X168604000Y-47144000D01*
X162064000Y-49884000D02*
X168604000Y-49884000D01*
%TO.C,R5*%
X135208000Y-115284000D02*
X135208000Y-108744000D01*
X132468000Y-108744000D02*
X132798000Y-108744000D01*
X132468000Y-115284000D02*
X132468000Y-108744000D01*
X134878000Y-115284000D02*
X135208000Y-115284000D01*
X135208000Y-108744000D02*
X134878000Y-108744000D01*
X132798000Y-115284000D02*
X132468000Y-115284000D01*
%TO.C,R6*%
X168604000Y-50954000D02*
X168604000Y-51284000D01*
X168604000Y-53694000D02*
X168604000Y-53364000D01*
X162064000Y-50954000D02*
X168604000Y-50954000D01*
X162064000Y-53364000D02*
X162064000Y-53694000D01*
X162064000Y-53694000D02*
X168604000Y-53694000D01*
X162064000Y-51284000D02*
X162064000Y-50954000D01*
%TO.C,D2*%
X150942000Y-89425000D02*
X150942000Y-89581000D01*
X150942000Y-87109000D02*
X150942000Y-87265000D01*
X151461039Y-89425000D02*
G75*
G03*
X153543130Y-89424837I1040961J1080000D01*
G01*
X150942000Y-89580516D02*
G75*
G03*
X154174335Y-89423608I1560000J1235517D01*
G01*
X153543130Y-87265163D02*
G75*
G03*
X151461039Y-87265000I-1041130J-1079837D01*
G01*
X154174335Y-87266392D02*
G75*
G03*
X150942000Y-87109484I-1672335J-1078609D01*
G01*
%TO.C,J4*%
X136969000Y-92599000D02*
X137829000Y-92599000D01*
X133529000Y-95579000D02*
X133529000Y-106079000D01*
X142529000Y-95579000D02*
X138379000Y-95579000D01*
X136969000Y-92599000D02*
X136969000Y-93399000D01*
X142529000Y-106079000D02*
X138529000Y-106079000D01*
X137529000Y-106079000D02*
X133529000Y-106079000D01*
X137679000Y-95579000D02*
X133529000Y-95579000D01*
X142529000Y-95579000D02*
X142529000Y-106079000D01*
X139829000Y-100079000D02*
G75*
G03*
X139829000Y-100079000I-1800000J0D01*
G01*
%TO.C,J7*%
X170977000Y-118439000D02*
X166827000Y-118439000D01*
X165417000Y-115459000D02*
X165417000Y-116259000D01*
X161977000Y-118439000D02*
X161977000Y-128939000D01*
X165977000Y-128939000D02*
X161977000Y-128939000D01*
X170977000Y-118439000D02*
X170977000Y-128939000D01*
X170977000Y-128939000D02*
X166977000Y-128939000D01*
X165417000Y-115459000D02*
X166277000Y-115459000D01*
X166127000Y-118439000D02*
X161977000Y-118439000D01*
X168277000Y-122939000D02*
G75*
G03*
X168277000Y-122939000I-1800000J0D01*
G01*
%TO.C,U2*%
X134174000Y-57665000D02*
X134174000Y-59315000D01*
X154614000Y-57665000D02*
X134174000Y-57665000D01*
X134174000Y-62965000D02*
X154614000Y-62965000D01*
X134174000Y-61315000D02*
X134174000Y-62965000D01*
X154614000Y-62965000D02*
X154614000Y-57665000D01*
X134174000Y-61315000D02*
G75*
G03*
X134174000Y-59315000I0J1000000D01*
G01*
%TO.C,U3*%
X169849000Y-63219000D02*
X169849000Y-57919000D01*
X159569000Y-61569000D02*
X159569000Y-63219000D01*
X159569000Y-57919000D02*
X159569000Y-59569000D01*
X159569000Y-63219000D02*
X169849000Y-63219000D01*
X169849000Y-57919000D02*
X159569000Y-57919000D01*
X159569000Y-61569000D02*
G75*
G03*
X159569000Y-59569000I0J1000000D01*
G01*
%TO.C,D1*%
X149596000Y-33378000D02*
X149596000Y-31138000D01*
X149716000Y-33378000D02*
X149716000Y-31138000D01*
X146196000Y-33378000D02*
X150436000Y-33378000D01*
X145546000Y-32258000D02*
X146196000Y-32258000D01*
X150436000Y-33378000D02*
X150436000Y-31138000D01*
X151086000Y-32258000D02*
X150436000Y-32258000D01*
X149836000Y-33378000D02*
X149836000Y-31138000D01*
X146196000Y-31138000D02*
X146196000Y-33378000D01*
X150436000Y-31138000D02*
X146196000Y-31138000D01*
%TO.C,R8*%
X147149000Y-114903000D02*
X146819000Y-114903000D01*
X146819000Y-114903000D02*
X146819000Y-108363000D01*
X149559000Y-108363000D02*
X149229000Y-108363000D01*
X149229000Y-114903000D02*
X149559000Y-114903000D01*
X146819000Y-108363000D02*
X147149000Y-108363000D01*
X149559000Y-114903000D02*
X149559000Y-108363000D01*
%TO.C,J6*%
X151447000Y-115459000D02*
X152307000Y-115459000D01*
X152157000Y-118439000D02*
X148007000Y-118439000D01*
X157007000Y-118439000D02*
X157007000Y-128939000D01*
X148007000Y-118439000D02*
X148007000Y-128939000D01*
X152007000Y-128939000D02*
X148007000Y-128939000D01*
X151447000Y-115459000D02*
X151447000Y-116259000D01*
X157007000Y-128939000D02*
X153007000Y-128939000D01*
X157007000Y-118439000D02*
X152857000Y-118439000D01*
X154307000Y-122939000D02*
G75*
G03*
X154307000Y-122939000I-1800000J0D01*
G01*
%TO.C,R3*%
X143593000Y-96806000D02*
X143263000Y-96806000D01*
X143263000Y-96806000D02*
X143263000Y-103346000D01*
X145673000Y-96806000D02*
X146003000Y-96806000D01*
X146003000Y-96806000D02*
X146003000Y-103346000D01*
X146003000Y-103346000D02*
X145673000Y-103346000D01*
X143263000Y-103346000D02*
X143593000Y-103346000D01*
%TO.C,U1*%
X165373000Y-39918000D02*
X160732000Y-39918000D01*
X163863000Y-29678000D02*
X163863000Y-39918000D01*
X165373000Y-36649000D02*
X163863000Y-36649000D01*
X165373000Y-32948000D02*
X163863000Y-32948000D01*
X165373000Y-29678000D02*
X160732000Y-29678000D01*
X160732000Y-29678000D02*
X160732000Y-39918000D01*
X165373000Y-29678000D02*
X165373000Y-39918000D01*
%TO.C,C3*%
X146713900Y-68945000D02*
X146713900Y-70080000D01*
X145632900Y-72160000D02*
X145632900Y-73681000D01*
X147553900Y-72160000D02*
X147553900Y-72439000D01*
X147393900Y-69566000D02*
X147393900Y-70080000D01*
X146193900Y-72160000D02*
X146193900Y-73548000D01*
X146233900Y-72160000D02*
X146233900Y-73534000D01*
X146273900Y-72160000D02*
X146273900Y-73518000D01*
X145392900Y-68541000D02*
X145392900Y-73699000D01*
X147353900Y-69515000D02*
X147353900Y-70080000D01*
X145792900Y-72160000D02*
X145792900Y-73656000D01*
X147193900Y-72160000D02*
X147193900Y-72905000D01*
X145912900Y-72160000D02*
X145912900Y-73631000D01*
X145872900Y-72160000D02*
X145872900Y-73640000D01*
X147473900Y-72160000D02*
X147473900Y-72563000D01*
X147673900Y-70022000D02*
X147673900Y-72218000D01*
X146193900Y-68692000D02*
X146193900Y-70080000D01*
X146113900Y-68665000D02*
X146113900Y-70080000D01*
X145872900Y-68600000D02*
X145872900Y-70080000D01*
X146753900Y-72160000D02*
X146753900Y-73269000D01*
X146073900Y-72160000D02*
X146073900Y-73588000D01*
X146513900Y-72160000D02*
X146513900Y-73410000D01*
X145792900Y-68584000D02*
X145792900Y-70080000D01*
X147273900Y-69421000D02*
X147273900Y-70080000D01*
X146673900Y-72160000D02*
X146673900Y-73320000D01*
X146353900Y-68755000D02*
X146353900Y-70080000D01*
X147273900Y-72160000D02*
X147273900Y-72819000D01*
X146593900Y-68873000D02*
X146593900Y-70080000D01*
X146313900Y-68738000D02*
X146313900Y-70080000D01*
X146073900Y-68652000D02*
X146073900Y-70080000D01*
X147633900Y-69942000D02*
X147633900Y-72298000D01*
X146793900Y-68998000D02*
X146793900Y-70080000D01*
X142508125Y-69645000D02*
X143008125Y-69645000D01*
X147233900Y-72160000D02*
X147233900Y-72863000D01*
X147033900Y-69183000D02*
X147033900Y-70080000D01*
X147353900Y-72160000D02*
X147353900Y-72725000D01*
X147593900Y-69869000D02*
X147593900Y-70080000D01*
X147153900Y-72160000D02*
X147153900Y-72946000D01*
X147313900Y-69467000D02*
X147313900Y-70080000D01*
X146513900Y-68830000D02*
X146513900Y-70080000D01*
X145712900Y-72160000D02*
X145712900Y-73670000D01*
X147553900Y-69801000D02*
X147553900Y-70080000D01*
X147793900Y-70315000D02*
X147793900Y-71925000D01*
X145552900Y-68551000D02*
X145552900Y-70080000D01*
X146153900Y-68678000D02*
X146153900Y-70080000D01*
X146233900Y-68706000D02*
X146233900Y-70080000D01*
X145472900Y-68544000D02*
X145472900Y-73696000D01*
X146353900Y-72160000D02*
X146353900Y-73485000D01*
X146713900Y-72160000D02*
X146713900Y-73295000D01*
X146673900Y-68920000D02*
X146673900Y-70080000D01*
X145952900Y-68619000D02*
X145952900Y-70080000D01*
X145992900Y-68629000D02*
X145992900Y-70080000D01*
X146753900Y-68971000D02*
X146753900Y-70080000D01*
X145752900Y-68577000D02*
X145752900Y-70080000D01*
X145672900Y-68564000D02*
X145672900Y-70080000D01*
X146473900Y-68810000D02*
X146473900Y-70080000D01*
X147753900Y-70205000D02*
X147753900Y-72035000D01*
X146593900Y-72160000D02*
X146593900Y-73367000D01*
X145592900Y-72160000D02*
X145592900Y-73685000D01*
X145632900Y-68559000D02*
X145632900Y-70080000D01*
X146993900Y-69149000D02*
X146993900Y-70080000D01*
X145832900Y-72160000D02*
X145832900Y-73648000D01*
X146313900Y-72160000D02*
X146313900Y-73502000D01*
X147313900Y-72160000D02*
X147313900Y-72773000D01*
X147233900Y-69377000D02*
X147233900Y-70080000D01*
X146833900Y-72160000D02*
X146833900Y-73215000D01*
X147113900Y-69256000D02*
X147113900Y-70080000D01*
X146393900Y-72160000D02*
X146393900Y-73468000D01*
X146153900Y-72160000D02*
X146153900Y-73562000D01*
X147473900Y-69677000D02*
X147473900Y-70080000D01*
X145712900Y-68570000D02*
X145712900Y-70080000D01*
X147713900Y-70109000D02*
X147713900Y-72131000D01*
X147433900Y-69620000D02*
X147433900Y-70080000D01*
X147833900Y-70443000D02*
X147833900Y-71797000D01*
X147033900Y-72160000D02*
X147033900Y-73057000D01*
X145952900Y-72160000D02*
X145952900Y-73621000D01*
X146433900Y-72160000D02*
X146433900Y-73449000D01*
X146033900Y-72160000D02*
X146033900Y-73600000D01*
X145352900Y-68540000D02*
X145352900Y-73700000D01*
X147513900Y-69737000D02*
X147513900Y-70080000D01*
X147393900Y-72160000D02*
X147393900Y-72674000D01*
X146633900Y-72160000D02*
X146633900Y-73344000D01*
X147913900Y-70836000D02*
X147913900Y-71404000D01*
X145312900Y-68540000D02*
X145312900Y-73700000D01*
X146793900Y-72160000D02*
X146793900Y-73242000D01*
X146833900Y-69025000D02*
X146833900Y-70080000D01*
X146993900Y-72160000D02*
X146993900Y-73091000D01*
X145552900Y-72160000D02*
X145552900Y-73689000D01*
X146393900Y-68772000D02*
X146393900Y-70080000D01*
X147153900Y-69294000D02*
X147153900Y-70080000D01*
X145752900Y-72160000D02*
X145752900Y-73663000D01*
X146953900Y-72160000D02*
X146953900Y-73124000D01*
X147113900Y-72160000D02*
X147113900Y-72984000D01*
X147433900Y-72160000D02*
X147433900Y-72620000D01*
X145992900Y-72160000D02*
X145992900Y-73611000D01*
X146953900Y-69116000D02*
X146953900Y-70080000D01*
X145592900Y-68555000D02*
X145592900Y-70080000D01*
X145832900Y-68592000D02*
X145832900Y-70080000D01*
X146113900Y-72160000D02*
X146113900Y-73575000D01*
X142758125Y-69395000D02*
X142758125Y-69895000D01*
X146473900Y-72160000D02*
X146473900Y-73430000D01*
X147073900Y-72160000D02*
X147073900Y-73021000D01*
X147593900Y-72160000D02*
X147593900Y-72371000D01*
X145672900Y-72160000D02*
X145672900Y-73676000D01*
X146633900Y-68896000D02*
X146633900Y-70080000D01*
X146913900Y-69085000D02*
X146913900Y-70080000D01*
X147073900Y-69219000D02*
X147073900Y-70080000D01*
X145512900Y-68547000D02*
X145512900Y-73693000D01*
X146873900Y-69055000D02*
X146873900Y-70080000D01*
X145432900Y-68542000D02*
X145432900Y-73698000D01*
X145912900Y-68609000D02*
X145912900Y-70080000D01*
X146273900Y-68722000D02*
X146273900Y-70080000D01*
X147193900Y-69335000D02*
X147193900Y-70080000D01*
X146873900Y-72160000D02*
X146873900Y-73185000D01*
X147873900Y-70602000D02*
X147873900Y-71638000D01*
X146033900Y-68640000D02*
X146033900Y-70080000D01*
X147513900Y-72160000D02*
X147513900Y-72503000D01*
X146553900Y-68852000D02*
X146553900Y-70080000D01*
X146433900Y-68791000D02*
X146433900Y-70080000D01*
X146913900Y-72160000D02*
X146913900Y-73155000D01*
X146553900Y-72160000D02*
X146553900Y-73388000D01*
X147932900Y-71120000D02*
G75*
G03*
X147932900Y-71120000I-2620000J0D01*
G01*
%TO.C,D4*%
X136464000Y-89425000D02*
X136464000Y-89581000D01*
X136464000Y-87109000D02*
X136464000Y-87265000D01*
X139065130Y-87265163D02*
G75*
G03*
X136983039Y-87265000I-1041130J-1079837D01*
G01*
X136983039Y-89425000D02*
G75*
G03*
X139065130Y-89424837I1040961J1080000D01*
G01*
X136464000Y-89580516D02*
G75*
G03*
X139696335Y-89423608I1560000J1235517D01*
G01*
X139696335Y-87266392D02*
G75*
G03*
X136464000Y-87109484I-1672335J-1078609D01*
G01*
%TO.C,J5*%
X133534000Y-118439000D02*
X133534000Y-128939000D01*
X142534000Y-128939000D02*
X138534000Y-128939000D01*
X137684000Y-118439000D02*
X133534000Y-118439000D01*
X136974000Y-115459000D02*
X137834000Y-115459000D01*
X136974000Y-115459000D02*
X136974000Y-116259000D01*
X142534000Y-118439000D02*
X142534000Y-128939000D01*
X142534000Y-118439000D02*
X138384000Y-118439000D01*
X137534000Y-128939000D02*
X133534000Y-128939000D01*
X139834000Y-122939000D02*
G75*
G03*
X139834000Y-122939000I-1800000J0D01*
G01*
%TO.C,R4*%
X135335000Y-83979000D02*
X135005000Y-83979000D01*
X132925000Y-90519000D02*
X132595000Y-90519000D01*
X135005000Y-90519000D02*
X135335000Y-90519000D01*
X132595000Y-90519000D02*
X132595000Y-83979000D01*
X132595000Y-83979000D02*
X132925000Y-83979000D01*
X135335000Y-90519000D02*
X135335000Y-83979000D01*
%TO.C,SW1*%
X165172000Y-78419000D02*
X167832000Y-78419000D01*
X165172000Y-73279000D02*
X165172000Y-78419000D01*
X167832000Y-73279000D02*
X167832000Y-78419000D01*
X167832000Y-70679000D02*
X167832000Y-72009000D01*
X165172000Y-73279000D02*
X167832000Y-73279000D01*
X166502000Y-70679000D02*
X167832000Y-70679000D01*
%TO.C,D6*%
X150942000Y-112285000D02*
X150942000Y-112441000D01*
X150942000Y-109969000D02*
X150942000Y-110125000D01*
X150942000Y-112440516D02*
G75*
G03*
X154174335Y-112283608I1560000J1235517D01*
G01*
X154174335Y-110126392D02*
G75*
G03*
X150942000Y-109969484I-1672335J-1078609D01*
G01*
X151461039Y-112285000D02*
G75*
G03*
X153543130Y-112284837I1040961J1080000D01*
G01*
X153543130Y-110125163D02*
G75*
G03*
X151461039Y-110125000I-1041130J-1079837D01*
G01*
%TO.C,J2*%
X148007000Y-95579000D02*
X148007000Y-106079000D01*
X152157000Y-95579000D02*
X148007000Y-95579000D01*
X151447000Y-92599000D02*
X151447000Y-93399000D01*
X151447000Y-92599000D02*
X152307000Y-92599000D01*
X157007000Y-95579000D02*
X152857000Y-95579000D01*
X152007000Y-106079000D02*
X148007000Y-106079000D01*
X157007000Y-106079000D02*
X153007000Y-106079000D01*
X157007000Y-95579000D02*
X157007000Y-106079000D01*
X154307000Y-100079000D02*
G75*
G03*
X154307000Y-100079000I-1800000J0D01*
G01*
%TO.C,C5*%
X166362000Y-42141000D02*
X166362000Y-42766000D01*
X170402000Y-42141000D02*
X170402000Y-42766000D01*
X166362000Y-44981000D02*
X170402000Y-44981000D01*
X166362000Y-44356000D02*
X166362000Y-44981000D01*
X166362000Y-42141000D02*
X170402000Y-42141000D01*
X170402000Y-44356000D02*
X170402000Y-44981000D01*
%TO.C,C4*%
X146513900Y-77085000D02*
X146513900Y-78335000D01*
X145832900Y-76847000D02*
X145832900Y-78335000D01*
X147433900Y-77875000D02*
X147433900Y-78335000D01*
X146073900Y-80415000D02*
X146073900Y-81843000D01*
X145312900Y-76795000D02*
X145312900Y-81955000D01*
X145752900Y-76832000D02*
X145752900Y-78335000D01*
X146993900Y-80415000D02*
X146993900Y-81346000D01*
X147513900Y-77992000D02*
X147513900Y-78335000D01*
X147753900Y-78460000D02*
X147753900Y-80290000D01*
X147353900Y-80415000D02*
X147353900Y-80980000D01*
X146553900Y-77107000D02*
X146553900Y-78335000D01*
X145792900Y-80415000D02*
X145792900Y-81911000D01*
X147513900Y-80415000D02*
X147513900Y-80758000D01*
X145432900Y-76797000D02*
X145432900Y-81953000D01*
X147233900Y-80415000D02*
X147233900Y-81118000D01*
X146393900Y-77027000D02*
X146393900Y-78335000D01*
X145752900Y-80415000D02*
X145752900Y-81918000D01*
X145392900Y-76796000D02*
X145392900Y-81954000D01*
X147313900Y-80415000D02*
X147313900Y-81028000D01*
X146313900Y-76993000D02*
X146313900Y-78335000D01*
X145552900Y-76806000D02*
X145552900Y-78335000D01*
X147633900Y-78197000D02*
X147633900Y-80553000D01*
X146273900Y-76977000D02*
X146273900Y-78335000D01*
X146473900Y-80415000D02*
X146473900Y-81685000D01*
X146633900Y-77151000D02*
X146633900Y-78335000D01*
X147793900Y-78570000D02*
X147793900Y-80180000D01*
X146273900Y-80415000D02*
X146273900Y-81773000D01*
X147673900Y-78277000D02*
X147673900Y-80473000D01*
X146353900Y-77010000D02*
X146353900Y-78335000D01*
X145672900Y-80415000D02*
X145672900Y-81931000D01*
X147873900Y-78857000D02*
X147873900Y-79893000D01*
X146393900Y-80415000D02*
X146393900Y-81723000D01*
X145592900Y-76810000D02*
X145592900Y-78335000D01*
X147393900Y-77821000D02*
X147393900Y-78335000D01*
X146553900Y-80415000D02*
X146553900Y-81643000D01*
X146433900Y-77046000D02*
X146433900Y-78335000D01*
X146713900Y-77200000D02*
X146713900Y-78335000D01*
X145472900Y-76799000D02*
X145472900Y-81951000D01*
X145912900Y-80415000D02*
X145912900Y-81886000D01*
X147273900Y-77676000D02*
X147273900Y-78335000D01*
X146073900Y-76907000D02*
X146073900Y-78335000D01*
X146193900Y-80415000D02*
X146193900Y-81803000D01*
X146593900Y-80415000D02*
X146593900Y-81622000D01*
X147553900Y-78056000D02*
X147553900Y-78335000D01*
X146833900Y-77280000D02*
X146833900Y-78335000D01*
X146033900Y-80415000D02*
X146033900Y-81855000D01*
X147273900Y-80415000D02*
X147273900Y-81074000D01*
X147033900Y-77438000D02*
X147033900Y-78335000D01*
X145632900Y-76814000D02*
X145632900Y-78335000D01*
X145712900Y-76825000D02*
X145712900Y-78335000D01*
X145952900Y-80415000D02*
X145952900Y-81876000D01*
X145992900Y-80415000D02*
X145992900Y-81866000D01*
X146113900Y-76920000D02*
X146113900Y-78335000D01*
X147113900Y-77511000D02*
X147113900Y-78335000D01*
X146113900Y-80415000D02*
X146113900Y-81830000D01*
X147193900Y-80415000D02*
X147193900Y-81160000D01*
X146313900Y-80415000D02*
X146313900Y-81757000D01*
X145912900Y-76864000D02*
X145912900Y-78335000D01*
X147433900Y-80415000D02*
X147433900Y-80875000D01*
X147913900Y-79091000D02*
X147913900Y-79659000D01*
X147833900Y-78698000D02*
X147833900Y-80052000D01*
X146953900Y-80415000D02*
X146953900Y-81379000D01*
X146873900Y-80415000D02*
X146873900Y-81440000D01*
X147193900Y-77590000D02*
X147193900Y-78335000D01*
X145712900Y-80415000D02*
X145712900Y-81925000D01*
X145872900Y-80415000D02*
X145872900Y-81895000D01*
X146993900Y-77404000D02*
X146993900Y-78335000D01*
X146873900Y-77310000D02*
X146873900Y-78335000D01*
X146353900Y-80415000D02*
X146353900Y-81740000D01*
X147313900Y-77722000D02*
X147313900Y-78335000D01*
X147153900Y-80415000D02*
X147153900Y-81201000D01*
X147393900Y-80415000D02*
X147393900Y-80929000D01*
X146473900Y-77065000D02*
X146473900Y-78335000D01*
X142508125Y-77900000D02*
X143008125Y-77900000D01*
X147353900Y-77770000D02*
X147353900Y-78335000D01*
X146913900Y-80415000D02*
X146913900Y-81410000D01*
X146513900Y-80415000D02*
X146513900Y-81665000D01*
X146593900Y-77128000D02*
X146593900Y-78335000D01*
X146233900Y-76961000D02*
X146233900Y-78335000D01*
X146633900Y-80415000D02*
X146633900Y-81599000D01*
X146433900Y-80415000D02*
X146433900Y-81704000D01*
X146153900Y-76933000D02*
X146153900Y-78335000D01*
X147713900Y-78364000D02*
X147713900Y-80386000D01*
X145672900Y-76819000D02*
X145672900Y-78335000D01*
X145992900Y-76884000D02*
X145992900Y-78335000D01*
X145872900Y-76855000D02*
X145872900Y-78335000D01*
X147593900Y-80415000D02*
X147593900Y-80626000D01*
X146673900Y-80415000D02*
X146673900Y-81575000D01*
X147473900Y-77932000D02*
X147473900Y-78335000D01*
X145552900Y-80415000D02*
X145552900Y-81944000D01*
X142758125Y-77650000D02*
X142758125Y-78150000D01*
X147073900Y-80415000D02*
X147073900Y-81276000D01*
X146233900Y-80415000D02*
X146233900Y-81789000D01*
X146713900Y-80415000D02*
X146713900Y-81550000D01*
X146953900Y-77371000D02*
X146953900Y-78335000D01*
X145792900Y-76839000D02*
X145792900Y-78335000D01*
X146793900Y-80415000D02*
X146793900Y-81497000D01*
X147473900Y-80415000D02*
X147473900Y-80818000D01*
X146673900Y-77175000D02*
X146673900Y-78335000D01*
X145592900Y-80415000D02*
X145592900Y-81940000D01*
X146913900Y-77340000D02*
X146913900Y-78335000D01*
X147073900Y-77474000D02*
X147073900Y-78335000D01*
X146753900Y-80415000D02*
X146753900Y-81524000D01*
X146193900Y-76947000D02*
X146193900Y-78335000D01*
X145512900Y-76802000D02*
X145512900Y-81948000D01*
X145352900Y-76795000D02*
X145352900Y-81955000D01*
X147553900Y-80415000D02*
X147553900Y-80694000D01*
X145632900Y-80415000D02*
X145632900Y-81936000D01*
X146153900Y-80415000D02*
X146153900Y-81817000D01*
X147113900Y-80415000D02*
X147113900Y-81239000D01*
X147593900Y-78124000D02*
X147593900Y-78335000D01*
X146033900Y-76895000D02*
X146033900Y-78335000D01*
X146833900Y-80415000D02*
X146833900Y-81470000D01*
X146753900Y-77226000D02*
X146753900Y-78335000D01*
X145832900Y-80415000D02*
X145832900Y-81903000D01*
X146793900Y-77253000D02*
X146793900Y-78335000D01*
X147153900Y-77549000D02*
X147153900Y-78335000D01*
X147233900Y-77632000D02*
X147233900Y-78335000D01*
X145952900Y-76874000D02*
X145952900Y-78335000D01*
X147033900Y-80415000D02*
X147033900Y-81312000D01*
X147932900Y-79375000D02*
G75*
G03*
X147932900Y-79375000I-2620000J0D01*
G01*
%TO.C,D7*%
X164912000Y-109969000D02*
X164912000Y-110125000D01*
X164912000Y-112285000D02*
X164912000Y-112441000D01*
X168144335Y-110126392D02*
G75*
G03*
X164912000Y-109969484I-1672335J-1078609D01*
G01*
X165431039Y-112285000D02*
G75*
G03*
X167513130Y-112284837I1040961J1080000D01*
G01*
X164912000Y-112440516D02*
G75*
G03*
X168144335Y-112283608I1560000J1235517D01*
G01*
X167513130Y-110125163D02*
G75*
G03*
X165431039Y-110125000I-1041130J-1079837D01*
G01*
%TO.C,R1*%
X147403000Y-90265000D02*
X147073000Y-90265000D01*
X147073000Y-83725000D02*
X147403000Y-83725000D01*
X149813000Y-83725000D02*
X149483000Y-83725000D01*
X149483000Y-90265000D02*
X149813000Y-90265000D01*
X149813000Y-90265000D02*
X149813000Y-83725000D01*
X147073000Y-90265000D02*
X147073000Y-83725000D01*
%TO.C,J1*%
X134280500Y-41801000D02*
X134280500Y-41801000D01*
X132970500Y-37701000D02*
X134280500Y-37701000D01*
X132580500Y-34671000D02*
X131580500Y-34171000D01*
X134280500Y-41801000D02*
X132970500Y-41801000D01*
X140780500Y-30761000D02*
X140780500Y-48741000D01*
X142090500Y-29461000D02*
X142090500Y-50041000D01*
X142090500Y-50041000D02*
X132970500Y-50041000D01*
X140780500Y-48741000D02*
X134280500Y-48741000D01*
X131580500Y-35171000D02*
X132580500Y-34671000D01*
X132970500Y-29461000D02*
X142090500Y-29461000D01*
X134280500Y-48741000D02*
X134280500Y-41801000D01*
X134280500Y-37701000D02*
X134280500Y-30761000D01*
X134280500Y-30761000D02*
X140780500Y-30761000D01*
X131580500Y-34171000D02*
X131580500Y-35171000D01*
X132970500Y-50041000D02*
X132970500Y-29461000D01*
%TD*%
M02*
