%TF.GenerationSoftware,KiCad,Pcbnew,(6.0.0)*%
%TF.CreationDate,2022-10-17T09:45:53-04:00*%
%TF.ProjectId,ASVCA,41535643-412e-46b6-9963-61645f706362,rev?*%
%TF.SameCoordinates,Original*%
%TF.FileFunction,Legend,Top*%
%TF.FilePolarity,Positive*%
%FSLAX46Y46*%
G04 Gerber Fmt 4.6, Leading zero omitted, Abs format (unit mm)*
G04 Created by KiCad (PCBNEW (6.0.0)) date 2022-10-17 09:45:53*
%MOMM*%
%LPD*%
G01*
G04 APERTURE LIST*
%ADD10C,0.150000*%
%ADD11C,0.120000*%
G04 APERTURE END LIST*
D10*
%TO.C,J8*%
X121474380Y-75898333D02*
X122188666Y-75898333D01*
X122331523Y-75945952D01*
X122426761Y-76041190D01*
X122474380Y-76184047D01*
X122474380Y-76279285D01*
X121902952Y-75279285D02*
X121855333Y-75374523D01*
X121807714Y-75422142D01*
X121712476Y-75469761D01*
X121664857Y-75469761D01*
X121569619Y-75422142D01*
X121522000Y-75374523D01*
X121474380Y-75279285D01*
X121474380Y-75088809D01*
X121522000Y-74993571D01*
X121569619Y-74945952D01*
X121664857Y-74898333D01*
X121712476Y-74898333D01*
X121807714Y-74945952D01*
X121855333Y-74993571D01*
X121902952Y-75088809D01*
X121902952Y-75279285D01*
X121950571Y-75374523D01*
X121998190Y-75422142D01*
X122093428Y-75469761D01*
X122283904Y-75469761D01*
X122379142Y-75422142D01*
X122426761Y-75374523D01*
X122474380Y-75279285D01*
X122474380Y-75088809D01*
X122426761Y-74993571D01*
X122379142Y-74945952D01*
X122283904Y-74898333D01*
X122093428Y-74898333D01*
X121998190Y-74945952D01*
X121950571Y-74993571D01*
X121902952Y-75088809D01*
X137974380Y-78445952D02*
X137974380Y-78255476D01*
X138022000Y-78160238D01*
X138117238Y-78065000D01*
X138307714Y-78017380D01*
X138641047Y-78017380D01*
X138831523Y-78065000D01*
X138926761Y-78160238D01*
X138974380Y-78255476D01*
X138974380Y-78445952D01*
X138926761Y-78541190D01*
X138831523Y-78636428D01*
X138641047Y-78684047D01*
X138307714Y-78684047D01*
X138117238Y-78636428D01*
X138022000Y-78541190D01*
X137974380Y-78445952D01*
X137974380Y-77588809D02*
X138783904Y-77588809D01*
X138879142Y-77541190D01*
X138926761Y-77493571D01*
X138974380Y-77398333D01*
X138974380Y-77207857D01*
X138926761Y-77112619D01*
X138879142Y-77065000D01*
X138783904Y-77017380D01*
X137974380Y-77017380D01*
X137974380Y-76684047D02*
X137974380Y-76112619D01*
X138974380Y-76398333D02*
X137974380Y-76398333D01*
X138974380Y-75779285D02*
X137974380Y-75779285D01*
X137974380Y-75398333D01*
X138022000Y-75303095D01*
X138069619Y-75255476D01*
X138164857Y-75207857D01*
X138307714Y-75207857D01*
X138402952Y-75255476D01*
X138450571Y-75303095D01*
X138498190Y-75398333D01*
X138498190Y-75779285D01*
X137974380Y-74779285D02*
X138783904Y-74779285D01*
X138879142Y-74731666D01*
X138926761Y-74684047D01*
X138974380Y-74588809D01*
X138974380Y-74398333D01*
X138926761Y-74303095D01*
X138879142Y-74255476D01*
X138783904Y-74207857D01*
X137974380Y-74207857D01*
X137974380Y-73874523D02*
X137974380Y-73303095D01*
X138974380Y-73588809D02*
X137974380Y-73588809D01*
X138069619Y-73017380D02*
X138022000Y-72969761D01*
X137974380Y-72874523D01*
X137974380Y-72636428D01*
X138022000Y-72541190D01*
X138069619Y-72493571D01*
X138164857Y-72445952D01*
X138260095Y-72445952D01*
X138402952Y-72493571D01*
X138974380Y-73065000D01*
X138974380Y-72445952D01*
%TO.C,J2*%
X121474380Y-104685033D02*
X122188666Y-104685033D01*
X122331523Y-104732652D01*
X122426761Y-104827890D01*
X122474380Y-104970747D01*
X122474380Y-105065985D01*
X121569619Y-104256461D02*
X121522000Y-104208842D01*
X121474380Y-104113604D01*
X121474380Y-103875509D01*
X121522000Y-103780271D01*
X121569619Y-103732652D01*
X121664857Y-103685033D01*
X121760095Y-103685033D01*
X121902952Y-103732652D01*
X122474380Y-104304080D01*
X122474380Y-103685033D01*
X138974380Y-107208842D02*
X137974380Y-107208842D01*
X138974380Y-106732652D02*
X137974380Y-106732652D01*
X138974380Y-106161223D01*
X137974380Y-106161223D01*
X138974380Y-105685033D02*
X137974380Y-105685033D01*
X137974380Y-105304080D01*
X138022000Y-105208842D01*
X138069619Y-105161223D01*
X138164857Y-105113604D01*
X138307714Y-105113604D01*
X138402952Y-105161223D01*
X138450571Y-105208842D01*
X138498190Y-105304080D01*
X138498190Y-105685033D01*
X137974380Y-104685033D02*
X138783904Y-104685033D01*
X138879142Y-104637414D01*
X138926761Y-104589795D01*
X138974380Y-104494557D01*
X138974380Y-104304080D01*
X138926761Y-104208842D01*
X138879142Y-104161223D01*
X138783904Y-104113604D01*
X137974380Y-104113604D01*
X137974380Y-103780271D02*
X137974380Y-103208842D01*
X138974380Y-103494557D02*
X137974380Y-103494557D01*
X137974380Y-102970747D02*
X137974380Y-102351700D01*
X138355333Y-102685033D01*
X138355333Y-102542176D01*
X138402952Y-102446938D01*
X138450571Y-102399319D01*
X138545809Y-102351700D01*
X138783904Y-102351700D01*
X138879142Y-102399319D01*
X138926761Y-102446938D01*
X138974380Y-102542176D01*
X138974380Y-102827890D01*
X138926761Y-102923128D01*
X138879142Y-102970747D01*
X138974380Y-101494557D02*
X138450571Y-101494557D01*
X138355333Y-101542176D01*
X138307714Y-101637414D01*
X138307714Y-101827890D01*
X138355333Y-101923128D01*
X138926761Y-101494557D02*
X138974380Y-101589795D01*
X138974380Y-101827890D01*
X138926761Y-101923128D01*
X138831523Y-101970747D01*
X138736285Y-101970747D01*
X138641047Y-101923128D01*
X138593428Y-101827890D01*
X138593428Y-101589795D01*
X138545809Y-101494557D01*
%TO.C,J10*%
X117776380Y-49221923D02*
X118490666Y-49221923D01*
X118633523Y-49269542D01*
X118728761Y-49364780D01*
X118776380Y-49507638D01*
X118776380Y-49602876D01*
X118776380Y-48221923D02*
X118776380Y-48793352D01*
X118776380Y-48507638D02*
X117776380Y-48507638D01*
X117919238Y-48602876D01*
X118014476Y-48698114D01*
X118062095Y-48793352D01*
X117776380Y-47602876D02*
X117776380Y-47507638D01*
X117824000Y-47412400D01*
X117871619Y-47364780D01*
X117966857Y-47317161D01*
X118157333Y-47269542D01*
X118395428Y-47269542D01*
X118585904Y-47317161D01*
X118681142Y-47364780D01*
X118728761Y-47412400D01*
X118776380Y-47507638D01*
X118776380Y-47602876D01*
X118728761Y-47698114D01*
X118681142Y-47745733D01*
X118585904Y-47793352D01*
X118395428Y-47840971D01*
X118157333Y-47840971D01*
X117966857Y-47793352D01*
X117871619Y-47745733D01*
X117824000Y-47698114D01*
X117776380Y-47602876D01*
X102181142Y-49769542D02*
X102228761Y-49817161D01*
X102276380Y-49960019D01*
X102276380Y-50055257D01*
X102228761Y-50198114D01*
X102133523Y-50293352D01*
X102038285Y-50340971D01*
X101847809Y-50388590D01*
X101704952Y-50388590D01*
X101514476Y-50340971D01*
X101419238Y-50293352D01*
X101324000Y-50198114D01*
X101276380Y-50055257D01*
X101276380Y-49960019D01*
X101324000Y-49817161D01*
X101371619Y-49769542D01*
X101276380Y-49483828D02*
X102276380Y-49150495D01*
X101276380Y-48817161D01*
X102276380Y-48483828D02*
X101276380Y-48483828D01*
X102276380Y-48007638D02*
X101276380Y-48007638D01*
X102276380Y-47436209D01*
X101276380Y-47436209D01*
X102276380Y-46436209D02*
X102276380Y-47007638D01*
X102276380Y-46721923D02*
X101276380Y-46721923D01*
X101419238Y-46817161D01*
X101514476Y-46912400D01*
X101562095Y-47007638D01*
%TO.C,J11*%
X121474380Y-47587823D02*
X122188666Y-47587823D01*
X122331523Y-47635442D01*
X122426761Y-47730680D01*
X122474380Y-47873538D01*
X122474380Y-47968776D01*
X122474380Y-46587823D02*
X122474380Y-47159252D01*
X122474380Y-46873538D02*
X121474380Y-46873538D01*
X121617238Y-46968776D01*
X121712476Y-47064014D01*
X121760095Y-47159252D01*
X122474380Y-45635442D02*
X122474380Y-46206871D01*
X122474380Y-45921157D02*
X121474380Y-45921157D01*
X121617238Y-46016395D01*
X121712476Y-46111633D01*
X121760095Y-46206871D01*
X137974380Y-49659252D02*
X137974380Y-49468776D01*
X138022000Y-49373538D01*
X138117238Y-49278300D01*
X138307714Y-49230680D01*
X138641047Y-49230680D01*
X138831523Y-49278300D01*
X138926761Y-49373538D01*
X138974380Y-49468776D01*
X138974380Y-49659252D01*
X138926761Y-49754490D01*
X138831523Y-49849728D01*
X138641047Y-49897347D01*
X138307714Y-49897347D01*
X138117238Y-49849728D01*
X138022000Y-49754490D01*
X137974380Y-49659252D01*
X137974380Y-48802109D02*
X138783904Y-48802109D01*
X138879142Y-48754490D01*
X138926761Y-48706871D01*
X138974380Y-48611633D01*
X138974380Y-48421157D01*
X138926761Y-48325919D01*
X138879142Y-48278300D01*
X138783904Y-48230680D01*
X137974380Y-48230680D01*
X137974380Y-47897347D02*
X137974380Y-47325919D01*
X138974380Y-47611633D02*
X137974380Y-47611633D01*
X138974380Y-46992585D02*
X137974380Y-46992585D01*
X137974380Y-46611633D01*
X138022000Y-46516395D01*
X138069619Y-46468776D01*
X138164857Y-46421157D01*
X138307714Y-46421157D01*
X138402952Y-46468776D01*
X138450571Y-46516395D01*
X138498190Y-46611633D01*
X138498190Y-46992585D01*
X137974380Y-45992585D02*
X138783904Y-45992585D01*
X138879142Y-45944966D01*
X138926761Y-45897347D01*
X138974380Y-45802109D01*
X138974380Y-45611633D01*
X138926761Y-45516395D01*
X138879142Y-45468776D01*
X138783904Y-45421157D01*
X137974380Y-45421157D01*
X137974380Y-45087823D02*
X137974380Y-44516395D01*
X138974380Y-44802109D02*
X137974380Y-44802109D01*
X138974380Y-43659252D02*
X138974380Y-44230680D01*
X138974380Y-43944966D02*
X137974380Y-43944966D01*
X138117238Y-44040204D01*
X138212476Y-44135442D01*
X138260095Y-44230680D01*
%TO.C,J9*%
X121474380Y-32718333D02*
X122188666Y-32718333D01*
X122331523Y-32765952D01*
X122426761Y-32861190D01*
X122474380Y-33004047D01*
X122474380Y-33099285D01*
X122474380Y-32194523D02*
X122474380Y-32004047D01*
X122426761Y-31908809D01*
X122379142Y-31861190D01*
X122236285Y-31765952D01*
X122045809Y-31718333D01*
X121664857Y-31718333D01*
X121569619Y-31765952D01*
X121522000Y-31813571D01*
X121474380Y-31908809D01*
X121474380Y-32099285D01*
X121522000Y-32194523D01*
X121569619Y-32242142D01*
X121664857Y-32289761D01*
X121902952Y-32289761D01*
X121998190Y-32242142D01*
X122045809Y-32194523D01*
X122093428Y-32099285D01*
X122093428Y-31908809D01*
X122045809Y-31813571D01*
X121998190Y-31765952D01*
X121902952Y-31718333D01*
X138974380Y-34789761D02*
X137974380Y-34789761D01*
X138974380Y-34313571D02*
X137974380Y-34313571D01*
X138974380Y-33742142D01*
X137974380Y-33742142D01*
X138974380Y-33265952D02*
X137974380Y-33265952D01*
X137974380Y-32885000D01*
X138022000Y-32789761D01*
X138069619Y-32742142D01*
X138164857Y-32694523D01*
X138307714Y-32694523D01*
X138402952Y-32742142D01*
X138450571Y-32789761D01*
X138498190Y-32885000D01*
X138498190Y-33265952D01*
X137974380Y-32265952D02*
X138783904Y-32265952D01*
X138879142Y-32218333D01*
X138926761Y-32170714D01*
X138974380Y-32075476D01*
X138974380Y-31885000D01*
X138926761Y-31789761D01*
X138879142Y-31742142D01*
X138783904Y-31694523D01*
X137974380Y-31694523D01*
X137974380Y-31361190D02*
X137974380Y-30789761D01*
X138974380Y-31075476D02*
X137974380Y-31075476D01*
X138974380Y-29932619D02*
X138974380Y-30504047D01*
X138974380Y-30218333D02*
X137974380Y-30218333D01*
X138117238Y-30313571D01*
X138212476Y-30408809D01*
X138260095Y-30504047D01*
%TO.C,J3*%
X121474380Y-90291633D02*
X122188666Y-90291633D01*
X122331523Y-90339252D01*
X122426761Y-90434490D01*
X122474380Y-90577347D01*
X122474380Y-90672585D01*
X121474380Y-89910680D02*
X121474380Y-89291633D01*
X121855333Y-89624966D01*
X121855333Y-89482109D01*
X121902952Y-89386871D01*
X121950571Y-89339252D01*
X122045809Y-89291633D01*
X122283904Y-89291633D01*
X122379142Y-89339252D01*
X122426761Y-89386871D01*
X122474380Y-89482109D01*
X122474380Y-89767823D01*
X122426761Y-89863061D01*
X122379142Y-89910680D01*
X138974380Y-92815442D02*
X137974380Y-92815442D01*
X138974380Y-92339252D02*
X137974380Y-92339252D01*
X138974380Y-91767823D01*
X137974380Y-91767823D01*
X138974380Y-91291633D02*
X137974380Y-91291633D01*
X137974380Y-90910680D01*
X138022000Y-90815442D01*
X138069619Y-90767823D01*
X138164857Y-90720204D01*
X138307714Y-90720204D01*
X138402952Y-90767823D01*
X138450571Y-90815442D01*
X138498190Y-90910680D01*
X138498190Y-91291633D01*
X137974380Y-90291633D02*
X138783904Y-90291633D01*
X138879142Y-90244014D01*
X138926761Y-90196395D01*
X138974380Y-90101157D01*
X138974380Y-89910680D01*
X138926761Y-89815442D01*
X138879142Y-89767823D01*
X138783904Y-89720204D01*
X137974380Y-89720204D01*
X137974380Y-89386871D02*
X137974380Y-88815442D01*
X138974380Y-89101157D02*
X137974380Y-89101157D01*
X137974380Y-88577347D02*
X137974380Y-87958300D01*
X138355333Y-88291633D01*
X138355333Y-88148776D01*
X138402952Y-88053538D01*
X138450571Y-88005919D01*
X138545809Y-87958300D01*
X138783904Y-87958300D01*
X138879142Y-88005919D01*
X138926761Y-88053538D01*
X138974380Y-88148776D01*
X138974380Y-88434490D01*
X138926761Y-88529728D01*
X138879142Y-88577347D01*
X138974380Y-87529728D02*
X137974380Y-87529728D01*
X138355333Y-87529728D02*
X138307714Y-87434490D01*
X138307714Y-87244014D01*
X138355333Y-87148776D01*
X138402952Y-87101157D01*
X138498190Y-87053538D01*
X138783904Y-87053538D01*
X138879142Y-87101157D01*
X138926761Y-87148776D01*
X138974380Y-87244014D01*
X138974380Y-87434490D01*
X138926761Y-87529728D01*
%TO.C,J7*%
X117776380Y-78260533D02*
X118490666Y-78260533D01*
X118633523Y-78308152D01*
X118728761Y-78403390D01*
X118776380Y-78546247D01*
X118776380Y-78641485D01*
X117776380Y-77879580D02*
X117776380Y-77212914D01*
X118776380Y-77641485D01*
X102181142Y-79284342D02*
X102228761Y-79331961D01*
X102276380Y-79474819D01*
X102276380Y-79570057D01*
X102228761Y-79712914D01*
X102133523Y-79808152D01*
X102038285Y-79855771D01*
X101847809Y-79903390D01*
X101704952Y-79903390D01*
X101514476Y-79855771D01*
X101419238Y-79808152D01*
X101324000Y-79712914D01*
X101276380Y-79570057D01*
X101276380Y-79474819D01*
X101324000Y-79331961D01*
X101371619Y-79284342D01*
X101276380Y-78998628D02*
X102276380Y-78665295D01*
X101276380Y-78331961D01*
X102276380Y-77998628D02*
X101276380Y-77998628D01*
X102276380Y-77522438D02*
X101276380Y-77522438D01*
X102276380Y-76951009D01*
X101276380Y-76951009D01*
X101371619Y-76522438D02*
X101324000Y-76474819D01*
X101276380Y-76379580D01*
X101276380Y-76141485D01*
X101324000Y-76046247D01*
X101371619Y-75998628D01*
X101466857Y-75951009D01*
X101562095Y-75951009D01*
X101704952Y-75998628D01*
X102276380Y-76570057D01*
X102276380Y-75951009D01*
%TO.C,J6*%
X121474380Y-61505033D02*
X122188666Y-61505033D01*
X122331523Y-61552652D01*
X122426761Y-61647890D01*
X122474380Y-61790747D01*
X122474380Y-61885985D01*
X121474380Y-60600271D02*
X121474380Y-60790747D01*
X121522000Y-60885985D01*
X121569619Y-60933604D01*
X121712476Y-61028842D01*
X121902952Y-61076461D01*
X122283904Y-61076461D01*
X122379142Y-61028842D01*
X122426761Y-60981223D01*
X122474380Y-60885985D01*
X122474380Y-60695509D01*
X122426761Y-60600271D01*
X122379142Y-60552652D01*
X122283904Y-60505033D01*
X122045809Y-60505033D01*
X121950571Y-60552652D01*
X121902952Y-60600271D01*
X121855333Y-60695509D01*
X121855333Y-60885985D01*
X121902952Y-60981223D01*
X121950571Y-61028842D01*
X122045809Y-61076461D01*
X138974380Y-63576461D02*
X137974380Y-63576461D01*
X138974380Y-63100271D02*
X137974380Y-63100271D01*
X138974380Y-62528842D01*
X137974380Y-62528842D01*
X138974380Y-62052652D02*
X137974380Y-62052652D01*
X137974380Y-61671700D01*
X138022000Y-61576461D01*
X138069619Y-61528842D01*
X138164857Y-61481223D01*
X138307714Y-61481223D01*
X138402952Y-61528842D01*
X138450571Y-61576461D01*
X138498190Y-61671700D01*
X138498190Y-62052652D01*
X137974380Y-61052652D02*
X138783904Y-61052652D01*
X138879142Y-61005033D01*
X138926761Y-60957414D01*
X138974380Y-60862176D01*
X138974380Y-60671700D01*
X138926761Y-60576461D01*
X138879142Y-60528842D01*
X138783904Y-60481223D01*
X137974380Y-60481223D01*
X137974380Y-60147890D02*
X137974380Y-59576461D01*
X138974380Y-59862176D02*
X137974380Y-59862176D01*
X138069619Y-59290747D02*
X138022000Y-59243128D01*
X137974380Y-59147890D01*
X137974380Y-58909795D01*
X138022000Y-58814557D01*
X138069619Y-58766938D01*
X138164857Y-58719319D01*
X138260095Y-58719319D01*
X138402952Y-58766938D01*
X138974380Y-59338366D01*
X138974380Y-58719319D01*
%TO.C,J4*%
X117776380Y-107775333D02*
X118490666Y-107775333D01*
X118633523Y-107822952D01*
X118728761Y-107918190D01*
X118776380Y-108061047D01*
X118776380Y-108156285D01*
X118109714Y-106870571D02*
X118776380Y-106870571D01*
X117728761Y-107108666D02*
X118443047Y-107346761D01*
X118443047Y-106727714D01*
X102181142Y-108799142D02*
X102228761Y-108846761D01*
X102276380Y-108989619D01*
X102276380Y-109084857D01*
X102228761Y-109227714D01*
X102133523Y-109322952D01*
X102038285Y-109370571D01*
X101847809Y-109418190D01*
X101704952Y-109418190D01*
X101514476Y-109370571D01*
X101419238Y-109322952D01*
X101324000Y-109227714D01*
X101276380Y-109084857D01*
X101276380Y-108989619D01*
X101324000Y-108846761D01*
X101371619Y-108799142D01*
X101276380Y-108513428D02*
X102276380Y-108180095D01*
X101276380Y-107846761D01*
X102276380Y-107513428D02*
X101276380Y-107513428D01*
X102276380Y-107037238D02*
X101276380Y-107037238D01*
X102276380Y-106465809D01*
X101276380Y-106465809D01*
X101276380Y-106084857D02*
X101276380Y-105465809D01*
X101657333Y-105799142D01*
X101657333Y-105656285D01*
X101704952Y-105561047D01*
X101752571Y-105513428D01*
X101847809Y-105465809D01*
X102085904Y-105465809D01*
X102181142Y-105513428D01*
X102228761Y-105561047D01*
X102276380Y-105656285D01*
X102276380Y-105942000D01*
X102228761Y-106037238D01*
X102181142Y-106084857D01*
%TO.C,J5*%
X121474380Y-119078333D02*
X122188666Y-119078333D01*
X122331523Y-119125952D01*
X122426761Y-119221190D01*
X122474380Y-119364047D01*
X122474380Y-119459285D01*
X121474380Y-118125952D02*
X121474380Y-118602142D01*
X121950571Y-118649761D01*
X121902952Y-118602142D01*
X121855333Y-118506904D01*
X121855333Y-118268809D01*
X121902952Y-118173571D01*
X121950571Y-118125952D01*
X122045809Y-118078333D01*
X122283904Y-118078333D01*
X122379142Y-118125952D01*
X122426761Y-118173571D01*
X122474380Y-118268809D01*
X122474380Y-118506904D01*
X122426761Y-118602142D01*
X122379142Y-118649761D01*
X137974380Y-121625952D02*
X137974380Y-121435476D01*
X138022000Y-121340238D01*
X138117238Y-121245000D01*
X138307714Y-121197380D01*
X138641047Y-121197380D01*
X138831523Y-121245000D01*
X138926761Y-121340238D01*
X138974380Y-121435476D01*
X138974380Y-121625952D01*
X138926761Y-121721190D01*
X138831523Y-121816428D01*
X138641047Y-121864047D01*
X138307714Y-121864047D01*
X138117238Y-121816428D01*
X138022000Y-121721190D01*
X137974380Y-121625952D01*
X137974380Y-120768809D02*
X138783904Y-120768809D01*
X138879142Y-120721190D01*
X138926761Y-120673571D01*
X138974380Y-120578333D01*
X138974380Y-120387857D01*
X138926761Y-120292619D01*
X138879142Y-120245000D01*
X138783904Y-120197380D01*
X137974380Y-120197380D01*
X137974380Y-119864047D02*
X137974380Y-119292619D01*
X138974380Y-119578333D02*
X137974380Y-119578333D01*
X138974380Y-118959285D02*
X137974380Y-118959285D01*
X137974380Y-118578333D01*
X138022000Y-118483095D01*
X138069619Y-118435476D01*
X138164857Y-118387857D01*
X138307714Y-118387857D01*
X138402952Y-118435476D01*
X138450571Y-118483095D01*
X138498190Y-118578333D01*
X138498190Y-118959285D01*
X137974380Y-117959285D02*
X138783904Y-117959285D01*
X138879142Y-117911666D01*
X138926761Y-117864047D01*
X138974380Y-117768809D01*
X138974380Y-117578333D01*
X138926761Y-117483095D01*
X138879142Y-117435476D01*
X138783904Y-117387857D01*
X137974380Y-117387857D01*
X137974380Y-117054523D02*
X137974380Y-116483095D01*
X138974380Y-116768809D02*
X137974380Y-116768809D01*
X137974380Y-116245000D02*
X137974380Y-115625952D01*
X138355333Y-115959285D01*
X138355333Y-115816428D01*
X138402952Y-115721190D01*
X138450571Y-115673571D01*
X138545809Y-115625952D01*
X138783904Y-115625952D01*
X138879142Y-115673571D01*
X138926761Y-115721190D01*
X138974380Y-115816428D01*
X138974380Y-116102142D01*
X138926761Y-116197380D01*
X138879142Y-116245000D01*
D11*
%TO.C,RV3*%
X103299000Y-87814600D02*
X103299000Y-97554600D01*
X106359000Y-87814600D02*
X103299000Y-87814600D01*
X114889000Y-87814600D02*
X110169000Y-87814600D01*
X114889000Y-91024600D02*
X114889000Y-91854600D01*
X114889000Y-87814600D02*
X114889000Y-89304600D01*
X114889000Y-93474600D02*
X114889000Y-94004600D01*
X106359000Y-97554600D02*
X103299000Y-97554600D01*
X114889000Y-97564600D02*
X110169000Y-97564600D01*
X114889000Y-96374600D02*
X114889000Y-97554600D01*
%TO.C,J8*%
X137002000Y-76065000D02*
X137002000Y-80065000D01*
X126502000Y-71065000D02*
X126502000Y-75215000D01*
X137002000Y-71065000D02*
X137002000Y-75065000D01*
X123522000Y-76625000D02*
X124322000Y-76625000D01*
X126502000Y-75915000D02*
X126502000Y-80065000D01*
X126502000Y-71065000D02*
X137002000Y-71065000D01*
X126502000Y-80065000D02*
X137002000Y-80065000D01*
X123522000Y-76625000D02*
X123522000Y-75765000D01*
X132802000Y-75565000D02*
G75*
G03*
X132802000Y-75565000I-1800000J0D01*
G01*
%TO.C,J2*%
X126502000Y-104701700D02*
X126502000Y-108851700D01*
X123522000Y-105411700D02*
X123522000Y-104551700D01*
X137002000Y-99851700D02*
X137002000Y-103851700D01*
X126502000Y-99851700D02*
X126502000Y-104001700D01*
X126502000Y-108851700D02*
X137002000Y-108851700D01*
X123522000Y-105411700D02*
X124322000Y-105411700D01*
X137002000Y-104851700D02*
X137002000Y-108851700D01*
X126502000Y-99851700D02*
X137002000Y-99851700D01*
X132802000Y-104351700D02*
G75*
G03*
X132802000Y-104351700I-1800000J0D01*
G01*
%TO.C,J10*%
X113844000Y-52912400D02*
X113844000Y-48762400D01*
X103344000Y-47912400D02*
X103344000Y-43912400D01*
X103344000Y-52912400D02*
X103344000Y-48912400D01*
X116824000Y-47352400D02*
X116824000Y-48212400D01*
X113844000Y-48062400D02*
X113844000Y-43912400D01*
X113844000Y-52912400D02*
X103344000Y-52912400D01*
X116824000Y-47352400D02*
X116024000Y-47352400D01*
X113844000Y-43912400D02*
X103344000Y-43912400D01*
X111144000Y-48412400D02*
G75*
G03*
X111144000Y-48412400I-1800000J0D01*
G01*
%TO.C,J11*%
X137002000Y-42278300D02*
X137002000Y-46278300D01*
X123522000Y-47838300D02*
X123522000Y-46978300D01*
X126502000Y-51278300D02*
X137002000Y-51278300D01*
X137002000Y-47278300D02*
X137002000Y-51278300D01*
X126502000Y-47128300D02*
X126502000Y-51278300D01*
X123522000Y-47838300D02*
X124322000Y-47838300D01*
X126502000Y-42278300D02*
X126502000Y-46428300D01*
X126502000Y-42278300D02*
X137002000Y-42278300D01*
X132802000Y-46778300D02*
G75*
G03*
X132802000Y-46778300I-1800000J0D01*
G01*
%TO.C,J9*%
X126502000Y-27885000D02*
X126502000Y-32035000D01*
X123522000Y-33445000D02*
X123522000Y-32585000D01*
X126502000Y-36885000D02*
X137002000Y-36885000D01*
X137002000Y-27885000D02*
X137002000Y-31885000D01*
X126502000Y-32735000D02*
X126502000Y-36885000D01*
X123522000Y-33445000D02*
X124322000Y-33445000D01*
X137002000Y-32885000D02*
X137002000Y-36885000D01*
X126502000Y-27885000D02*
X137002000Y-27885000D01*
X132802000Y-32385000D02*
G75*
G03*
X132802000Y-32385000I-1800000J0D01*
G01*
%TO.C,J3*%
X123522000Y-91018300D02*
X124322000Y-91018300D01*
X126502000Y-85458300D02*
X126502000Y-89608300D01*
X137002000Y-85458300D02*
X137002000Y-89458300D01*
X137002000Y-90458300D02*
X137002000Y-94458300D01*
X126502000Y-90308300D02*
X126502000Y-94458300D01*
X126502000Y-94458300D02*
X137002000Y-94458300D01*
X126502000Y-85458300D02*
X137002000Y-85458300D01*
X123522000Y-91018300D02*
X123522000Y-90158300D01*
X132802000Y-89958300D02*
G75*
G03*
X132802000Y-89958300I-1800000J0D01*
G01*
%TO.C,J7*%
X103344000Y-77427200D02*
X103344000Y-73427200D01*
X103344000Y-82427200D02*
X103344000Y-78427200D01*
X116824000Y-76867200D02*
X116824000Y-77727200D01*
X113844000Y-77577200D02*
X113844000Y-73427200D01*
X113844000Y-82427200D02*
X113844000Y-78277200D01*
X116824000Y-76867200D02*
X116024000Y-76867200D01*
X113844000Y-82427200D02*
X103344000Y-82427200D01*
X113844000Y-73427200D02*
X103344000Y-73427200D01*
X111144000Y-77927200D02*
G75*
G03*
X111144000Y-77927200I-1800000J0D01*
G01*
%TO.C,J6*%
X126502000Y-56671700D02*
X137002000Y-56671700D01*
X126502000Y-61521700D02*
X126502000Y-65671700D01*
X126502000Y-65671700D02*
X137002000Y-65671700D01*
X137002000Y-61671700D02*
X137002000Y-65671700D01*
X123522000Y-62231700D02*
X123522000Y-61371700D01*
X123522000Y-62231700D02*
X124322000Y-62231700D01*
X137002000Y-56671700D02*
X137002000Y-60671700D01*
X126502000Y-56671700D02*
X126502000Y-60821700D01*
X132802000Y-61171700D02*
G75*
G03*
X132802000Y-61171700I-1800000J0D01*
G01*
%TO.C,J4*%
X113844000Y-102942000D02*
X103344000Y-102942000D01*
X113844000Y-111942000D02*
X103344000Y-111942000D01*
X116824000Y-106382000D02*
X116824000Y-107242000D01*
X103344000Y-111942000D02*
X103344000Y-107942000D01*
X113844000Y-111942000D02*
X113844000Y-107792000D01*
X116824000Y-106382000D02*
X116024000Y-106382000D01*
X113844000Y-107092000D02*
X113844000Y-102942000D01*
X103344000Y-106942000D02*
X103344000Y-102942000D01*
X111144000Y-107442000D02*
G75*
G03*
X111144000Y-107442000I-1800000J0D01*
G01*
%TO.C,J5*%
X126502000Y-114245000D02*
X126502000Y-118395000D01*
X123522000Y-119805000D02*
X123522000Y-118945000D01*
X137002000Y-119245000D02*
X137002000Y-123245000D01*
X123522000Y-119805000D02*
X124322000Y-119805000D01*
X126502000Y-123245000D02*
X137002000Y-123245000D01*
X137002000Y-114245000D02*
X137002000Y-118245000D01*
X126502000Y-114245000D02*
X137002000Y-114245000D01*
X126502000Y-119095000D02*
X126502000Y-123245000D01*
X132802000Y-118745000D02*
G75*
G03*
X132802000Y-118745000I-1800000J0D01*
G01*
%TO.C,RV2*%
X114889000Y-58299800D02*
X110169000Y-58299800D01*
X114889000Y-66859800D02*
X114889000Y-68039800D01*
X114889000Y-58299800D02*
X114889000Y-59789800D01*
X114889000Y-63959800D02*
X114889000Y-64489800D01*
X103299000Y-58299800D02*
X103299000Y-68039800D01*
X114889000Y-61509800D02*
X114889000Y-62339800D01*
X106359000Y-68039800D02*
X103299000Y-68039800D01*
X114889000Y-68049800D02*
X110169000Y-68049800D01*
X106359000Y-58299800D02*
X103299000Y-58299800D01*
%TO.C,J13*%
X118939000Y-57658000D02*
X121599000Y-57658000D01*
X118939000Y-57658000D02*
X118939000Y-95818000D01*
X118939000Y-95818000D02*
X121599000Y-95818000D01*
X121599000Y-57658000D02*
X121599000Y-95818000D01*
X118939000Y-55058000D02*
X120269000Y-55058000D01*
X118939000Y-56388000D02*
X118939000Y-55058000D01*
%TO.C,RV1*%
X103299000Y-28785000D02*
X103299000Y-38525000D01*
X114889000Y-31995000D02*
X114889000Y-32825000D01*
X106359000Y-38525000D02*
X103299000Y-38525000D01*
X114889000Y-34445000D02*
X114889000Y-34975000D01*
X114889000Y-28785000D02*
X114889000Y-30275000D01*
X114889000Y-28785000D02*
X110169000Y-28785000D01*
X114889000Y-38535000D02*
X110169000Y-38535000D01*
X114889000Y-37345000D02*
X114889000Y-38525000D01*
X106359000Y-28785000D02*
X103299000Y-28785000D01*
%TD*%
M02*
