M48
; DRILL file {KiCad (6.0.0)} date Mon Oct 17 09:45:56 2022
; FORMAT={-:-/ absolute / inch / decimal}
; #@! TF.CreationDate,2022-10-17T09:45:56-04:00
; #@! TF.GenerationSoftware,Kicad,Pcbnew,(6.0.0)
; #@! TF.FileFunction,Plated,1,2,PTH
FMAT,2
INCH
; #@! TA.AperFunction,Plated,PTH,ViaDrill
T1C0.0157
; #@! TA.AperFunction,Plated,PTH,ComponentDrill
T2C0.0394
; #@! TA.AperFunction,Plated,PTH,ComponentDrill
T3C0.0433
; #@! TA.AperFunction,Plated,PTH,ComponentDrill
T4C0.0480
; #@! TA.AperFunction,Plated,PTH,ComponentDrill
T5C0.0559
; #@! TA.AperFunction,Plated,PTH,ComponentDrill
T6C0.0563
%
G90
G05
T1
X4.8092Y-3.5663
T2
X4.5578Y-1.2266
X4.5578Y-1.325
X4.5578Y-1.4234
X4.5578Y-2.3886
X4.5578Y-2.487
X4.5578Y-2.5854
X4.5578Y-3.5506
X4.5578Y-3.649
X4.5578Y-3.7474
X4.735Y-2.22
X4.735Y-2.32
X4.735Y-2.42
X4.735Y-2.52
X4.735Y-2.62
X4.735Y-2.72
X4.735Y-2.82
X4.735Y-2.92
X4.735Y-3.02
X4.735Y-3.12
X4.735Y-3.22
X4.735Y-3.32
X4.735Y-3.42
X4.735Y-3.52
X4.735Y-3.62
X4.735Y-3.72
T4
X4.56Y-1.906
X4.56Y-3.068
X4.56Y-4.23
X4.9024Y-1.275
X4.9024Y-1.8417
X4.9024Y-2.4083
X4.9024Y-2.975
X4.9024Y-3.5417
X4.9024Y-4.1083
X4.9024Y-4.675
T5
X4.438Y-1.906
X4.438Y-3.068
X4.438Y-4.23
X5.0245Y-1.275
X5.0245Y-1.8417
X5.0245Y-2.4083
X5.0245Y-2.975
X5.0245Y-3.5417
X5.0245Y-4.1083
X5.0245Y-4.675
T6
X4.1112Y-1.906
X4.1112Y-3.068
X4.1112Y-4.23
X5.3513Y-1.275
X5.3513Y-1.8417
X5.3513Y-2.4083
X5.3513Y-2.975
X5.3513Y-3.5417
X5.3513Y-4.1083
X5.3513Y-4.675
T3
G00X4.2862Y-1.136
M15
G01X4.2389Y-1.136
M16
G05
G00X4.2862Y-1.514
M15
G01X4.2389Y-1.514
M16
G05
G00X4.2862Y-2.298
M15
G01X4.2389Y-2.298
M16
G05
G00X4.2862Y-2.676
M15
G01X4.2389Y-2.676
M16
G05
G00X4.2862Y-3.46
M15
G01X4.2389Y-3.46
M16
G05
G00X4.2862Y-3.838
M15
G01X4.2389Y-3.838
M16
G05
T0
M30
