%TF.GenerationSoftware,KiCad,Pcbnew,(6.0.0)*%
%TF.CreationDate,2022-10-17T09:45:53-04:00*%
%TF.ProjectId,ASVCA,41535643-412e-46b6-9963-61645f706362,rev?*%
%TF.SameCoordinates,Original*%
%TF.FileFunction,Soldermask,Top*%
%TF.FilePolarity,Negative*%
%FSLAX46Y46*%
G04 Gerber Fmt 4.6, Leading zero omitted, Abs format (unit mm)*
G04 Created by KiCad (PCBNEW (6.0.0)) date 2022-10-17 09:45:53*
%MOMM*%
%LPD*%
G01*
G04 APERTURE LIST*
%ADD10O,3.240000X2.720000*%
%ADD11R,1.800000X1.800000*%
%ADD12C,1.800000*%
%ADD13R,1.830000X1.930000*%
%ADD14C,2.130000*%
%ADD15R,1.700000X1.700000*%
%ADD16O,1.700000X1.700000*%
G04 APERTURE END LIST*
D10*
%TO.C,RV3*%
X108269000Y-87884600D03*
X108269000Y-97484600D03*
D11*
X115769000Y-95184600D03*
D12*
X115769000Y-92684600D03*
X115769000Y-90184600D03*
%TD*%
D13*
%TO.C,J8*%
X124522000Y-75565000D03*
D14*
X135922000Y-75565000D03*
X127622000Y-75565000D03*
%TD*%
D13*
%TO.C,J2*%
X124522000Y-104351700D03*
D14*
X135922000Y-104351700D03*
X127622000Y-104351700D03*
%TD*%
D13*
%TO.C,J10*%
X115824000Y-48412400D03*
D14*
X104424000Y-48412400D03*
X112724000Y-48412400D03*
%TD*%
D13*
%TO.C,J11*%
X124522000Y-46778300D03*
D14*
X135922000Y-46778300D03*
X127622000Y-46778300D03*
%TD*%
D13*
%TO.C,J9*%
X124522000Y-32385000D03*
D14*
X135922000Y-32385000D03*
X127622000Y-32385000D03*
%TD*%
D13*
%TO.C,J3*%
X124522000Y-89958300D03*
D14*
X135922000Y-89958300D03*
X127622000Y-89958300D03*
%TD*%
D13*
%TO.C,J7*%
X115824000Y-77927200D03*
D14*
X104424000Y-77927200D03*
X112724000Y-77927200D03*
%TD*%
D13*
%TO.C,J6*%
X124522000Y-61171700D03*
D14*
X135922000Y-61171700D03*
X127622000Y-61171700D03*
%TD*%
D13*
%TO.C,J4*%
X115824000Y-107442000D03*
D14*
X104424000Y-107442000D03*
X112724000Y-107442000D03*
%TD*%
D13*
%TO.C,J5*%
X124522000Y-118745000D03*
D14*
X135922000Y-118745000D03*
X127622000Y-118745000D03*
%TD*%
D10*
%TO.C,RV2*%
X108269000Y-67969800D03*
X108269000Y-58369800D03*
D11*
X115769000Y-65669800D03*
D12*
X115769000Y-63169800D03*
X115769000Y-60669800D03*
%TD*%
D15*
%TO.C,J13*%
X120269000Y-56388000D03*
D16*
X120269000Y-58928000D03*
X120269000Y-61468000D03*
X120269000Y-64008000D03*
X120269000Y-66548000D03*
X120269000Y-69088000D03*
X120269000Y-71628000D03*
X120269000Y-74168000D03*
X120269000Y-76708000D03*
X120269000Y-79248000D03*
X120269000Y-81788000D03*
X120269000Y-84328000D03*
X120269000Y-86868000D03*
X120269000Y-89408000D03*
X120269000Y-91948000D03*
X120269000Y-94488000D03*
%TD*%
D10*
%TO.C,RV1*%
X108269000Y-28855000D03*
X108269000Y-38455000D03*
D11*
X115769000Y-36155000D03*
D12*
X115769000Y-33655000D03*
X115769000Y-31155000D03*
%TD*%
M02*
