%TF.GenerationSoftware,KiCad,Pcbnew,(6.0.0)*%
%TF.CreationDate,2022-10-17T09:45:21-04:00*%
%TF.ProjectId,ASVCA,41535643-412e-46b6-9963-61645f706362,rev?*%
%TF.SameCoordinates,Original*%
%TF.FileFunction,Legend,Top*%
%TF.FilePolarity,Positive*%
%FSLAX46Y46*%
G04 Gerber Fmt 4.6, Leading zero omitted, Abs format (unit mm)*
G04 Created by KiCad (PCBNEW (6.0.0)) date 2022-10-17 09:45:21*
%MOMM*%
%LPD*%
G01*
G04 APERTURE LIST*
%ADD10C,0.150000*%
%ADD11C,0.120000*%
G04 APERTURE END LIST*
D10*
%TO.C,R3*%
X83224333Y-110799619D02*
X83271952Y-110752000D01*
X83367190Y-110704380D01*
X83605285Y-110704380D01*
X83700523Y-110752000D01*
X83748142Y-110799619D01*
X83795761Y-110894857D01*
X83795761Y-110990095D01*
X83748142Y-111132952D01*
X83176714Y-111704380D01*
X83795761Y-111704380D01*
X84748142Y-111704380D02*
X84176714Y-111704380D01*
X84462428Y-111704380D02*
X84462428Y-110704380D01*
X84367190Y-110847238D01*
X84271952Y-110942476D01*
X84176714Y-110990095D01*
X85176714Y-111704380D02*
X85176714Y-110704380D01*
X85271952Y-111323428D02*
X85557666Y-111704380D01*
X85557666Y-111037714D02*
X85176714Y-111418666D01*
%TO.C,R25*%
X78493571Y-66174880D02*
X77922142Y-66174880D01*
X78207857Y-66174880D02*
X78207857Y-65174880D01*
X78112619Y-65317738D01*
X78017380Y-65412976D01*
X77922142Y-65460595D01*
X79112619Y-65174880D02*
X79207857Y-65174880D01*
X79303095Y-65222500D01*
X79350714Y-65270119D01*
X79398333Y-65365357D01*
X79445952Y-65555833D01*
X79445952Y-65793928D01*
X79398333Y-65984404D01*
X79350714Y-66079642D01*
X79303095Y-66127261D01*
X79207857Y-66174880D01*
X79112619Y-66174880D01*
X79017380Y-66127261D01*
X78969761Y-66079642D01*
X78922142Y-65984404D01*
X78874523Y-65793928D01*
X78874523Y-65555833D01*
X78922142Y-65365357D01*
X78969761Y-65270119D01*
X79017380Y-65222500D01*
X79112619Y-65174880D01*
X80065000Y-65174880D02*
X80160238Y-65174880D01*
X80255476Y-65222500D01*
X80303095Y-65270119D01*
X80350714Y-65365357D01*
X80398333Y-65555833D01*
X80398333Y-65793928D01*
X80350714Y-65984404D01*
X80303095Y-66079642D01*
X80255476Y-66127261D01*
X80160238Y-66174880D01*
X80065000Y-66174880D01*
X79969761Y-66127261D01*
X79922142Y-66079642D01*
X79874523Y-65984404D01*
X79826904Y-65793928D01*
X79826904Y-65555833D01*
X79874523Y-65365357D01*
X79922142Y-65270119D01*
X79969761Y-65222500D01*
X80065000Y-65174880D01*
X80826904Y-66174880D02*
X80826904Y-65174880D01*
X80922142Y-65793928D02*
X81207857Y-66174880D01*
X81207857Y-65508214D02*
X80826904Y-65889166D01*
%TO.C,R30*%
X79445952Y-56459380D02*
X78874523Y-56459380D01*
X79160238Y-56459380D02*
X79160238Y-55459380D01*
X79065000Y-55602238D01*
X78969761Y-55697476D01*
X78874523Y-55745095D01*
X79874523Y-56459380D02*
X79874523Y-55459380D01*
X79969761Y-56078428D02*
X80255476Y-56459380D01*
X80255476Y-55792714D02*
X79874523Y-56173666D01*
%TO.C,R10*%
X59888142Y-78725019D02*
X59935761Y-78677400D01*
X60031000Y-78629780D01*
X60269095Y-78629780D01*
X60364333Y-78677400D01*
X60411952Y-78725019D01*
X60459571Y-78820257D01*
X60459571Y-78915495D01*
X60411952Y-79058352D01*
X59840523Y-79629780D01*
X60459571Y-79629780D01*
X61364333Y-78629780D02*
X60888142Y-78629780D01*
X60840523Y-79105971D01*
X60888142Y-79058352D01*
X60983380Y-79010733D01*
X61221476Y-79010733D01*
X61316714Y-79058352D01*
X61364333Y-79105971D01*
X61411952Y-79201209D01*
X61411952Y-79439304D01*
X61364333Y-79534542D01*
X61316714Y-79582161D01*
X61221476Y-79629780D01*
X60983380Y-79629780D01*
X60888142Y-79582161D01*
X60840523Y-79534542D01*
X62031000Y-78629780D02*
X62126238Y-78629780D01*
X62221476Y-78677400D01*
X62269095Y-78725019D01*
X62316714Y-78820257D01*
X62364333Y-79010733D01*
X62364333Y-79248828D01*
X62316714Y-79439304D01*
X62269095Y-79534542D01*
X62221476Y-79582161D01*
X62126238Y-79629780D01*
X62031000Y-79629780D01*
X61935761Y-79582161D01*
X61888142Y-79534542D01*
X61840523Y-79439304D01*
X61792904Y-79248828D01*
X61792904Y-79010733D01*
X61840523Y-78820257D01*
X61888142Y-78725019D01*
X61935761Y-78677400D01*
X62031000Y-78629780D01*
X62792904Y-79629780D02*
X62792904Y-78629780D01*
X62888142Y-79248828D02*
X63173857Y-79629780D01*
X63173857Y-78963114D02*
X62792904Y-79344066D01*
%TO.C,R2*%
X78493571Y-82367380D02*
X77922142Y-82367380D01*
X78207857Y-82367380D02*
X78207857Y-81367380D01*
X78112619Y-81510238D01*
X78017380Y-81605476D01*
X77922142Y-81653095D01*
X79112619Y-81367380D02*
X79207857Y-81367380D01*
X79303095Y-81415000D01*
X79350714Y-81462619D01*
X79398333Y-81557857D01*
X79445952Y-81748333D01*
X79445952Y-81986428D01*
X79398333Y-82176904D01*
X79350714Y-82272142D01*
X79303095Y-82319761D01*
X79207857Y-82367380D01*
X79112619Y-82367380D01*
X79017380Y-82319761D01*
X78969761Y-82272142D01*
X78922142Y-82176904D01*
X78874523Y-81986428D01*
X78874523Y-81748333D01*
X78922142Y-81557857D01*
X78969761Y-81462619D01*
X79017380Y-81415000D01*
X79112619Y-81367380D01*
X80065000Y-81367380D02*
X80160238Y-81367380D01*
X80255476Y-81415000D01*
X80303095Y-81462619D01*
X80350714Y-81557857D01*
X80398333Y-81748333D01*
X80398333Y-81986428D01*
X80350714Y-82176904D01*
X80303095Y-82272142D01*
X80255476Y-82319761D01*
X80160238Y-82367380D01*
X80065000Y-82367380D01*
X79969761Y-82319761D01*
X79922142Y-82272142D01*
X79874523Y-82176904D01*
X79826904Y-81986428D01*
X79826904Y-81748333D01*
X79874523Y-81557857D01*
X79922142Y-81462619D01*
X79969761Y-81415000D01*
X80065000Y-81367380D01*
X80826904Y-82367380D02*
X80826904Y-81367380D01*
X80922142Y-81986428D02*
X81207857Y-82367380D01*
X81207857Y-81700714D02*
X80826904Y-82081666D01*
%TO.C,R24*%
X78493571Y-62936380D02*
X77922142Y-62936380D01*
X78207857Y-62936380D02*
X78207857Y-61936380D01*
X78112619Y-62079238D01*
X78017380Y-62174476D01*
X77922142Y-62222095D01*
X79112619Y-61936380D02*
X79207857Y-61936380D01*
X79303095Y-61984000D01*
X79350714Y-62031619D01*
X79398333Y-62126857D01*
X79445952Y-62317333D01*
X79445952Y-62555428D01*
X79398333Y-62745904D01*
X79350714Y-62841142D01*
X79303095Y-62888761D01*
X79207857Y-62936380D01*
X79112619Y-62936380D01*
X79017380Y-62888761D01*
X78969761Y-62841142D01*
X78922142Y-62745904D01*
X78874523Y-62555428D01*
X78874523Y-62317333D01*
X78922142Y-62126857D01*
X78969761Y-62031619D01*
X79017380Y-61984000D01*
X79112619Y-61936380D01*
X80065000Y-61936380D02*
X80160238Y-61936380D01*
X80255476Y-61984000D01*
X80303095Y-62031619D01*
X80350714Y-62126857D01*
X80398333Y-62317333D01*
X80398333Y-62555428D01*
X80350714Y-62745904D01*
X80303095Y-62841142D01*
X80255476Y-62888761D01*
X80160238Y-62936380D01*
X80065000Y-62936380D01*
X79969761Y-62888761D01*
X79922142Y-62841142D01*
X79874523Y-62745904D01*
X79826904Y-62555428D01*
X79826904Y-62317333D01*
X79874523Y-62126857D01*
X79922142Y-62031619D01*
X79969761Y-61984000D01*
X80065000Y-61936380D01*
X80826904Y-62936380D02*
X80826904Y-61936380D01*
X80922142Y-62555428D02*
X81207857Y-62936380D01*
X81207857Y-62269714D02*
X80826904Y-62650666D01*
%TO.C,R7*%
X68841571Y-29535380D02*
X68270142Y-29535380D01*
X68555857Y-29535380D02*
X68555857Y-28535380D01*
X68460619Y-28678238D01*
X68365380Y-28773476D01*
X68270142Y-28821095D01*
X69460619Y-28535380D02*
X69555857Y-28535380D01*
X69651095Y-28583000D01*
X69698714Y-28630619D01*
X69746333Y-28725857D01*
X69793952Y-28916333D01*
X69793952Y-29154428D01*
X69746333Y-29344904D01*
X69698714Y-29440142D01*
X69651095Y-29487761D01*
X69555857Y-29535380D01*
X69460619Y-29535380D01*
X69365380Y-29487761D01*
X69317761Y-29440142D01*
X69270142Y-29344904D01*
X69222523Y-29154428D01*
X69222523Y-28916333D01*
X69270142Y-28725857D01*
X69317761Y-28630619D01*
X69365380Y-28583000D01*
X69460619Y-28535380D01*
X70413000Y-28535380D02*
X70508238Y-28535380D01*
X70603476Y-28583000D01*
X70651095Y-28630619D01*
X70698714Y-28725857D01*
X70746333Y-28916333D01*
X70746333Y-29154428D01*
X70698714Y-29344904D01*
X70651095Y-29440142D01*
X70603476Y-29487761D01*
X70508238Y-29535380D01*
X70413000Y-29535380D01*
X70317761Y-29487761D01*
X70270142Y-29440142D01*
X70222523Y-29344904D01*
X70174904Y-29154428D01*
X70174904Y-28916333D01*
X70222523Y-28725857D01*
X70270142Y-28630619D01*
X70317761Y-28583000D01*
X70413000Y-28535380D01*
X71174904Y-29535380D02*
X71174904Y-28535380D01*
X71270142Y-29154428D02*
X71555857Y-29535380D01*
X71555857Y-28868714D02*
X71174904Y-29249666D01*
%TO.C,R5*%
X68841571Y-39060380D02*
X68270142Y-39060380D01*
X68555857Y-39060380D02*
X68555857Y-38060380D01*
X68460619Y-38203238D01*
X68365380Y-38298476D01*
X68270142Y-38346095D01*
X69460619Y-38060380D02*
X69555857Y-38060380D01*
X69651095Y-38108000D01*
X69698714Y-38155619D01*
X69746333Y-38250857D01*
X69793952Y-38441333D01*
X69793952Y-38679428D01*
X69746333Y-38869904D01*
X69698714Y-38965142D01*
X69651095Y-39012761D01*
X69555857Y-39060380D01*
X69460619Y-39060380D01*
X69365380Y-39012761D01*
X69317761Y-38965142D01*
X69270142Y-38869904D01*
X69222523Y-38679428D01*
X69222523Y-38441333D01*
X69270142Y-38250857D01*
X69317761Y-38155619D01*
X69365380Y-38108000D01*
X69460619Y-38060380D01*
X70413000Y-38060380D02*
X70508238Y-38060380D01*
X70603476Y-38108000D01*
X70651095Y-38155619D01*
X70698714Y-38250857D01*
X70746333Y-38441333D01*
X70746333Y-38679428D01*
X70698714Y-38869904D01*
X70651095Y-38965142D01*
X70603476Y-39012761D01*
X70508238Y-39060380D01*
X70413000Y-39060380D01*
X70317761Y-39012761D01*
X70270142Y-38965142D01*
X70222523Y-38869904D01*
X70174904Y-38679428D01*
X70174904Y-38441333D01*
X70222523Y-38250857D01*
X70270142Y-38155619D01*
X70317761Y-38108000D01*
X70413000Y-38060380D01*
X71174904Y-39060380D02*
X71174904Y-38060380D01*
X71270142Y-38679428D02*
X71555857Y-39060380D01*
X71555857Y-38393714D02*
X71174904Y-38774666D01*
%TO.C,R21*%
X61411952Y-62442480D02*
X60840523Y-62442480D01*
X61126238Y-62442480D02*
X61126238Y-61442480D01*
X61031000Y-61585338D01*
X60935761Y-61680576D01*
X60840523Y-61728195D01*
X61840523Y-62442480D02*
X61840523Y-61442480D01*
X61935761Y-62061528D02*
X62221476Y-62442480D01*
X62221476Y-61775814D02*
X61840523Y-62156766D01*
%TO.C,R18*%
X60459571Y-65307080D02*
X59888142Y-65307080D01*
X60173857Y-65307080D02*
X60173857Y-64307080D01*
X60078619Y-64449938D01*
X59983380Y-64545176D01*
X59888142Y-64592795D01*
X61078619Y-64307080D02*
X61173857Y-64307080D01*
X61269095Y-64354700D01*
X61316714Y-64402319D01*
X61364333Y-64497557D01*
X61411952Y-64688033D01*
X61411952Y-64926128D01*
X61364333Y-65116604D01*
X61316714Y-65211842D01*
X61269095Y-65259461D01*
X61173857Y-65307080D01*
X61078619Y-65307080D01*
X60983380Y-65259461D01*
X60935761Y-65211842D01*
X60888142Y-65116604D01*
X60840523Y-64926128D01*
X60840523Y-64688033D01*
X60888142Y-64497557D01*
X60935761Y-64402319D01*
X60983380Y-64354700D01*
X61078619Y-64307080D01*
X62031000Y-64307080D02*
X62126238Y-64307080D01*
X62221476Y-64354700D01*
X62269095Y-64402319D01*
X62316714Y-64497557D01*
X62364333Y-64688033D01*
X62364333Y-64926128D01*
X62316714Y-65116604D01*
X62269095Y-65211842D01*
X62221476Y-65259461D01*
X62126238Y-65307080D01*
X62031000Y-65307080D01*
X61935761Y-65259461D01*
X61888142Y-65211842D01*
X61840523Y-65116604D01*
X61792904Y-64926128D01*
X61792904Y-64688033D01*
X61840523Y-64497557D01*
X61888142Y-64402319D01*
X61935761Y-64354700D01*
X62031000Y-64307080D01*
X62792904Y-65307080D02*
X62792904Y-64307080D01*
X62888142Y-64926128D02*
X63173857Y-65307080D01*
X63173857Y-64640414D02*
X62792904Y-65021366D01*
%TO.C,R31*%
X78160238Y-74985619D02*
X78207857Y-74938000D01*
X78303095Y-74890380D01*
X78541190Y-74890380D01*
X78636428Y-74938000D01*
X78684047Y-74985619D01*
X78731666Y-75080857D01*
X78731666Y-75176095D01*
X78684047Y-75318952D01*
X78112619Y-75890380D01*
X78731666Y-75890380D01*
X79160238Y-75795142D02*
X79207857Y-75842761D01*
X79160238Y-75890380D01*
X79112619Y-75842761D01*
X79160238Y-75795142D01*
X79160238Y-75890380D01*
X80112619Y-74890380D02*
X79636428Y-74890380D01*
X79588809Y-75366571D01*
X79636428Y-75318952D01*
X79731666Y-75271333D01*
X79969761Y-75271333D01*
X80065000Y-75318952D01*
X80112619Y-75366571D01*
X80160238Y-75461809D01*
X80160238Y-75699904D01*
X80112619Y-75795142D01*
X80065000Y-75842761D01*
X79969761Y-75890380D01*
X79731666Y-75890380D01*
X79636428Y-75842761D01*
X79588809Y-75795142D01*
X80588809Y-75890380D02*
X80588809Y-74890380D01*
X80684047Y-75509428D02*
X80969761Y-75890380D01*
X80969761Y-75223714D02*
X80588809Y-75604666D01*
%TO.C,R4*%
X83224333Y-114482619D02*
X83271952Y-114435000D01*
X83367190Y-114387380D01*
X83605285Y-114387380D01*
X83700523Y-114435000D01*
X83748142Y-114482619D01*
X83795761Y-114577857D01*
X83795761Y-114673095D01*
X83748142Y-114815952D01*
X83176714Y-115387380D01*
X83795761Y-115387380D01*
X84748142Y-115387380D02*
X84176714Y-115387380D01*
X84462428Y-115387380D02*
X84462428Y-114387380D01*
X84367190Y-114530238D01*
X84271952Y-114625476D01*
X84176714Y-114673095D01*
X85176714Y-115387380D02*
X85176714Y-114387380D01*
X85271952Y-115006428D02*
X85557666Y-115387380D01*
X85557666Y-114720714D02*
X85176714Y-115101666D01*
%TO.C,R15*%
X68508238Y-44505619D02*
X68555857Y-44458000D01*
X68651095Y-44410380D01*
X68889190Y-44410380D01*
X68984428Y-44458000D01*
X69032047Y-44505619D01*
X69079666Y-44600857D01*
X69079666Y-44696095D01*
X69032047Y-44838952D01*
X68460619Y-45410380D01*
X69079666Y-45410380D01*
X69508238Y-45315142D02*
X69555857Y-45362761D01*
X69508238Y-45410380D01*
X69460619Y-45362761D01*
X69508238Y-45315142D01*
X69508238Y-45410380D01*
X70460619Y-44410380D02*
X69984428Y-44410380D01*
X69936809Y-44886571D01*
X69984428Y-44838952D01*
X70079666Y-44791333D01*
X70317761Y-44791333D01*
X70413000Y-44838952D01*
X70460619Y-44886571D01*
X70508238Y-44981809D01*
X70508238Y-45219904D01*
X70460619Y-45315142D01*
X70413000Y-45362761D01*
X70317761Y-45410380D01*
X70079666Y-45410380D01*
X69984428Y-45362761D01*
X69936809Y-45315142D01*
X70936809Y-45410380D02*
X70936809Y-44410380D01*
X71032047Y-45029428D02*
X71317761Y-45410380D01*
X71317761Y-44743714D02*
X70936809Y-45124666D01*
%TO.C,R6*%
X60459571Y-68171580D02*
X59888142Y-68171580D01*
X60173857Y-68171580D02*
X60173857Y-67171580D01*
X60078619Y-67314438D01*
X59983380Y-67409676D01*
X59888142Y-67457295D01*
X61078619Y-67171580D02*
X61173857Y-67171580D01*
X61269095Y-67219200D01*
X61316714Y-67266819D01*
X61364333Y-67362057D01*
X61411952Y-67552533D01*
X61411952Y-67790628D01*
X61364333Y-67981104D01*
X61316714Y-68076342D01*
X61269095Y-68123961D01*
X61173857Y-68171580D01*
X61078619Y-68171580D01*
X60983380Y-68123961D01*
X60935761Y-68076342D01*
X60888142Y-67981104D01*
X60840523Y-67790628D01*
X60840523Y-67552533D01*
X60888142Y-67362057D01*
X60935761Y-67266819D01*
X60983380Y-67219200D01*
X61078619Y-67171580D01*
X62031000Y-67171580D02*
X62126238Y-67171580D01*
X62221476Y-67219200D01*
X62269095Y-67266819D01*
X62316714Y-67362057D01*
X62364333Y-67552533D01*
X62364333Y-67790628D01*
X62316714Y-67981104D01*
X62269095Y-68076342D01*
X62221476Y-68123961D01*
X62126238Y-68171580D01*
X62031000Y-68171580D01*
X61935761Y-68123961D01*
X61888142Y-68076342D01*
X61840523Y-67981104D01*
X61792904Y-67790628D01*
X61792904Y-67552533D01*
X61840523Y-67362057D01*
X61888142Y-67266819D01*
X61935761Y-67219200D01*
X62031000Y-67171580D01*
X62792904Y-68171580D02*
X62792904Y-67171580D01*
X62888142Y-67790628D02*
X63173857Y-68171580D01*
X63173857Y-67504914D02*
X62792904Y-67885866D01*
%TO.C,R19*%
X59888142Y-70131419D02*
X59935761Y-70083800D01*
X60031000Y-70036180D01*
X60269095Y-70036180D01*
X60364333Y-70083800D01*
X60411952Y-70131419D01*
X60459571Y-70226657D01*
X60459571Y-70321895D01*
X60411952Y-70464752D01*
X59840523Y-71036180D01*
X60459571Y-71036180D01*
X61364333Y-70036180D02*
X60888142Y-70036180D01*
X60840523Y-70512371D01*
X60888142Y-70464752D01*
X60983380Y-70417133D01*
X61221476Y-70417133D01*
X61316714Y-70464752D01*
X61364333Y-70512371D01*
X61411952Y-70607609D01*
X61411952Y-70845704D01*
X61364333Y-70940942D01*
X61316714Y-70988561D01*
X61221476Y-71036180D01*
X60983380Y-71036180D01*
X60888142Y-70988561D01*
X60840523Y-70940942D01*
X62031000Y-70036180D02*
X62126238Y-70036180D01*
X62221476Y-70083800D01*
X62269095Y-70131419D01*
X62316714Y-70226657D01*
X62364333Y-70417133D01*
X62364333Y-70655228D01*
X62316714Y-70845704D01*
X62269095Y-70940942D01*
X62221476Y-70988561D01*
X62126238Y-71036180D01*
X62031000Y-71036180D01*
X61935761Y-70988561D01*
X61888142Y-70940942D01*
X61840523Y-70845704D01*
X61792904Y-70655228D01*
X61792904Y-70417133D01*
X61840523Y-70226657D01*
X61888142Y-70131419D01*
X61935761Y-70083800D01*
X62031000Y-70036180D01*
X62792904Y-71036180D02*
X62792904Y-70036180D01*
X62888142Y-70655228D02*
X63173857Y-71036180D01*
X63173857Y-70369514D02*
X62792904Y-70750466D01*
%TO.C,R9*%
X68270142Y-34980619D02*
X68317761Y-34933000D01*
X68413000Y-34885380D01*
X68651095Y-34885380D01*
X68746333Y-34933000D01*
X68793952Y-34980619D01*
X68841571Y-35075857D01*
X68841571Y-35171095D01*
X68793952Y-35313952D01*
X68222523Y-35885380D01*
X68841571Y-35885380D01*
X69746333Y-34885380D02*
X69270142Y-34885380D01*
X69222523Y-35361571D01*
X69270142Y-35313952D01*
X69365380Y-35266333D01*
X69603476Y-35266333D01*
X69698714Y-35313952D01*
X69746333Y-35361571D01*
X69793952Y-35456809D01*
X69793952Y-35694904D01*
X69746333Y-35790142D01*
X69698714Y-35837761D01*
X69603476Y-35885380D01*
X69365380Y-35885380D01*
X69270142Y-35837761D01*
X69222523Y-35790142D01*
X70413000Y-34885380D02*
X70508238Y-34885380D01*
X70603476Y-34933000D01*
X70651095Y-34980619D01*
X70698714Y-35075857D01*
X70746333Y-35266333D01*
X70746333Y-35504428D01*
X70698714Y-35694904D01*
X70651095Y-35790142D01*
X70603476Y-35837761D01*
X70508238Y-35885380D01*
X70413000Y-35885380D01*
X70317761Y-35837761D01*
X70270142Y-35790142D01*
X70222523Y-35694904D01*
X70174904Y-35504428D01*
X70174904Y-35266333D01*
X70222523Y-35075857D01*
X70270142Y-34980619D01*
X70317761Y-34933000D01*
X70413000Y-34885380D01*
X71174904Y-35885380D02*
X71174904Y-34885380D01*
X71270142Y-35504428D02*
X71555857Y-35885380D01*
X71555857Y-35218714D02*
X71174904Y-35599666D01*
%TO.C,R27*%
X77922142Y-58793119D02*
X77969761Y-58745500D01*
X78065000Y-58697880D01*
X78303095Y-58697880D01*
X78398333Y-58745500D01*
X78445952Y-58793119D01*
X78493571Y-58888357D01*
X78493571Y-58983595D01*
X78445952Y-59126452D01*
X77874523Y-59697880D01*
X78493571Y-59697880D01*
X79398333Y-58697880D02*
X78922142Y-58697880D01*
X78874523Y-59174071D01*
X78922142Y-59126452D01*
X79017380Y-59078833D01*
X79255476Y-59078833D01*
X79350714Y-59126452D01*
X79398333Y-59174071D01*
X79445952Y-59269309D01*
X79445952Y-59507404D01*
X79398333Y-59602642D01*
X79350714Y-59650261D01*
X79255476Y-59697880D01*
X79017380Y-59697880D01*
X78922142Y-59650261D01*
X78874523Y-59602642D01*
X80065000Y-58697880D02*
X80160238Y-58697880D01*
X80255476Y-58745500D01*
X80303095Y-58793119D01*
X80350714Y-58888357D01*
X80398333Y-59078833D01*
X80398333Y-59316928D01*
X80350714Y-59507404D01*
X80303095Y-59602642D01*
X80255476Y-59650261D01*
X80160238Y-59697880D01*
X80065000Y-59697880D01*
X79969761Y-59650261D01*
X79922142Y-59602642D01*
X79874523Y-59507404D01*
X79826904Y-59316928D01*
X79826904Y-59078833D01*
X79874523Y-58888357D01*
X79922142Y-58793119D01*
X79969761Y-58745500D01*
X80065000Y-58697880D01*
X80826904Y-59697880D02*
X80826904Y-58697880D01*
X80922142Y-59316928D02*
X81207857Y-59697880D01*
X81207857Y-59031214D02*
X80826904Y-59412166D01*
%TO.C,R17*%
X60459571Y-82494380D02*
X59888142Y-82494380D01*
X60173857Y-82494380D02*
X60173857Y-81494380D01*
X60078619Y-81637238D01*
X59983380Y-81732476D01*
X59888142Y-81780095D01*
X61078619Y-81494380D02*
X61173857Y-81494380D01*
X61269095Y-81542000D01*
X61316714Y-81589619D01*
X61364333Y-81684857D01*
X61411952Y-81875333D01*
X61411952Y-82113428D01*
X61364333Y-82303904D01*
X61316714Y-82399142D01*
X61269095Y-82446761D01*
X61173857Y-82494380D01*
X61078619Y-82494380D01*
X60983380Y-82446761D01*
X60935761Y-82399142D01*
X60888142Y-82303904D01*
X60840523Y-82113428D01*
X60840523Y-81875333D01*
X60888142Y-81684857D01*
X60935761Y-81589619D01*
X60983380Y-81542000D01*
X61078619Y-81494380D01*
X62031000Y-81494380D02*
X62126238Y-81494380D01*
X62221476Y-81542000D01*
X62269095Y-81589619D01*
X62316714Y-81684857D01*
X62364333Y-81875333D01*
X62364333Y-82113428D01*
X62316714Y-82303904D01*
X62269095Y-82399142D01*
X62221476Y-82446761D01*
X62126238Y-82494380D01*
X62031000Y-82494380D01*
X61935761Y-82446761D01*
X61888142Y-82399142D01*
X61840523Y-82303904D01*
X61792904Y-82113428D01*
X61792904Y-81875333D01*
X61840523Y-81684857D01*
X61888142Y-81589619D01*
X61935761Y-81542000D01*
X62031000Y-81494380D01*
X62792904Y-82494380D02*
X62792904Y-81494380D01*
X62888142Y-82113428D02*
X63173857Y-82494380D01*
X63173857Y-81827714D02*
X62792904Y-82208666D01*
%TO.C,R28*%
X78969761Y-79128880D02*
X78398333Y-79128880D01*
X78684047Y-79128880D02*
X78684047Y-78128880D01*
X78588809Y-78271738D01*
X78493571Y-78366976D01*
X78398333Y-78414595D01*
X79588809Y-78128880D02*
X79684047Y-78128880D01*
X79779285Y-78176500D01*
X79826904Y-78224119D01*
X79874523Y-78319357D01*
X79922142Y-78509833D01*
X79922142Y-78747928D01*
X79874523Y-78938404D01*
X79826904Y-79033642D01*
X79779285Y-79081261D01*
X79684047Y-79128880D01*
X79588809Y-79128880D01*
X79493571Y-79081261D01*
X79445952Y-79033642D01*
X79398333Y-78938404D01*
X79350714Y-78747928D01*
X79350714Y-78509833D01*
X79398333Y-78319357D01*
X79445952Y-78224119D01*
X79493571Y-78176500D01*
X79588809Y-78128880D01*
X80350714Y-79128880D02*
X80350714Y-78128880D01*
X80445952Y-78747928D02*
X80731666Y-79128880D01*
X80731666Y-78462214D02*
X80350714Y-78843166D01*
%TO.C,R20*%
X60935761Y-76765280D02*
X60364333Y-76765280D01*
X60650047Y-76765280D02*
X60650047Y-75765280D01*
X60554809Y-75908138D01*
X60459571Y-76003376D01*
X60364333Y-76050995D01*
X61554809Y-75765280D02*
X61650047Y-75765280D01*
X61745285Y-75812900D01*
X61792904Y-75860519D01*
X61840523Y-75955757D01*
X61888142Y-76146233D01*
X61888142Y-76384328D01*
X61840523Y-76574804D01*
X61792904Y-76670042D01*
X61745285Y-76717661D01*
X61650047Y-76765280D01*
X61554809Y-76765280D01*
X61459571Y-76717661D01*
X61411952Y-76670042D01*
X61364333Y-76574804D01*
X61316714Y-76384328D01*
X61316714Y-76146233D01*
X61364333Y-75955757D01*
X61411952Y-75860519D01*
X61459571Y-75812900D01*
X61554809Y-75765280D01*
X62316714Y-76765280D02*
X62316714Y-75765280D01*
X62411952Y-76384328D02*
X62697666Y-76765280D01*
X62697666Y-76098614D02*
X62316714Y-76479566D01*
%TO.C,R26*%
X78493571Y-69413380D02*
X77922142Y-69413380D01*
X78207857Y-69413380D02*
X78207857Y-68413380D01*
X78112619Y-68556238D01*
X78017380Y-68651476D01*
X77922142Y-68699095D01*
X79112619Y-68413380D02*
X79207857Y-68413380D01*
X79303095Y-68461000D01*
X79350714Y-68508619D01*
X79398333Y-68603857D01*
X79445952Y-68794333D01*
X79445952Y-69032428D01*
X79398333Y-69222904D01*
X79350714Y-69318142D01*
X79303095Y-69365761D01*
X79207857Y-69413380D01*
X79112619Y-69413380D01*
X79017380Y-69365761D01*
X78969761Y-69318142D01*
X78922142Y-69222904D01*
X78874523Y-69032428D01*
X78874523Y-68794333D01*
X78922142Y-68603857D01*
X78969761Y-68508619D01*
X79017380Y-68461000D01*
X79112619Y-68413380D01*
X80065000Y-68413380D02*
X80160238Y-68413380D01*
X80255476Y-68461000D01*
X80303095Y-68508619D01*
X80350714Y-68603857D01*
X80398333Y-68794333D01*
X80398333Y-69032428D01*
X80350714Y-69222904D01*
X80303095Y-69318142D01*
X80255476Y-69365761D01*
X80160238Y-69413380D01*
X80065000Y-69413380D01*
X79969761Y-69365761D01*
X79922142Y-69318142D01*
X79874523Y-69222904D01*
X79826904Y-69032428D01*
X79826904Y-68794333D01*
X79874523Y-68603857D01*
X79922142Y-68508619D01*
X79969761Y-68461000D01*
X80065000Y-68413380D01*
X80826904Y-69413380D02*
X80826904Y-68413380D01*
X80922142Y-69032428D02*
X81207857Y-69413380D01*
X81207857Y-68746714D02*
X80826904Y-69127666D01*
%TO.C,R12*%
X69793952Y-32710380D02*
X69222523Y-32710380D01*
X69508238Y-32710380D02*
X69508238Y-31710380D01*
X69413000Y-31853238D01*
X69317761Y-31948476D01*
X69222523Y-31996095D01*
X70222523Y-32710380D02*
X70222523Y-31710380D01*
X70317761Y-32329428D02*
X70603476Y-32710380D01*
X70603476Y-32043714D02*
X70222523Y-32424666D01*
%TO.C,R14*%
X69793952Y-48585380D02*
X69222523Y-48585380D01*
X69508238Y-48585380D02*
X69508238Y-47585380D01*
X69413000Y-47728238D01*
X69317761Y-47823476D01*
X69222523Y-47871095D01*
X70222523Y-48585380D02*
X70222523Y-47585380D01*
X70317761Y-48204428D02*
X70603476Y-48585380D01*
X70603476Y-47918714D02*
X70222523Y-48299666D01*
%TO.C,R8*%
X68841571Y-42235380D02*
X68270142Y-42235380D01*
X68555857Y-42235380D02*
X68555857Y-41235380D01*
X68460619Y-41378238D01*
X68365380Y-41473476D01*
X68270142Y-41521095D01*
X69460619Y-41235380D02*
X69555857Y-41235380D01*
X69651095Y-41283000D01*
X69698714Y-41330619D01*
X69746333Y-41425857D01*
X69793952Y-41616333D01*
X69793952Y-41854428D01*
X69746333Y-42044904D01*
X69698714Y-42140142D01*
X69651095Y-42187761D01*
X69555857Y-42235380D01*
X69460619Y-42235380D01*
X69365380Y-42187761D01*
X69317761Y-42140142D01*
X69270142Y-42044904D01*
X69222523Y-41854428D01*
X69222523Y-41616333D01*
X69270142Y-41425857D01*
X69317761Y-41330619D01*
X69365380Y-41283000D01*
X69460619Y-41235380D01*
X70413000Y-41235380D02*
X70508238Y-41235380D01*
X70603476Y-41283000D01*
X70651095Y-41330619D01*
X70698714Y-41425857D01*
X70746333Y-41616333D01*
X70746333Y-41854428D01*
X70698714Y-42044904D01*
X70651095Y-42140142D01*
X70603476Y-42187761D01*
X70508238Y-42235380D01*
X70413000Y-42235380D01*
X70317761Y-42187761D01*
X70270142Y-42140142D01*
X70222523Y-42044904D01*
X70174904Y-41854428D01*
X70174904Y-41616333D01*
X70222523Y-41425857D01*
X70270142Y-41330619D01*
X70317761Y-41283000D01*
X70413000Y-41235380D01*
X71174904Y-42235380D02*
X71174904Y-41235380D01*
X71270142Y-41854428D02*
X71555857Y-42235380D01*
X71555857Y-41568714D02*
X71174904Y-41949666D01*
%TO.C,R22*%
X61411952Y-73900680D02*
X60840523Y-73900680D01*
X61126238Y-73900680D02*
X61126238Y-72900680D01*
X61031000Y-73043538D01*
X60935761Y-73138776D01*
X60840523Y-73186395D01*
X61840523Y-73900680D02*
X61840523Y-72900680D01*
X61935761Y-73519728D02*
X62221476Y-73900680D01*
X62221476Y-73234014D02*
X61840523Y-73614966D01*
%TO.C,R29*%
X79445952Y-72651880D02*
X78874523Y-72651880D01*
X79160238Y-72651880D02*
X79160238Y-71651880D01*
X79065000Y-71794738D01*
X78969761Y-71889976D01*
X78874523Y-71937595D01*
X79874523Y-72651880D02*
X79874523Y-71651880D01*
X79969761Y-72270928D02*
X80255476Y-72651880D01*
X80255476Y-71985214D02*
X79874523Y-72366166D01*
%TO.C,R1*%
X83319571Y-118816380D02*
X82748142Y-118816380D01*
X83033857Y-118816380D02*
X83033857Y-117816380D01*
X82938619Y-117959238D01*
X82843380Y-118054476D01*
X82748142Y-118102095D01*
X83938619Y-117816380D02*
X84033857Y-117816380D01*
X84129095Y-117864000D01*
X84176714Y-117911619D01*
X84224333Y-118006857D01*
X84271952Y-118197333D01*
X84271952Y-118435428D01*
X84224333Y-118625904D01*
X84176714Y-118721142D01*
X84129095Y-118768761D01*
X84033857Y-118816380D01*
X83938619Y-118816380D01*
X83843380Y-118768761D01*
X83795761Y-118721142D01*
X83748142Y-118625904D01*
X83700523Y-118435428D01*
X83700523Y-118197333D01*
X83748142Y-118006857D01*
X83795761Y-117911619D01*
X83843380Y-117864000D01*
X83938619Y-117816380D01*
X84891000Y-117816380D02*
X84986238Y-117816380D01*
X85081476Y-117864000D01*
X85129095Y-117911619D01*
X85176714Y-118006857D01*
X85224333Y-118197333D01*
X85224333Y-118435428D01*
X85176714Y-118625904D01*
X85129095Y-118721142D01*
X85081476Y-118768761D01*
X84986238Y-118816380D01*
X84891000Y-118816380D01*
X84795761Y-118768761D01*
X84748142Y-118721142D01*
X84700523Y-118625904D01*
X84652904Y-118435428D01*
X84652904Y-118197333D01*
X84700523Y-118006857D01*
X84748142Y-117911619D01*
X84795761Y-117864000D01*
X84891000Y-117816380D01*
X85652904Y-118816380D02*
X85652904Y-117816380D01*
X85748142Y-118435428D02*
X86033857Y-118816380D01*
X86033857Y-118149714D02*
X85652904Y-118530666D01*
%TO.C,R16*%
X60459571Y-59577980D02*
X59888142Y-59577980D01*
X60173857Y-59577980D02*
X60173857Y-58577980D01*
X60078619Y-58720838D01*
X59983380Y-58816076D01*
X59888142Y-58863695D01*
X61078619Y-58577980D02*
X61173857Y-58577980D01*
X61269095Y-58625600D01*
X61316714Y-58673219D01*
X61364333Y-58768457D01*
X61411952Y-58958933D01*
X61411952Y-59197028D01*
X61364333Y-59387504D01*
X61316714Y-59482742D01*
X61269095Y-59530361D01*
X61173857Y-59577980D01*
X61078619Y-59577980D01*
X60983380Y-59530361D01*
X60935761Y-59482742D01*
X60888142Y-59387504D01*
X60840523Y-59197028D01*
X60840523Y-58958933D01*
X60888142Y-58768457D01*
X60935761Y-58673219D01*
X60983380Y-58625600D01*
X61078619Y-58577980D01*
X62031000Y-58577980D02*
X62126238Y-58577980D01*
X62221476Y-58625600D01*
X62269095Y-58673219D01*
X62316714Y-58768457D01*
X62364333Y-58958933D01*
X62364333Y-59197028D01*
X62316714Y-59387504D01*
X62269095Y-59482742D01*
X62221476Y-59530361D01*
X62126238Y-59577980D01*
X62031000Y-59577980D01*
X61935761Y-59530361D01*
X61888142Y-59482742D01*
X61840523Y-59387504D01*
X61792904Y-59197028D01*
X61792904Y-58958933D01*
X61840523Y-58768457D01*
X61888142Y-58673219D01*
X61935761Y-58625600D01*
X62031000Y-58577980D01*
X62792904Y-59577980D02*
X62792904Y-58577980D01*
X62888142Y-59197028D02*
X63173857Y-59577980D01*
X63173857Y-58911314D02*
X62792904Y-59292266D01*
%TO.C,R11*%
X69317761Y-51760380D02*
X68746333Y-51760380D01*
X69032047Y-51760380D02*
X69032047Y-50760380D01*
X68936809Y-50903238D01*
X68841571Y-50998476D01*
X68746333Y-51046095D01*
X69936809Y-50760380D02*
X70032047Y-50760380D01*
X70127285Y-50808000D01*
X70174904Y-50855619D01*
X70222523Y-50950857D01*
X70270142Y-51141333D01*
X70270142Y-51379428D01*
X70222523Y-51569904D01*
X70174904Y-51665142D01*
X70127285Y-51712761D01*
X70032047Y-51760380D01*
X69936809Y-51760380D01*
X69841571Y-51712761D01*
X69793952Y-51665142D01*
X69746333Y-51569904D01*
X69698714Y-51379428D01*
X69698714Y-51141333D01*
X69746333Y-50950857D01*
X69793952Y-50855619D01*
X69841571Y-50808000D01*
X69936809Y-50760380D01*
X70698714Y-51760380D02*
X70698714Y-50760380D01*
X70793952Y-51379428D02*
X71079666Y-51760380D01*
X71079666Y-51093714D02*
X70698714Y-51474666D01*
%TO.C,R23*%
X60126238Y-55808619D02*
X60173857Y-55761000D01*
X60269095Y-55713380D01*
X60507190Y-55713380D01*
X60602428Y-55761000D01*
X60650047Y-55808619D01*
X60697666Y-55903857D01*
X60697666Y-55999095D01*
X60650047Y-56141952D01*
X60078619Y-56713380D01*
X60697666Y-56713380D01*
X61126238Y-56618142D02*
X61173857Y-56665761D01*
X61126238Y-56713380D01*
X61078619Y-56665761D01*
X61126238Y-56618142D01*
X61126238Y-56713380D01*
X62078619Y-55713380D02*
X61602428Y-55713380D01*
X61554809Y-56189571D01*
X61602428Y-56141952D01*
X61697666Y-56094333D01*
X61935761Y-56094333D01*
X62031000Y-56141952D01*
X62078619Y-56189571D01*
X62126238Y-56284809D01*
X62126238Y-56522904D01*
X62078619Y-56618142D01*
X62031000Y-56665761D01*
X61935761Y-56713380D01*
X61697666Y-56713380D01*
X61602428Y-56665761D01*
X61554809Y-56618142D01*
X62554809Y-56713380D02*
X62554809Y-55713380D01*
X62650047Y-56332428D02*
X62935761Y-56713380D01*
X62935761Y-56046714D02*
X62554809Y-56427666D01*
%TO.C,R13*%
X69793952Y-26360380D02*
X69222523Y-26360380D01*
X69508238Y-26360380D02*
X69508238Y-25360380D01*
X69413000Y-25503238D01*
X69317761Y-25598476D01*
X69222523Y-25646095D01*
X70222523Y-26360380D02*
X70222523Y-25360380D01*
X70317761Y-25979428D02*
X70603476Y-26360380D01*
X70603476Y-25693714D02*
X70222523Y-26074666D01*
D11*
%TO.C,C1*%
X68985000Y-111695900D02*
X67715000Y-111695900D01*
X65635000Y-111014900D02*
X64139000Y-111014900D01*
X69254000Y-110614900D02*
X64096000Y-110614900D01*
X68280000Y-112575900D02*
X67715000Y-112575900D01*
X65635000Y-112415900D02*
X64890000Y-112415900D01*
X65635000Y-111855900D02*
X64451000Y-111855900D01*
X65635000Y-112335900D02*
X64811000Y-112335900D01*
X69166000Y-111214900D02*
X67715000Y-111214900D01*
X68850000Y-111935900D02*
X67715000Y-111935900D01*
X68770000Y-112055900D02*
X67715000Y-112055900D01*
X68922000Y-111815900D02*
X67715000Y-111815900D01*
X65635000Y-112695900D02*
X65232000Y-112695900D01*
X65635000Y-111615900D02*
X64327000Y-111615900D01*
X69255000Y-110574900D02*
X64095000Y-110574900D01*
X67773000Y-112895900D02*
X65577000Y-112895900D01*
X65635000Y-111655900D02*
X64346000Y-111655900D01*
X68328000Y-112535900D02*
X67715000Y-112535900D01*
X65635000Y-111134900D02*
X64164000Y-111134900D01*
X67926000Y-112815900D02*
X67715000Y-112815900D01*
X68460000Y-112415900D02*
X67715000Y-112415900D01*
X65635000Y-111575900D02*
X64310000Y-111575900D01*
X69240000Y-110814900D02*
X67715000Y-110814900D01*
X69231000Y-110894900D02*
X67715000Y-110894900D01*
X69251000Y-110694900D02*
X64099000Y-110694900D01*
X67853000Y-112855900D02*
X65497000Y-112855900D01*
X69186000Y-111134900D02*
X67715000Y-111134900D01*
X68797000Y-112015900D02*
X67715000Y-112015900D01*
X65635000Y-111935900D02*
X64500000Y-111935900D01*
X65635000Y-112255900D02*
X64738000Y-112255900D01*
X69143000Y-111295900D02*
X67715000Y-111295900D01*
X69248000Y-110734900D02*
X64102000Y-110734900D01*
X69211000Y-111014900D02*
X67715000Y-111014900D01*
X69023000Y-111615900D02*
X67715000Y-111615900D01*
X65635000Y-111375900D02*
X64233000Y-111375900D01*
X65635000Y-112095900D02*
X64610000Y-112095900D01*
X65635000Y-110934900D02*
X64125000Y-110934900D01*
X67590000Y-112975900D02*
X65760000Y-112975900D01*
X65635000Y-111975900D02*
X64526000Y-111975900D01*
X65635000Y-111775900D02*
X64407000Y-111775900D01*
X65635000Y-111815900D02*
X64428000Y-111815900D01*
X65635000Y-112015900D02*
X64553000Y-112015900D01*
X69225000Y-110934900D02*
X67715000Y-110934900D01*
X67352000Y-113055900D02*
X65998000Y-113055900D01*
X69253000Y-110654900D02*
X64097000Y-110654900D01*
X65635000Y-112055900D02*
X64580000Y-112055900D01*
X65635000Y-112775900D02*
X65356000Y-112775900D01*
X65635000Y-110974900D02*
X64132000Y-110974900D01*
X65635000Y-112615900D02*
X65121000Y-112615900D01*
X65635000Y-112215900D02*
X64704000Y-112215900D01*
X65635000Y-111535900D02*
X64293000Y-111535900D01*
X66959000Y-113135900D02*
X66391000Y-113135900D01*
X65635000Y-112495900D02*
X64976000Y-112495900D01*
X68875000Y-111895900D02*
X67715000Y-111895900D01*
X65635000Y-111295900D02*
X64207000Y-111295900D01*
X65635000Y-110854900D02*
X64114000Y-110854900D01*
X69130000Y-111335900D02*
X67715000Y-111335900D01*
X68539000Y-112335900D02*
X67715000Y-112335900D01*
X65635000Y-112655900D02*
X65175000Y-112655900D01*
X65635000Y-111735900D02*
X64385000Y-111735900D01*
X65635000Y-112455900D02*
X64932000Y-112455900D01*
X67193000Y-113095900D02*
X66157000Y-113095900D01*
X65635000Y-112175900D02*
X64671000Y-112175900D01*
X69103000Y-111415900D02*
X67715000Y-111415900D01*
X65635000Y-110894900D02*
X64119000Y-110894900D01*
X68501000Y-112375900D02*
X67715000Y-112375900D01*
X65635000Y-111415900D02*
X64247000Y-111415900D01*
X68374000Y-112495900D02*
X67715000Y-112495900D01*
X68118000Y-112695900D02*
X67715000Y-112695900D01*
X65635000Y-110774900D02*
X64106000Y-110774900D01*
X65635000Y-112815900D02*
X65424000Y-112815900D01*
X65635000Y-111054900D02*
X64147000Y-111054900D01*
X68150000Y-107730125D02*
X68150000Y-108230125D01*
X68576000Y-112295900D02*
X67715000Y-112295900D01*
X68175000Y-112655900D02*
X67715000Y-112655900D01*
X68058000Y-112735900D02*
X67715000Y-112735900D01*
X65635000Y-111255900D02*
X64195000Y-111255900D01*
X69040000Y-111575900D02*
X67715000Y-111575900D01*
X69255000Y-110534900D02*
X64095000Y-110534900D01*
X65635000Y-112575900D02*
X65070000Y-112575900D01*
X69089000Y-111455900D02*
X67715000Y-111455900D01*
X68646000Y-112215900D02*
X67715000Y-112215900D01*
X67686000Y-112935900D02*
X65664000Y-112935900D01*
X69203000Y-111054900D02*
X67715000Y-111054900D01*
X69195000Y-111094900D02*
X67715000Y-111094900D01*
X65635000Y-111094900D02*
X64155000Y-111094900D01*
X69057000Y-111535900D02*
X67715000Y-111535900D01*
X65635000Y-111174900D02*
X64174000Y-111174900D01*
X69117000Y-111375900D02*
X67715000Y-111375900D01*
X65635000Y-111335900D02*
X64220000Y-111335900D01*
X65635000Y-111495900D02*
X64277000Y-111495900D01*
X65635000Y-112735900D02*
X65292000Y-112735900D01*
X68679000Y-112175900D02*
X67715000Y-112175900D01*
X67994000Y-112775900D02*
X67715000Y-112775900D01*
X68740000Y-112095900D02*
X67715000Y-112095900D01*
X69176000Y-111174900D02*
X67715000Y-111174900D01*
X69073000Y-111495900D02*
X67715000Y-111495900D01*
X69155000Y-111255900D02*
X67715000Y-111255900D01*
X68824000Y-111975900D02*
X67715000Y-111975900D01*
X65635000Y-112535900D02*
X65022000Y-112535900D01*
X68710000Y-112135900D02*
X67715000Y-112135900D01*
X69236000Y-110854900D02*
X67715000Y-110854900D01*
X65635000Y-111695900D02*
X64365000Y-111695900D01*
X65635000Y-112135900D02*
X64640000Y-112135900D01*
X65635000Y-112375900D02*
X64849000Y-112375900D01*
X68965000Y-111735900D02*
X67715000Y-111735900D01*
X68943000Y-111775900D02*
X67715000Y-111775900D01*
X65635000Y-111455900D02*
X64261000Y-111455900D01*
X68229000Y-112615900D02*
X67715000Y-112615900D01*
X65635000Y-112295900D02*
X64774000Y-112295900D01*
X68400000Y-107980125D02*
X67900000Y-107980125D01*
X65635000Y-110814900D02*
X64110000Y-110814900D01*
X65635000Y-111895900D02*
X64475000Y-111895900D01*
X68899000Y-111855900D02*
X67715000Y-111855900D01*
X68612000Y-112255900D02*
X67715000Y-112255900D01*
X69244000Y-110774900D02*
X67715000Y-110774900D01*
X69218000Y-110974900D02*
X67715000Y-110974900D01*
X65635000Y-111214900D02*
X64184000Y-111214900D01*
X67480000Y-113015900D02*
X65870000Y-113015900D01*
X69004000Y-111655900D02*
X67715000Y-111655900D01*
X68418000Y-112455900D02*
X67715000Y-112455900D01*
X69295000Y-110534900D02*
G75*
G03*
X69295000Y-110534900I-2620000J0D01*
G01*
%TO.C,R3*%
X87471000Y-112622000D02*
X87471000Y-112292000D01*
X80931000Y-110212000D02*
X80931000Y-109882000D01*
X87471000Y-109882000D02*
X87471000Y-110212000D01*
X80931000Y-112622000D02*
X87471000Y-112622000D01*
X80931000Y-112292000D02*
X80931000Y-112622000D01*
X80931000Y-109882000D02*
X87471000Y-109882000D01*
%TO.C,R25*%
X76105000Y-64682500D02*
X76105000Y-64352500D01*
X82645000Y-67092500D02*
X82645000Y-66762500D01*
X82645000Y-64352500D02*
X82645000Y-64682500D01*
X76105000Y-66762500D02*
X76105000Y-67092500D01*
X76105000Y-64352500D02*
X82645000Y-64352500D01*
X76105000Y-67092500D02*
X82645000Y-67092500D01*
%TO.C,R30*%
X76105000Y-54967000D02*
X76105000Y-54637000D01*
X82645000Y-54637000D02*
X82645000Y-54967000D01*
X76105000Y-54637000D02*
X82645000Y-54637000D01*
X76105000Y-57377000D02*
X82645000Y-57377000D01*
X76105000Y-57047000D02*
X76105000Y-57377000D01*
X82645000Y-57377000D02*
X82645000Y-57047000D01*
%TO.C,R10*%
X58071000Y-80547400D02*
X64611000Y-80547400D01*
X64611000Y-80547400D02*
X64611000Y-80217400D01*
X64611000Y-77807400D02*
X64611000Y-78137400D01*
X58071000Y-80217400D02*
X58071000Y-80547400D01*
X58071000Y-77807400D02*
X64611000Y-77807400D01*
X58071000Y-78137400D02*
X58071000Y-77807400D01*
%TO.C,R2*%
X76105000Y-83285000D02*
X82645000Y-83285000D01*
X76105000Y-80545000D02*
X82645000Y-80545000D01*
X76105000Y-80875000D02*
X76105000Y-80545000D01*
X76105000Y-82955000D02*
X76105000Y-83285000D01*
X82645000Y-83285000D02*
X82645000Y-82955000D01*
X82645000Y-80545000D02*
X82645000Y-80875000D01*
%TO.C,R24*%
X76105000Y-63524000D02*
X76105000Y-63854000D01*
X82645000Y-63854000D02*
X82645000Y-63524000D01*
X76105000Y-61114000D02*
X82645000Y-61114000D01*
X76105000Y-63854000D02*
X82645000Y-63854000D01*
X82645000Y-61114000D02*
X82645000Y-61444000D01*
X76105000Y-61444000D02*
X76105000Y-61114000D01*
%TO.C,R7*%
X66453000Y-30123000D02*
X66453000Y-30453000D01*
X72993000Y-27713000D02*
X72993000Y-28043000D01*
X66453000Y-30453000D02*
X72993000Y-30453000D01*
X66453000Y-27713000D02*
X72993000Y-27713000D01*
X72993000Y-30453000D02*
X72993000Y-30123000D01*
X66453000Y-28043000D02*
X66453000Y-27713000D01*
%TO.C,C3*%
X78304000Y-112304000D02*
X78304000Y-112749000D01*
X72064000Y-110009000D02*
X72064000Y-110454000D01*
X72064000Y-112304000D02*
X72064000Y-112749000D01*
X72064000Y-110009000D02*
X78304000Y-110009000D01*
X72064000Y-112749000D02*
X78304000Y-112749000D01*
X78304000Y-110009000D02*
X78304000Y-110454000D01*
%TO.C,R5*%
X66453000Y-37238000D02*
X72993000Y-37238000D01*
X66453000Y-39978000D02*
X72993000Y-39978000D01*
X72993000Y-39978000D02*
X72993000Y-39648000D01*
X66453000Y-39648000D02*
X66453000Y-39978000D01*
X66453000Y-37568000D02*
X66453000Y-37238000D01*
X72993000Y-37238000D02*
X72993000Y-37568000D01*
%TO.C,R21*%
X58071000Y-63030100D02*
X58071000Y-63360100D01*
X58071000Y-60620100D02*
X64611000Y-60620100D01*
X64611000Y-63360100D02*
X64611000Y-63030100D01*
X64611000Y-60620100D02*
X64611000Y-60950100D01*
X58071000Y-60950100D02*
X58071000Y-60620100D01*
X58071000Y-63360100D02*
X64611000Y-63360100D01*
%TO.C,R18*%
X58071000Y-65894700D02*
X58071000Y-66224700D01*
X58071000Y-66224700D02*
X64611000Y-66224700D01*
X64611000Y-63484700D02*
X64611000Y-63814700D01*
X58071000Y-63814700D02*
X58071000Y-63484700D01*
X58071000Y-63484700D02*
X64611000Y-63484700D01*
X64611000Y-66224700D02*
X64611000Y-65894700D01*
%TO.C,R31*%
X82645000Y-76808000D02*
X82645000Y-76478000D01*
X76105000Y-74398000D02*
X76105000Y-74068000D01*
X76105000Y-76808000D02*
X82645000Y-76808000D01*
X76105000Y-74068000D02*
X82645000Y-74068000D01*
X82645000Y-74068000D02*
X82645000Y-74398000D01*
X76105000Y-76478000D02*
X76105000Y-76808000D01*
%TO.C,R4*%
X87471000Y-113565000D02*
X87471000Y-113895000D01*
X80931000Y-113895000D02*
X80931000Y-113565000D01*
X80931000Y-113565000D02*
X87471000Y-113565000D01*
X87471000Y-116305000D02*
X87471000Y-115975000D01*
X80931000Y-115975000D02*
X80931000Y-116305000D01*
X80931000Y-116305000D02*
X87471000Y-116305000D01*
%TO.C,J1*%
X50320500Y-108720000D02*
X50320500Y-109720000D01*
X51320500Y-109220000D02*
X50320500Y-108720000D01*
X60830500Y-124590000D02*
X51710500Y-124590000D01*
X51710500Y-124590000D02*
X51710500Y-104010000D01*
X53020500Y-123290000D02*
X53020500Y-116350000D01*
X53020500Y-105310000D02*
X59520500Y-105310000D01*
X50320500Y-109720000D02*
X51320500Y-109220000D01*
X51710500Y-104010000D02*
X60830500Y-104010000D01*
X59520500Y-105310000D02*
X59520500Y-123290000D01*
X53020500Y-112250000D02*
X53020500Y-105310000D01*
X53020500Y-116350000D02*
X51710500Y-116350000D01*
X53020500Y-116350000D02*
X53020500Y-116350000D01*
X60830500Y-104010000D02*
X60830500Y-124590000D01*
X59520500Y-123290000D02*
X53020500Y-123290000D01*
X51710500Y-112250000D02*
X53020500Y-112250000D01*
%TO.C,U2*%
X62300000Y-43549000D02*
X62300000Y-25529000D01*
X62300000Y-25529000D02*
X52020000Y-25529000D01*
X56160000Y-25589000D02*
X54510000Y-25589000D01*
X54510000Y-43489000D02*
X59810000Y-43489000D01*
X54510000Y-25589000D02*
X54510000Y-43489000D01*
X59810000Y-25589000D02*
X58160000Y-25589000D01*
X59810000Y-43489000D02*
X59810000Y-25589000D01*
X52020000Y-25529000D02*
X52020000Y-43549000D01*
X52020000Y-43549000D02*
X62300000Y-43549000D01*
X56160000Y-25589000D02*
G75*
G03*
X58160000Y-25589000I1000000J0D01*
G01*
%TO.C,R15*%
X72993000Y-43588000D02*
X72993000Y-43918000D01*
X66453000Y-43588000D02*
X72993000Y-43588000D01*
X66453000Y-45998000D02*
X66453000Y-46328000D01*
X66453000Y-43918000D02*
X66453000Y-43588000D01*
X66453000Y-46328000D02*
X72993000Y-46328000D01*
X72993000Y-46328000D02*
X72993000Y-45998000D01*
%TO.C,R6*%
X58071000Y-69089200D02*
X64611000Y-69089200D01*
X64611000Y-69089200D02*
X64611000Y-68759200D01*
X58071000Y-66679200D02*
X58071000Y-66349200D01*
X64611000Y-66349200D02*
X64611000Y-66679200D01*
X58071000Y-68759200D02*
X58071000Y-69089200D01*
X58071000Y-66349200D02*
X64611000Y-66349200D01*
%TO.C,R19*%
X58071000Y-71953800D02*
X64611000Y-71953800D01*
X58071000Y-69213800D02*
X64611000Y-69213800D01*
X64611000Y-71953800D02*
X64611000Y-71623800D01*
X64611000Y-69213800D02*
X64611000Y-69543800D01*
X58071000Y-69543800D02*
X58071000Y-69213800D01*
X58071000Y-71623800D02*
X58071000Y-71953800D01*
%TO.C,C5*%
X54030000Y-45938000D02*
X54030000Y-45493000D01*
X60270000Y-45938000D02*
X60270000Y-45493000D01*
X60270000Y-48233000D02*
X54030000Y-48233000D01*
X54030000Y-48233000D02*
X54030000Y-47788000D01*
X60270000Y-45493000D02*
X54030000Y-45493000D01*
X60270000Y-48233000D02*
X60270000Y-47788000D01*
%TO.C,C4*%
X78304000Y-118908000D02*
X78304000Y-119353000D01*
X72064000Y-116613000D02*
X78304000Y-116613000D01*
X72064000Y-118908000D02*
X72064000Y-119353000D01*
X72064000Y-119353000D02*
X78304000Y-119353000D01*
X78304000Y-116613000D02*
X78304000Y-117058000D01*
X72064000Y-116613000D02*
X72064000Y-117058000D01*
%TO.C,R9*%
X66453000Y-36803000D02*
X72993000Y-36803000D01*
X66453000Y-34393000D02*
X66453000Y-34063000D01*
X66453000Y-36473000D02*
X66453000Y-36803000D01*
X72993000Y-34063000D02*
X72993000Y-34393000D01*
X66453000Y-34063000D02*
X72993000Y-34063000D01*
X72993000Y-36803000D02*
X72993000Y-36473000D01*
%TO.C,C2*%
X64096000Y-118112100D02*
X69254000Y-118112100D01*
X67715000Y-116951100D02*
X68943000Y-116951100D01*
X65175000Y-116071100D02*
X65635000Y-116071100D01*
X67715000Y-116271100D02*
X68418000Y-116271100D01*
X64233000Y-117351100D02*
X65635000Y-117351100D01*
X67715000Y-117311100D02*
X69103000Y-117311100D01*
X67715000Y-117151100D02*
X69040000Y-117151100D01*
X64738000Y-116471100D02*
X65635000Y-116471100D01*
X67715000Y-117872100D02*
X69236000Y-117872100D01*
X65356000Y-115951100D02*
X65635000Y-115951100D01*
X65121000Y-116111100D02*
X65635000Y-116111100D01*
X67715000Y-116151100D02*
X68280000Y-116151100D01*
X64184000Y-117512100D02*
X65635000Y-117512100D01*
X67715000Y-117351100D02*
X69117000Y-117351100D01*
X66157000Y-115631100D02*
X67193000Y-115631100D01*
X67715000Y-116551100D02*
X68679000Y-116551100D01*
X64247000Y-117311100D02*
X65635000Y-117311100D01*
X65022000Y-116191100D02*
X65635000Y-116191100D01*
X64704000Y-116511100D02*
X65635000Y-116511100D01*
X64580000Y-116671100D02*
X65635000Y-116671100D01*
X67715000Y-117832100D02*
X69231000Y-117832100D01*
X64932000Y-116271100D02*
X65635000Y-116271100D01*
X64553000Y-116711100D02*
X65635000Y-116711100D01*
X67715000Y-116911100D02*
X68922000Y-116911100D01*
X64095000Y-118192100D02*
X69255000Y-118192100D01*
X64451000Y-116871100D02*
X65635000Y-116871100D01*
X65424000Y-115911100D02*
X65635000Y-115911100D01*
X67715000Y-117391100D02*
X69130000Y-117391100D01*
X64095000Y-118152100D02*
X69255000Y-118152100D01*
X64774000Y-116431100D02*
X65635000Y-116431100D01*
X67715000Y-116831100D02*
X68875000Y-116831100D01*
X67715000Y-116231100D02*
X68374000Y-116231100D01*
X64950000Y-120746875D02*
X65450000Y-120746875D01*
X67715000Y-117632100D02*
X69195000Y-117632100D01*
X67715000Y-116071100D02*
X68175000Y-116071100D01*
X67715000Y-117552100D02*
X69176000Y-117552100D01*
X64164000Y-117592100D02*
X65635000Y-117592100D01*
X64097000Y-118072100D02*
X69253000Y-118072100D01*
X67715000Y-117431100D02*
X69143000Y-117431100D01*
X67715000Y-117231100D02*
X69073000Y-117231100D01*
X64640000Y-116591100D02*
X65635000Y-116591100D01*
X65497000Y-115871100D02*
X67853000Y-115871100D01*
X64385000Y-116991100D02*
X65635000Y-116991100D01*
X67715000Y-117071100D02*
X69004000Y-117071100D01*
X65664000Y-115791100D02*
X67686000Y-115791100D01*
X64976000Y-116231100D02*
X65635000Y-116231100D01*
X67715000Y-117512100D02*
X69166000Y-117512100D01*
X67715000Y-117752100D02*
X69218000Y-117752100D01*
X65292000Y-115991100D02*
X65635000Y-115991100D01*
X67715000Y-116311100D02*
X68460000Y-116311100D01*
X64407000Y-116951100D02*
X65635000Y-116951100D01*
X67715000Y-117271100D02*
X69089000Y-117271100D01*
X64119000Y-117832100D02*
X65635000Y-117832100D01*
X67715000Y-116591100D02*
X68710000Y-116591100D01*
X67715000Y-116031100D02*
X68118000Y-116031100D01*
X64261000Y-117271100D02*
X65635000Y-117271100D01*
X67715000Y-116991100D02*
X68965000Y-116991100D01*
X67715000Y-117191100D02*
X69057000Y-117191100D01*
X67715000Y-117672100D02*
X69203000Y-117672100D01*
X65232000Y-116031100D02*
X65635000Y-116031100D01*
X67715000Y-117111100D02*
X69023000Y-117111100D01*
X67715000Y-116711100D02*
X68797000Y-116711100D01*
X65870000Y-115711100D02*
X67480000Y-115711100D01*
X64849000Y-116351100D02*
X65635000Y-116351100D01*
X64106000Y-117952100D02*
X65635000Y-117952100D01*
X67715000Y-116671100D02*
X68770000Y-116671100D01*
X67715000Y-117031100D02*
X68985000Y-117031100D01*
X64500000Y-116791100D02*
X65635000Y-116791100D01*
X65998000Y-115671100D02*
X67352000Y-115671100D01*
X64890000Y-116311100D02*
X65635000Y-116311100D01*
X67715000Y-117912100D02*
X69240000Y-117912100D01*
X64610000Y-116631100D02*
X65635000Y-116631100D01*
X64346000Y-117071100D02*
X65635000Y-117071100D01*
X67715000Y-116871100D02*
X68899000Y-116871100D01*
X64125000Y-117792100D02*
X65635000Y-117792100D01*
X67715000Y-116191100D02*
X68328000Y-116191100D01*
X67715000Y-117712100D02*
X69211000Y-117712100D01*
X64277000Y-117231100D02*
X65635000Y-117231100D01*
X67715000Y-116631100D02*
X68740000Y-116631100D01*
X65760000Y-115751100D02*
X67590000Y-115751100D01*
X64526000Y-116751100D02*
X65635000Y-116751100D01*
X64114000Y-117872100D02*
X65635000Y-117872100D01*
X65577000Y-115831100D02*
X67773000Y-115831100D01*
X67715000Y-115951100D02*
X67994000Y-115951100D01*
X67715000Y-116791100D02*
X68850000Y-116791100D01*
X64365000Y-117031100D02*
X65635000Y-117031100D01*
X67715000Y-116431100D02*
X68576000Y-116431100D01*
X64428000Y-116911100D02*
X65635000Y-116911100D01*
X65200000Y-120996875D02*
X65200000Y-120496875D01*
X67715000Y-116351100D02*
X68501000Y-116351100D01*
X64155000Y-117632100D02*
X65635000Y-117632100D01*
X67715000Y-116111100D02*
X68229000Y-116111100D01*
X67715000Y-116511100D02*
X68646000Y-116511100D01*
X66391000Y-115591100D02*
X66959000Y-115591100D01*
X67715000Y-115991100D02*
X68058000Y-115991100D01*
X64102000Y-117992100D02*
X69248000Y-117992100D01*
X67715000Y-116751100D02*
X68824000Y-116751100D01*
X67715000Y-117952100D02*
X69244000Y-117952100D01*
X64110000Y-117912100D02*
X65635000Y-117912100D01*
X64220000Y-117391100D02*
X65635000Y-117391100D01*
X64147000Y-117672100D02*
X65635000Y-117672100D01*
X67715000Y-117792100D02*
X69225000Y-117792100D01*
X65070000Y-116151100D02*
X65635000Y-116151100D01*
X64195000Y-117471100D02*
X65635000Y-117471100D01*
X64811000Y-116391100D02*
X65635000Y-116391100D01*
X64099000Y-118032100D02*
X69251000Y-118032100D01*
X64139000Y-117712100D02*
X65635000Y-117712100D01*
X67715000Y-117592100D02*
X69186000Y-117592100D01*
X64293000Y-117191100D02*
X65635000Y-117191100D01*
X64310000Y-117151100D02*
X65635000Y-117151100D01*
X67715000Y-116391100D02*
X68539000Y-116391100D01*
X64174000Y-117552100D02*
X65635000Y-117552100D01*
X64671000Y-116551100D02*
X65635000Y-116551100D01*
X67715000Y-115911100D02*
X67926000Y-115911100D01*
X67715000Y-116471100D02*
X68612000Y-116471100D01*
X64132000Y-117752100D02*
X65635000Y-117752100D01*
X64327000Y-117111100D02*
X65635000Y-117111100D01*
X64207000Y-117431100D02*
X65635000Y-117431100D01*
X67715000Y-117471100D02*
X69155000Y-117471100D01*
X64475000Y-116831100D02*
X65635000Y-116831100D01*
X69295000Y-118192100D02*
G75*
G03*
X69295000Y-118192100I-2620000J0D01*
G01*
%TO.C,R27*%
X76105000Y-60615500D02*
X82645000Y-60615500D01*
X76105000Y-57875500D02*
X82645000Y-57875500D01*
X82645000Y-57875500D02*
X82645000Y-58205500D01*
X82645000Y-60615500D02*
X82645000Y-60285500D01*
X76105000Y-60285500D02*
X76105000Y-60615500D01*
X76105000Y-58205500D02*
X76105000Y-57875500D01*
%TO.C,R17*%
X58071000Y-83412000D02*
X64611000Y-83412000D01*
X58071000Y-83082000D02*
X58071000Y-83412000D01*
X64611000Y-80672000D02*
X64611000Y-81002000D01*
X58071000Y-81002000D02*
X58071000Y-80672000D01*
X58071000Y-80672000D02*
X64611000Y-80672000D01*
X64611000Y-83412000D02*
X64611000Y-83082000D01*
%TO.C,R28*%
X82645000Y-80046500D02*
X82645000Y-79716500D01*
X76105000Y-79716500D02*
X76105000Y-80046500D01*
X76105000Y-77636500D02*
X76105000Y-77306500D01*
X76105000Y-77306500D02*
X82645000Y-77306500D01*
X76105000Y-80046500D02*
X82645000Y-80046500D01*
X82645000Y-77306500D02*
X82645000Y-77636500D01*
%TO.C,U3*%
X60478000Y-84517000D02*
X58828000Y-84517000D01*
X66618000Y-102477000D02*
X66618000Y-84457000D01*
X56338000Y-84457000D02*
X56338000Y-102477000D01*
X56338000Y-102477000D02*
X66618000Y-102477000D01*
X58828000Y-102417000D02*
X64128000Y-102417000D01*
X64128000Y-84517000D02*
X62478000Y-84517000D01*
X66618000Y-84457000D02*
X56338000Y-84457000D01*
X64128000Y-102417000D02*
X64128000Y-84517000D01*
X58828000Y-84517000D02*
X58828000Y-102417000D01*
X60478000Y-84517000D02*
G75*
G03*
X62478000Y-84517000I1000000J0D01*
G01*
%TO.C,C6*%
X64825000Y-106653000D02*
X71065000Y-106653000D01*
X64825000Y-103913000D02*
X64825000Y-104358000D01*
X71065000Y-103913000D02*
X71065000Y-104358000D01*
X64825000Y-106208000D02*
X64825000Y-106653000D01*
X71065000Y-106208000D02*
X71065000Y-106653000D01*
X64825000Y-103913000D02*
X71065000Y-103913000D01*
%TO.C,R20*%
X64611000Y-74942900D02*
X64611000Y-75272900D01*
X58071000Y-77682900D02*
X64611000Y-77682900D01*
X64611000Y-77682900D02*
X64611000Y-77352900D01*
X58071000Y-77352900D02*
X58071000Y-77682900D01*
X58071000Y-75272900D02*
X58071000Y-74942900D01*
X58071000Y-74942900D02*
X64611000Y-74942900D01*
%TO.C,R26*%
X76105000Y-70331000D02*
X82645000Y-70331000D01*
X82645000Y-67591000D02*
X82645000Y-67921000D01*
X82645000Y-70331000D02*
X82645000Y-70001000D01*
X76105000Y-70001000D02*
X76105000Y-70331000D01*
X76105000Y-67921000D02*
X76105000Y-67591000D01*
X76105000Y-67591000D02*
X82645000Y-67591000D01*
%TO.C,R12*%
X66453000Y-33628000D02*
X72993000Y-33628000D01*
X66453000Y-31218000D02*
X66453000Y-30888000D01*
X66453000Y-30888000D02*
X72993000Y-30888000D01*
X72993000Y-30888000D02*
X72993000Y-31218000D01*
X72993000Y-33628000D02*
X72993000Y-33298000D01*
X66453000Y-33298000D02*
X66453000Y-33628000D01*
%TO.C,R14*%
X66453000Y-49503000D02*
X72993000Y-49503000D01*
X66453000Y-49173000D02*
X66453000Y-49503000D01*
X66453000Y-47093000D02*
X66453000Y-46763000D01*
X72993000Y-49503000D02*
X72993000Y-49173000D01*
X72993000Y-46763000D02*
X72993000Y-47093000D01*
X66453000Y-46763000D02*
X72993000Y-46763000D01*
%TO.C,U1*%
X87954000Y-45449000D02*
X87954000Y-24889000D01*
X81814000Y-24949000D02*
X80164000Y-24949000D01*
X77674000Y-24889000D02*
X77674000Y-45449000D01*
X87954000Y-24889000D02*
X77674000Y-24889000D01*
X85464000Y-45389000D02*
X85464000Y-24949000D01*
X80164000Y-24949000D02*
X80164000Y-45389000D01*
X80164000Y-45389000D02*
X85464000Y-45389000D01*
X85464000Y-24949000D02*
X83814000Y-24949000D01*
X77674000Y-45449000D02*
X87954000Y-45449000D01*
X81814000Y-24949000D02*
G75*
G03*
X83814000Y-24949000I1000000J0D01*
G01*
%TO.C,R8*%
X66453000Y-43153000D02*
X72993000Y-43153000D01*
X72993000Y-40413000D02*
X72993000Y-40743000D01*
X72993000Y-43153000D02*
X72993000Y-42823000D01*
X66453000Y-42823000D02*
X66453000Y-43153000D01*
X66453000Y-40743000D02*
X66453000Y-40413000D01*
X66453000Y-40413000D02*
X72993000Y-40413000D01*
%TO.C,J12*%
X68647000Y-54169000D02*
X69977000Y-54169000D01*
X71307000Y-56769000D02*
X71307000Y-94929000D01*
X68647000Y-55499000D02*
X68647000Y-54169000D01*
X68647000Y-56769000D02*
X68647000Y-94929000D01*
X68647000Y-56769000D02*
X71307000Y-56769000D01*
X68647000Y-94929000D02*
X71307000Y-94929000D01*
%TO.C,R22*%
X58071000Y-74488300D02*
X58071000Y-74818300D01*
X64611000Y-72078300D02*
X64611000Y-72408300D01*
X58071000Y-74818300D02*
X64611000Y-74818300D01*
X58071000Y-72408300D02*
X58071000Y-72078300D01*
X58071000Y-72078300D02*
X64611000Y-72078300D01*
X64611000Y-74818300D02*
X64611000Y-74488300D01*
%TO.C,C7*%
X76001000Y-103659000D02*
X76001000Y-104104000D01*
X76001000Y-106399000D02*
X82241000Y-106399000D01*
X82241000Y-105954000D02*
X82241000Y-106399000D01*
X76001000Y-105954000D02*
X76001000Y-106399000D01*
X82241000Y-103659000D02*
X82241000Y-104104000D01*
X76001000Y-103659000D02*
X82241000Y-103659000D01*
%TO.C,R29*%
X76105000Y-73569500D02*
X82645000Y-73569500D01*
X76105000Y-71159500D02*
X76105000Y-70829500D01*
X76105000Y-73239500D02*
X76105000Y-73569500D01*
X82645000Y-73569500D02*
X82645000Y-73239500D01*
X82645000Y-70829500D02*
X82645000Y-71159500D01*
X76105000Y-70829500D02*
X82645000Y-70829500D01*
%TO.C,R1*%
X80931000Y-116994000D02*
X87471000Y-116994000D01*
X87471000Y-119734000D02*
X87471000Y-119404000D01*
X80931000Y-117324000D02*
X80931000Y-116994000D01*
X80931000Y-119734000D02*
X87471000Y-119734000D01*
X87471000Y-116994000D02*
X87471000Y-117324000D01*
X80931000Y-119404000D02*
X80931000Y-119734000D01*
%TO.C,R16*%
X58071000Y-57755600D02*
X64611000Y-57755600D01*
X58071000Y-60165600D02*
X58071000Y-60495600D01*
X58071000Y-60495600D02*
X64611000Y-60495600D01*
X64611000Y-60495600D02*
X64611000Y-60165600D01*
X64611000Y-57755600D02*
X64611000Y-58085600D01*
X58071000Y-58085600D02*
X58071000Y-57755600D01*
%TO.C,R11*%
X72993000Y-49938000D02*
X72993000Y-50268000D01*
X66453000Y-50268000D02*
X66453000Y-49938000D01*
X66453000Y-49938000D02*
X72993000Y-49938000D01*
X66453000Y-52678000D02*
X72993000Y-52678000D01*
X66453000Y-52348000D02*
X66453000Y-52678000D01*
X72993000Y-52678000D02*
X72993000Y-52348000D01*
%TO.C,R23*%
X58071000Y-55221000D02*
X58071000Y-54891000D01*
X64611000Y-54891000D02*
X64611000Y-55221000D01*
X58071000Y-54891000D02*
X64611000Y-54891000D01*
X58071000Y-57301000D02*
X58071000Y-57631000D01*
X64611000Y-57631000D02*
X64611000Y-57301000D01*
X58071000Y-57631000D02*
X64611000Y-57631000D01*
%TO.C,U4*%
X76481000Y-102544000D02*
X81781000Y-102544000D01*
X73991000Y-84584000D02*
X73991000Y-102604000D01*
X84271000Y-84584000D02*
X73991000Y-84584000D01*
X81781000Y-84644000D02*
X80131000Y-84644000D01*
X76481000Y-84644000D02*
X76481000Y-102544000D01*
X78131000Y-84644000D02*
X76481000Y-84644000D01*
X73991000Y-102604000D02*
X84271000Y-102604000D01*
X81781000Y-102544000D02*
X81781000Y-84644000D01*
X84271000Y-102604000D02*
X84271000Y-84584000D01*
X78131000Y-84644000D02*
G75*
G03*
X80131000Y-84644000I1000000J0D01*
G01*
%TO.C,R13*%
X72993000Y-24538000D02*
X72993000Y-24868000D01*
X72993000Y-27278000D02*
X72993000Y-26948000D01*
X66453000Y-27278000D02*
X72993000Y-27278000D01*
X66453000Y-26948000D02*
X66453000Y-27278000D01*
X66453000Y-24868000D02*
X66453000Y-24538000D01*
X66453000Y-24538000D02*
X72993000Y-24538000D01*
%TD*%
M02*
