M48
; DRILL file {KiCad (6.0.0)} date Mon Oct 17 09:45:23 2022
; FORMAT={-:-/ absolute / inch / decimal}
; #@! TF.CreationDate,2022-10-17T09:45:23-04:00
; #@! TF.GenerationSoftware,Kicad,Pcbnew,(6.0.0)
; #@! TF.FileFunction,Plated,1,2,PTH
FMAT,2
INCH
; #@! TA.AperFunction,Plated,PTH,ViaDrill
T1C0.0157
; #@! TA.AperFunction,Plated,PTH,ComponentDrill
T2C0.0315
; #@! TA.AperFunction,Plated,PTH,ComponentDrill
T3C0.0394
%
G90
G05
T1
X2.6611Y-1.4486
T2
X2.1004Y-1.0598
X2.1004Y-1.1598
X2.1004Y-1.2598
X2.1004Y-1.3598
X2.1004Y-1.4598
X2.1004Y-1.5598
X2.1004Y-1.6598
X2.1516Y-1.845
X2.265Y-2.215
X2.265Y-2.3278
X2.265Y-2.4406
X2.265Y-2.5533
X2.265Y-2.6661
X2.265Y-2.7789
X2.265Y-2.8917
X2.265Y-3.0044
X2.265Y-3.1172
X2.265Y-3.23
X2.2704Y-3.3798
X2.2704Y-3.4798
X2.2704Y-3.5798
X2.2704Y-3.6798
X2.2704Y-3.7798
X2.2704Y-3.8798
X2.2704Y-3.9798
X2.3484Y-1.845
X2.4004Y-1.0598
X2.4004Y-1.1598
X2.4004Y-1.2598
X2.4004Y-1.3598
X2.4004Y-1.4598
X2.4004Y-1.5598
X2.4004Y-1.6598
X2.565Y-2.215
X2.565Y-2.3278
X2.565Y-2.4406
X2.565Y-2.5533
X2.565Y-2.6661
X2.565Y-2.7789
X2.565Y-2.8917
X2.565Y-3.0044
X2.565Y-3.1172
X2.565Y-3.23
X2.5704Y-3.3798
X2.5704Y-3.4798
X2.5704Y-3.5798
X2.5704Y-3.6798
X2.5704Y-3.7798
X2.5704Y-3.8798
X2.5704Y-3.9798
X2.5766Y-4.145
X2.595Y-1.02
X2.595Y-1.145
X2.595Y-1.27
X2.595Y-1.395
X2.595Y-1.52
X2.595Y-1.645
X2.595Y-1.77
X2.595Y-1.895
X2.595Y-2.02
X2.625Y-4.3026
X2.625Y-4.401
X2.625Y-4.604
X2.625Y-4.7024
X2.7734Y-4.145
X2.8616Y-4.385
X2.8616Y-4.645
X2.895Y-1.02
X2.895Y-1.145
X2.895Y-1.27
X2.895Y-1.395
X2.895Y-1.52
X2.895Y-1.645
X2.895Y-1.77
X2.895Y-1.895
X2.895Y-2.02
X2.9654Y-3.3848
X2.9654Y-3.4848
X2.9654Y-3.5848
X2.9654Y-3.6848
X2.9654Y-3.7848
X2.9654Y-3.8848
X2.9654Y-3.9848
X2.975Y-2.205
X2.975Y-2.3325
X2.975Y-2.46
X2.975Y-2.5875
X2.975Y-2.715
X2.975Y-2.8425
X2.975Y-2.97
X2.975Y-3.0975
X2.975Y-3.225
X3.0166Y-4.135
X3.0584Y-4.385
X3.0584Y-4.645
X3.1104Y-1.0346
X3.1104Y-1.1346
X3.1104Y-1.2346
X3.1104Y-1.3346
X3.1104Y-1.4346
X3.1104Y-1.5346
X3.1104Y-1.6346
X3.1104Y-1.7346
X3.165Y-4.38
X3.165Y-4.525
X3.165Y-4.66
X3.2134Y-4.135
X3.2654Y-3.3848
X3.2654Y-3.4848
X3.2654Y-3.5848
X3.2654Y-3.6848
X3.2654Y-3.7848
X3.2654Y-3.8848
X3.2654Y-3.9848
X3.275Y-2.205
X3.275Y-2.3325
X3.275Y-2.46
X3.275Y-2.5875
X3.275Y-2.715
X3.275Y-2.8425
X3.275Y-2.97
X3.275Y-3.0975
X3.275Y-3.225
X3.4104Y-1.0346
X3.4104Y-1.1346
X3.4104Y-1.2346
X3.4104Y-1.3346
X3.4104Y-1.4346
X3.4104Y-1.5346
X3.4104Y-1.6346
X3.4104Y-1.7346
X3.465Y-4.38
X3.465Y-4.525
X3.465Y-4.66
T3
X2.1654Y-4.3
X2.1654Y-4.4
X2.1654Y-4.5
X2.1654Y-4.6
X2.1654Y-4.7
X2.2654Y-4.3
X2.2654Y-4.4
X2.2654Y-4.5
X2.2654Y-4.6
X2.2654Y-4.7
X2.755Y-2.185
X2.755Y-2.285
X2.755Y-2.385
X2.755Y-2.485
X2.755Y-2.585
X2.755Y-2.685
X2.755Y-2.785
X2.755Y-2.885
X2.755Y-2.985
X2.755Y-3.085
X2.755Y-3.185
X2.755Y-3.285
X2.755Y-3.385
X2.755Y-3.485
X2.755Y-3.585
X2.755Y-3.685
T0
M30
