%TF.GenerationSoftware,KiCad,Pcbnew,(6.0.0)*%
%TF.CreationDate,2022-10-17T09:45:21-04:00*%
%TF.ProjectId,ASVCA,41535643-412e-46b6-9963-61645f706362,rev?*%
%TF.SameCoordinates,Original*%
%TF.FileFunction,Copper,L1,Top*%
%TF.FilePolarity,Positive*%
%FSLAX46Y46*%
G04 Gerber Fmt 4.6, Leading zero omitted, Abs format (unit mm)*
G04 Created by KiCad (PCBNEW (6.0.0)) date 2022-10-17 09:45:21*
%MOMM*%
%LPD*%
G01*
G04 APERTURE LIST*
G04 Aperture macros list*
%AMRoundRect*
0 Rectangle with rounded corners*
0 $1 Rounding radius*
0 $2 $3 $4 $5 $6 $7 $8 $9 X,Y pos of 4 corners*
0 Add a 4 corners polygon primitive as box body*
4,1,4,$2,$3,$4,$5,$6,$7,$8,$9,$2,$3,0*
0 Add four circle primitives for the rounded corners*
1,1,$1+$1,$2,$3*
1,1,$1+$1,$4,$5*
1,1,$1+$1,$6,$7*
1,1,$1+$1,$8,$9*
0 Add four rect primitives between the rounded corners*
20,1,$1+$1,$2,$3,$4,$5,0*
20,1,$1+$1,$4,$5,$6,$7,0*
20,1,$1+$1,$6,$7,$8,$9,0*
20,1,$1+$1,$8,$9,$2,$3,0*%
G04 Aperture macros list end*
%TA.AperFunction,ComponentPad*%
%ADD10R,1.600000X1.600000*%
%TD*%
%TA.AperFunction,ComponentPad*%
%ADD11C,1.600000*%
%TD*%
%TA.AperFunction,ComponentPad*%
%ADD12O,1.600000X1.600000*%
%TD*%
%TA.AperFunction,ComponentPad*%
%ADD13RoundRect,0.250000X-0.600000X-0.600000X0.600000X-0.600000X0.600000X0.600000X-0.600000X0.600000X0*%
%TD*%
%TA.AperFunction,ComponentPad*%
%ADD14C,1.700000*%
%TD*%
%TA.AperFunction,ComponentPad*%
%ADD15R,1.700000X1.700000*%
%TD*%
%TA.AperFunction,ComponentPad*%
%ADD16O,1.700000X1.700000*%
%TD*%
%TA.AperFunction,ViaPad*%
%ADD17C,0.800000*%
%TD*%
%TA.AperFunction,Conductor*%
%ADD18C,0.250000*%
%TD*%
G04 APERTURE END LIST*
D10*
%TO.P,C1,1*%
%TO.N,+12V*%
X66675000Y-109284900D03*
D11*
%TO.P,C1,2*%
%TO.N,GND*%
X66675000Y-111784900D03*
%TD*%
%TO.P,R3,1*%
%TO.N,PosRef*%
X80391000Y-111252000D03*
D12*
%TO.P,R3,2*%
%TO.N,GND*%
X88011000Y-111252000D03*
%TD*%
D11*
%TO.P,R25,1*%
%TO.N,CVIN1*%
X75565000Y-65722500D03*
D12*
%TO.P,R25,2*%
%TO.N,Net-(R25-Pad2)*%
X83185000Y-65722500D03*
%TD*%
D11*
%TO.P,R30,1*%
%TO.N,GND*%
X75565000Y-56007000D03*
D12*
%TO.P,R30,2*%
%TO.N,in1*%
X83185000Y-56007000D03*
%TD*%
D11*
%TO.P,R10,1*%
%TO.N,Net-(R10-Pad1)*%
X57531000Y-79177400D03*
D12*
%TO.P,R10,2*%
%TO.N,in3b*%
X65151000Y-79177400D03*
%TD*%
D11*
%TO.P,R2,1*%
%TO.N,NegRef*%
X75565000Y-81915000D03*
D12*
%TO.P,R2,2*%
%TO.N,-12V*%
X83185000Y-81915000D03*
%TD*%
D11*
%TO.P,R24,1*%
%TO.N,INPUT1*%
X75565000Y-62484000D03*
D12*
%TO.P,R24,2*%
%TO.N,Net-(R24-Pad2)*%
X83185000Y-62484000D03*
%TD*%
D11*
%TO.P,R7,1*%
%TO.N,CVIN3*%
X65913000Y-29083000D03*
D12*
%TO.P,R7,2*%
%TO.N,Net-(R7-Pad2)*%
X73533000Y-29083000D03*
%TD*%
D11*
%TO.P,C3,1*%
%TO.N,+12V*%
X72684000Y-111379000D03*
%TO.P,C3,2*%
%TO.N,GND*%
X77684000Y-111379000D03*
%TD*%
%TO.P,R5,1*%
%TO.N,INPUT3a*%
X65913000Y-38608000D03*
D12*
%TO.P,R5,2*%
%TO.N,Net-(R5-Pad2)*%
X73533000Y-38608000D03*
%TD*%
D11*
%TO.P,R21,1*%
%TO.N,OUTPUT2*%
X57531000Y-61990100D03*
D12*
%TO.P,R21,2*%
%TO.N,Net-(C6-Pad2)*%
X65151000Y-61990100D03*
%TD*%
D11*
%TO.P,R18,1*%
%TO.N,Iout2*%
X57531000Y-64854700D03*
D12*
%TO.P,R18,2*%
%TO.N,Net-(C6-Pad2)*%
X65151000Y-64854700D03*
%TD*%
D11*
%TO.P,R31,1*%
%TO.N,GND*%
X75565000Y-75438000D03*
D12*
%TO.P,R31,2*%
%TO.N,VCntrl1*%
X83185000Y-75438000D03*
%TD*%
D11*
%TO.P,R4,1*%
%TO.N,GND*%
X80391000Y-114935000D03*
D12*
%TO.P,R4,2*%
%TO.N,NegRef*%
X88011000Y-114935000D03*
%TD*%
D13*
%TO.P,J1,1,Pin_1*%
%TO.N,+12V*%
X55000500Y-109220000D03*
D14*
%TO.P,J1,2,Pin_2*%
X57540500Y-109220000D03*
%TO.P,J1,3,Pin_3*%
%TO.N,GND*%
X55000500Y-111760000D03*
%TO.P,J1,4,Pin_4*%
X57540500Y-111760000D03*
%TO.P,J1,5,Pin_5*%
X55000500Y-114300000D03*
%TO.P,J1,6,Pin_6*%
X57540500Y-114300000D03*
%TO.P,J1,7,Pin_7*%
X55000500Y-116840000D03*
%TO.P,J1,8,Pin_8*%
X57540500Y-116840000D03*
%TO.P,J1,9,Pin_9*%
%TO.N,-12V*%
X55000500Y-119380000D03*
%TO.P,J1,10,Pin_10*%
X57540500Y-119380000D03*
%TD*%
D10*
%TO.P,U2,1*%
%TO.N,Net-(R9-Pad1)*%
X53350000Y-26919000D03*
D12*
%TO.P,U2,2,-*%
X53350000Y-29459000D03*
%TO.P,U2,3,+*%
%TO.N,Net-(R5-Pad2)*%
X53350000Y-31999000D03*
%TO.P,U2,4,V+*%
%TO.N,+12V*%
X53350000Y-34539000D03*
%TO.P,U2,5,+*%
%TO.N,Net-(R6-Pad2)*%
X53350000Y-37079000D03*
%TO.P,U2,6,-*%
%TO.N,Net-(R10-Pad1)*%
X53350000Y-39619000D03*
%TO.P,U2,7*%
X53350000Y-42159000D03*
%TO.P,U2,8*%
%TO.N,Net-(R11-Pad1)*%
X60970000Y-42159000D03*
%TO.P,U2,9,-*%
X60970000Y-39619000D03*
%TO.P,U2,10,+*%
%TO.N,Net-(R7-Pad2)*%
X60970000Y-37079000D03*
%TO.P,U2,11,V-*%
%TO.N,-12V*%
X60970000Y-34539000D03*
%TO.P,U2,12,+*%
%TO.N,GND*%
X60970000Y-31999000D03*
%TO.P,U2,13,-*%
%TO.N,Iout3*%
X60970000Y-29459000D03*
%TO.P,U2,14*%
%TO.N,Net-(C5-Pad2)*%
X60970000Y-26919000D03*
%TD*%
D11*
%TO.P,R15,1*%
%TO.N,GND*%
X65913000Y-44958000D03*
D12*
%TO.P,R15,2*%
%TO.N,VCntrl3*%
X73533000Y-44958000D03*
%TD*%
D11*
%TO.P,R6,1*%
%TO.N,INPUT3b*%
X57531000Y-67719200D03*
D12*
%TO.P,R6,2*%
%TO.N,Net-(R6-Pad2)*%
X65151000Y-67719200D03*
%TD*%
D11*
%TO.P,R19,1*%
%TO.N,Net-(R19-Pad1)*%
X57531000Y-70583800D03*
D12*
%TO.P,R19,2*%
%TO.N,in2*%
X65151000Y-70583800D03*
%TD*%
D11*
%TO.P,C5,1*%
%TO.N,Iout3*%
X59650000Y-46863000D03*
%TO.P,C5,2*%
%TO.N,Net-(C5-Pad2)*%
X54650000Y-46863000D03*
%TD*%
%TO.P,C4,1*%
%TO.N,GND*%
X72684000Y-117983000D03*
%TO.P,C4,2*%
%TO.N,-12V*%
X77684000Y-117983000D03*
%TD*%
%TO.P,R9,1*%
%TO.N,Net-(R9-Pad1)*%
X65913000Y-35433000D03*
D12*
%TO.P,R9,2*%
%TO.N,in3a*%
X73533000Y-35433000D03*
%TD*%
D10*
%TO.P,C2,1*%
%TO.N,-12V*%
X66675000Y-119442100D03*
D11*
%TO.P,C2,2*%
%TO.N,GND*%
X66675000Y-116942100D03*
%TD*%
%TO.P,R27,1*%
%TO.N,Net-(R27-Pad1)*%
X75565000Y-59245500D03*
D12*
%TO.P,R27,2*%
%TO.N,in1*%
X83185000Y-59245500D03*
%TD*%
D11*
%TO.P,R17,1*%
%TO.N,CVIN2*%
X57531000Y-82042000D03*
D12*
%TO.P,R17,2*%
%TO.N,Net-(R17-Pad2)*%
X65151000Y-82042000D03*
%TD*%
D11*
%TO.P,R28,1*%
%TO.N,Net-(R28-Pad1)*%
X75565000Y-78676500D03*
D12*
%TO.P,R28,2*%
%TO.N,VCntrl1*%
X83185000Y-78676500D03*
%TD*%
D10*
%TO.P,U3,1*%
%TO.N,Net-(R19-Pad1)*%
X57668000Y-85847000D03*
D12*
%TO.P,U3,2,-*%
X57668000Y-88387000D03*
%TO.P,U3,3,+*%
%TO.N,Net-(R16-Pad2)*%
X57668000Y-90927000D03*
%TO.P,U3,4*%
%TO.N,N/C*%
X57668000Y-93467000D03*
%TO.P,U3,5,+*%
%TO.N,Net-(R17-Pad2)*%
X57668000Y-96007000D03*
%TO.P,U3,6,-*%
%TO.N,Net-(R20-Pad1)*%
X57668000Y-98547000D03*
%TO.P,U3,7*%
X57668000Y-101087000D03*
%TO.P,U3,8*%
%TO.N,Net-(C6-Pad2)*%
X65288000Y-101087000D03*
%TO.P,U3,9,-*%
%TO.N,Iout2*%
X65288000Y-98547000D03*
%TO.P,U3,10,+*%
%TO.N,GND*%
X65288000Y-96007000D03*
%TO.P,U3,11*%
%TO.N,N/C*%
X65288000Y-93467000D03*
%TO.P,U3,12,+*%
%TO.N,GND*%
X65288000Y-90927000D03*
%TO.P,U3,13,-*%
%TO.N,Net-(U3-Pad13)*%
X65288000Y-88387000D03*
%TO.P,U3,14*%
X65288000Y-85847000D03*
%TD*%
D11*
%TO.P,C6,1*%
%TO.N,Iout2*%
X65445000Y-105283000D03*
%TO.P,C6,2*%
%TO.N,Net-(C6-Pad2)*%
X70445000Y-105283000D03*
%TD*%
%TO.P,R20,1*%
%TO.N,Net-(R20-Pad1)*%
X57531000Y-76312900D03*
D12*
%TO.P,R20,2*%
%TO.N,VCntrl2*%
X65151000Y-76312900D03*
%TD*%
D11*
%TO.P,R26,1*%
%TO.N,Iout1*%
X75565000Y-68961000D03*
D12*
%TO.P,R26,2*%
%TO.N,Net-(C7-Pad2)*%
X83185000Y-68961000D03*
%TD*%
D11*
%TO.P,R12,1*%
%TO.N,OUTPUT3*%
X65913000Y-32258000D03*
D12*
%TO.P,R12,2*%
%TO.N,Net-(C5-Pad2)*%
X73533000Y-32258000D03*
%TD*%
D11*
%TO.P,R14,1*%
%TO.N,GND*%
X65913000Y-48133000D03*
D12*
%TO.P,R14,2*%
%TO.N,in3b*%
X73533000Y-48133000D03*
%TD*%
D10*
%TO.P,U1,1,GND*%
%TO.N,GND*%
X79004000Y-26279000D03*
D12*
%TO.P,U1,2,In1*%
%TO.N,in1*%
X79004000Y-28819000D03*
%TO.P,U1,3,CVMix1*%
%TO.N,to_CVMix1*%
X79004000Y-31359000D03*
%TO.P,U1,4,Vcntrl1*%
%TO.N,VCntrl1*%
X79004000Y-33899000D03*
%TO.P,U1,5,Iout1*%
%TO.N,Iout1*%
X79004000Y-36439000D03*
%TO.P,U1,6,Iout3*%
%TO.N,Iout3*%
X79004000Y-38979000D03*
%TO.P,U1,7,Vcntrl3*%
%TO.N,VCntrl3*%
X79004000Y-41519000D03*
%TO.P,U1,8,VEE*%
%TO.N,-12V*%
X79004000Y-44059000D03*
%TO.P,U1,9,In3a*%
%TO.N,in3a*%
X86624000Y-44059000D03*
%TO.P,U1,10,In3b*%
%TO.N,in3b*%
X86624000Y-41519000D03*
%TO.P,U1,11,CVMix3*%
%TO.N,to_CVMix3*%
X86624000Y-38979000D03*
%TO.P,U1,12,Iout2*%
%TO.N,Iout2*%
X86624000Y-36439000D03*
%TO.P,U1,13,Vcntrl2*%
%TO.N,VCntrl2*%
X86624000Y-33899000D03*
%TO.P,U1,14,CVMix2*%
%TO.N,to_CVMix2*%
X86624000Y-31359000D03*
%TO.P,U1,15,In2*%
%TO.N,in2*%
X86624000Y-28819000D03*
%TO.P,U1,16,VCC*%
%TO.N,+12V*%
X86624000Y-26279000D03*
%TD*%
D11*
%TO.P,R8,1*%
%TO.N,Iout3*%
X65913000Y-41783000D03*
D12*
%TO.P,R8,2*%
%TO.N,Net-(C5-Pad2)*%
X73533000Y-41783000D03*
%TD*%
D15*
%TO.P,J12,1,Pin_1*%
%TO.N,GND*%
X69977000Y-55499000D03*
D16*
%TO.P,J12,2,Pin_2*%
%TO.N,PosRef*%
X69977000Y-58039000D03*
%TO.P,J12,3,Pin_3*%
%TO.N,NegRef*%
X69977000Y-60579000D03*
%TO.P,J12,4,Pin_4*%
%TO.N,to_CVMix3*%
X69977000Y-63119000D03*
%TO.P,J12,5,Pin_5*%
%TO.N,to_CVMix2*%
X69977000Y-65659000D03*
%TO.P,J12,6,Pin_6*%
%TO.N,to_CVMix1*%
X69977000Y-68199000D03*
%TO.P,J12,7,Pin_7*%
%TO.N,INPUT3b*%
X69977000Y-70739000D03*
%TO.P,J12,8,Pin_8*%
%TO.N,OUTPUT3*%
X69977000Y-73279000D03*
%TO.P,J12,9,Pin_9*%
%TO.N,CVIN3*%
X69977000Y-75819000D03*
%TO.P,J12,10,Pin_10*%
%TO.N,INPUT3a*%
X69977000Y-78359000D03*
%TO.P,J12,11,Pin_11*%
%TO.N,INPUT2*%
X69977000Y-80899000D03*
%TO.P,J12,12,Pin_12*%
%TO.N,CVIN2*%
X69977000Y-83439000D03*
%TO.P,J12,13,Pin_13*%
%TO.N,OUTPUT2*%
X69977000Y-85979000D03*
%TO.P,J12,14,Pin_14*%
%TO.N,INPUT1*%
X69977000Y-88519000D03*
%TO.P,J12,15,Pin_15*%
%TO.N,CVIN1*%
X69977000Y-91059000D03*
%TO.P,J12,16,Pin_16*%
%TO.N,OUTPUT1*%
X69977000Y-93599000D03*
%TD*%
D11*
%TO.P,R22,1*%
%TO.N,GND*%
X57531000Y-73448300D03*
D12*
%TO.P,R22,2*%
%TO.N,in2*%
X65151000Y-73448300D03*
%TD*%
D11*
%TO.P,C7,1*%
%TO.N,Iout1*%
X76621000Y-105029000D03*
%TO.P,C7,2*%
%TO.N,Net-(C7-Pad2)*%
X81621000Y-105029000D03*
%TD*%
%TO.P,R29,1*%
%TO.N,OUTPUT1*%
X75565000Y-72199500D03*
D12*
%TO.P,R29,2*%
%TO.N,Net-(C7-Pad2)*%
X83185000Y-72199500D03*
%TD*%
D11*
%TO.P,R1,1*%
%TO.N,+12V*%
X80391000Y-118364000D03*
D12*
%TO.P,R1,2*%
%TO.N,PosRef*%
X88011000Y-118364000D03*
%TD*%
D11*
%TO.P,R16,1*%
%TO.N,INPUT2*%
X57531000Y-59125600D03*
D12*
%TO.P,R16,2*%
%TO.N,Net-(R16-Pad2)*%
X65151000Y-59125600D03*
%TD*%
D11*
%TO.P,R11,1*%
%TO.N,Net-(R11-Pad1)*%
X65913000Y-51308000D03*
D12*
%TO.P,R11,2*%
%TO.N,VCntrl3*%
X73533000Y-51308000D03*
%TD*%
D11*
%TO.P,R23,1*%
%TO.N,GND*%
X57531000Y-56261000D03*
D12*
%TO.P,R23,2*%
%TO.N,VCntrl2*%
X65151000Y-56261000D03*
%TD*%
D10*
%TO.P,U4,1*%
%TO.N,Net-(R27-Pad1)*%
X75321000Y-85974000D03*
D12*
%TO.P,U4,2,-*%
X75321000Y-88514000D03*
%TO.P,U4,3,+*%
%TO.N,Net-(R24-Pad2)*%
X75321000Y-91054000D03*
%TO.P,U4,4*%
%TO.N,N/C*%
X75321000Y-93594000D03*
%TO.P,U4,5,+*%
%TO.N,Net-(R25-Pad2)*%
X75321000Y-96134000D03*
%TO.P,U4,6,-*%
%TO.N,Net-(R28-Pad1)*%
X75321000Y-98674000D03*
%TO.P,U4,7*%
X75321000Y-101214000D03*
%TO.P,U4,8*%
%TO.N,Net-(C7-Pad2)*%
X82941000Y-101214000D03*
%TO.P,U4,9,-*%
%TO.N,Iout1*%
X82941000Y-98674000D03*
%TO.P,U4,10,+*%
%TO.N,GND*%
X82941000Y-96134000D03*
%TO.P,U4,11*%
%TO.N,N/C*%
X82941000Y-93594000D03*
%TO.P,U4,12,+*%
%TO.N,GND*%
X82941000Y-91054000D03*
%TO.P,U4,13,-*%
%TO.N,Net-(U4-Pad13)*%
X82941000Y-88514000D03*
%TO.P,U4,14*%
X82941000Y-85974000D03*
%TD*%
D11*
%TO.P,R13,1*%
%TO.N,GND*%
X65913000Y-25908000D03*
D12*
%TO.P,R13,2*%
%TO.N,in3a*%
X73533000Y-25908000D03*
%TD*%
D17*
%TO.N,in2*%
X67591800Y-36794900D03*
%TD*%
D18*
%TO.N,+12V*%
X53350000Y-34539000D02*
X53350000Y-33413700D01*
X55000500Y-109220000D02*
X57540500Y-109220000D01*
X54475300Y-31784700D02*
X54475300Y-32569800D01*
X86624000Y-26279000D02*
X85498700Y-26279000D01*
X52221900Y-106441400D02*
X55000500Y-109220000D01*
X53350000Y-35664300D02*
X53068700Y-35664300D01*
X83953300Y-24733600D02*
X61526400Y-24733600D01*
X53631400Y-33413700D02*
X53350000Y-33413700D01*
X53068700Y-35664300D02*
X52221900Y-36511100D01*
X54475300Y-32569800D02*
X53631400Y-33413700D01*
X70589900Y-109284900D02*
X72684000Y-111379000D01*
X61526400Y-24733600D02*
X54475300Y-31784700D01*
X53350000Y-34539000D02*
X53350000Y-35664300D01*
X66675000Y-109284900D02*
X70589900Y-109284900D01*
X85498700Y-26279000D02*
X83953300Y-24733600D01*
X52221900Y-36511100D02*
X52221900Y-106441400D01*
%TO.N,GND*%
X61251300Y-30873700D02*
X60970000Y-30873700D01*
X55939400Y-71856700D02*
X57531000Y-73448300D01*
X82941000Y-96134000D02*
X82941000Y-95008700D01*
X65913000Y-26212000D02*
X61251300Y-30873700D01*
X60970000Y-31999000D02*
X60970000Y-33124300D01*
X57540500Y-116840000D02*
X57540500Y-114300000D01*
X64184700Y-43229700D02*
X64184700Y-36057600D01*
X77684000Y-113914700D02*
X77684000Y-111379000D01*
X57565400Y-114275100D02*
X57565400Y-111784900D01*
X65913000Y-44958000D02*
X64184700Y-43229700D01*
X77684000Y-113914700D02*
X79370700Y-113914700D01*
X72684000Y-117983000D02*
X76752300Y-113914700D01*
X57531000Y-56261000D02*
X55939400Y-57852600D01*
X55939400Y-57852600D02*
X55939400Y-71856700D01*
X64162700Y-94037700D02*
X64162700Y-92896200D01*
X65006600Y-92052300D02*
X65288000Y-92052300D01*
X55000500Y-114300000D02*
X55000500Y-111760000D01*
X82941000Y-91054000D02*
X82941000Y-92179300D01*
X83222400Y-95008700D02*
X82941000Y-95008700D01*
X57565400Y-111784900D02*
X57540500Y-111760000D01*
X66675000Y-111784900D02*
X57565400Y-111784900D01*
X84066300Y-94164800D02*
X83222400Y-95008700D01*
X82941000Y-92179300D02*
X83222300Y-92179300D01*
X65006700Y-94881700D02*
X64162700Y-94037700D01*
X79370700Y-113914700D02*
X80391000Y-114935000D01*
X64162700Y-92896200D02*
X65006600Y-92052300D01*
X65288000Y-90927000D02*
X65288000Y-92052300D01*
X55000500Y-116840000D02*
X55000500Y-114300000D01*
X57540500Y-114300000D02*
X57565400Y-114275100D01*
X65913000Y-48133000D02*
X65913000Y-44958000D01*
X65288000Y-96007000D02*
X65288000Y-94881700D01*
X65913000Y-25908000D02*
X65913000Y-26212000D01*
X83222300Y-92179300D02*
X84066300Y-93023300D01*
X65288000Y-94881700D02*
X65006700Y-94881700D01*
X60970000Y-31999000D02*
X60970000Y-30873700D01*
X66675000Y-116942100D02*
X66675000Y-111784900D01*
X64184700Y-36057600D02*
X61251400Y-33124300D01*
X76752300Y-113914700D02*
X77684000Y-113914700D01*
X84066300Y-93023300D02*
X84066300Y-94164800D01*
X61251400Y-33124300D02*
X60970000Y-33124300D01*
%TO.N,-12V*%
X79004000Y-44059000D02*
X79004000Y-76608700D01*
X79004000Y-76608700D02*
X83185000Y-80789700D01*
X83185000Y-81915000D02*
X83185000Y-80789700D01*
%TO.N,Iout3*%
X59650000Y-30779000D02*
X59650000Y-46863000D01*
X60970000Y-29459000D02*
X59650000Y-30779000D01*
%TO.N,Net-(C5-Pad2)*%
X72407700Y-34508600D02*
X72407700Y-39532400D01*
X60688700Y-28044300D02*
X60970000Y-28044300D01*
X54650000Y-46863000D02*
X54650000Y-34083000D01*
X72407700Y-39532400D02*
X73533000Y-40657700D01*
X73533000Y-33383300D02*
X72407700Y-34508600D01*
X73533000Y-41783000D02*
X73533000Y-40657700D01*
X54650000Y-34083000D02*
X60688700Y-28044300D01*
X73533000Y-32258000D02*
X73533000Y-33383300D01*
X60970000Y-26919000D02*
X60970000Y-28044300D01*
%TO.N,Iout2*%
X65288000Y-98547000D02*
X65288000Y-97421700D01*
X62674800Y-95089800D02*
X65006700Y-97421700D01*
X62674800Y-69998500D02*
X62674800Y-95089800D01*
X57531000Y-64854700D02*
X62674800Y-69998500D01*
X65006700Y-97421700D02*
X65288000Y-97421700D01*
%TO.N,Net-(C6-Pad2)*%
X65063400Y-89790100D02*
X65764500Y-89790100D01*
X65764500Y-89790100D02*
X66413300Y-90438900D01*
X65151000Y-65980000D02*
X63125100Y-68005900D01*
X65151000Y-61990100D02*
X65151000Y-64854700D01*
X70445000Y-105283000D02*
X66413300Y-101251300D01*
X63125100Y-68005900D02*
X63125100Y-87851800D01*
X65151000Y-64854700D02*
X65151000Y-65980000D01*
X63125100Y-87851800D02*
X65063400Y-89790100D01*
X66413300Y-90438900D02*
X66413300Y-101087000D01*
X65288000Y-101087000D02*
X66413300Y-101087000D01*
X66413300Y-101251300D02*
X66413300Y-101087000D01*
%TO.N,Iout1*%
X78811200Y-37564300D02*
X79004000Y-37564300D01*
X77146600Y-92035600D02*
X82659700Y-97548700D01*
X75565000Y-68961000D02*
X77146600Y-70542600D01*
X75565000Y-68961000D02*
X77878700Y-66647300D01*
X77146600Y-70542600D02*
X77146600Y-92035600D01*
X79004000Y-36439000D02*
X79004000Y-37564300D01*
X82941000Y-98674000D02*
X82941000Y-97548700D01*
X77878700Y-38496800D02*
X78811200Y-37564300D01*
X82659700Y-97548700D02*
X82941000Y-97548700D01*
X77878700Y-66647300D02*
X77878700Y-38496800D01*
%TO.N,Net-(C7-Pad2)*%
X83222300Y-100088700D02*
X84534800Y-98776200D01*
X83185000Y-72199500D02*
X83185000Y-73324800D01*
X82941000Y-100088700D02*
X83222300Y-100088700D01*
X84534800Y-74674600D02*
X83185000Y-73324800D01*
X84534800Y-98776200D02*
X84534800Y-74674600D01*
X83185000Y-68961000D02*
X83185000Y-72199500D01*
X82941000Y-101214000D02*
X82941000Y-100088700D01*
%TO.N,NegRef*%
X75339100Y-102861300D02*
X77062600Y-102861300D01*
X75565000Y-81915000D02*
X74195600Y-83284400D01*
X77062600Y-102861300D02*
X88011000Y-113809700D01*
X88011000Y-114935000D02*
X88011000Y-113809700D01*
X74195600Y-83284400D02*
X74195600Y-101717800D01*
X74195600Y-101717800D02*
X75339100Y-102861300D01*
%TO.N,INPUT3a*%
X67775600Y-75349600D02*
X69609700Y-77183700D01*
X69977000Y-78359000D02*
X69977000Y-77183700D01*
X65913000Y-38608000D02*
X67775600Y-40470600D01*
X67775600Y-40470600D02*
X67775600Y-75349600D01*
X69609700Y-77183700D02*
X69977000Y-77183700D01*
%TO.N,CVIN3*%
X68317100Y-36203100D02*
X66134300Y-34020300D01*
X68317100Y-73311700D02*
X68317100Y-36203100D01*
X69649100Y-74643700D02*
X68317100Y-73311700D01*
X69977000Y-74643700D02*
X69649100Y-74643700D01*
X66134300Y-34020300D02*
X66005200Y-34020300D01*
X64761100Y-32776200D02*
X64761100Y-30234900D01*
X64761100Y-30234900D02*
X65913000Y-29083000D01*
X69977000Y-75819000D02*
X69977000Y-74643700D01*
X66005200Y-34020300D02*
X64761100Y-32776200D01*
%TO.N,in3a*%
X75075900Y-32764800D02*
X73533000Y-34307700D01*
X79458600Y-27672100D02*
X84065100Y-32278600D01*
X73533000Y-25908000D02*
X74658300Y-25908000D01*
X86624000Y-44059000D02*
X86624000Y-42933700D01*
X75075900Y-27672100D02*
X79458600Y-27672100D01*
X84065100Y-32278600D02*
X84065100Y-40637300D01*
X73533000Y-35433000D02*
X73533000Y-34307700D01*
X74658300Y-25908000D02*
X75075900Y-26325600D01*
X86361500Y-42933700D02*
X86624000Y-42933700D01*
X75075900Y-26325600D02*
X75075900Y-27672100D01*
X84065100Y-40637300D02*
X86361500Y-42933700D01*
X75075900Y-27672100D02*
X75075900Y-32764800D01*
%TO.N,Net-(R9-Pad1)*%
X53350000Y-26919000D02*
X53350000Y-29459000D01*
%TO.N,in3b*%
X71605800Y-51185500D02*
X73533000Y-49258300D01*
X73533000Y-48133000D02*
X73533000Y-49258300D01*
X70427000Y-79572500D02*
X71605800Y-78393700D01*
X71605800Y-78393700D02*
X71605800Y-51185500D01*
X66276300Y-79177400D02*
X66671400Y-79572500D01*
X65151000Y-79177400D02*
X66276300Y-79177400D01*
X66671400Y-79572500D02*
X70427000Y-79572500D01*
%TO.N,Net-(R10-Pad1)*%
X53350000Y-74996400D02*
X57531000Y-79177400D01*
X53350000Y-42159000D02*
X53350000Y-74996400D01*
X53350000Y-39619000D02*
X53350000Y-42159000D01*
%TO.N,VCntrl3*%
X73533000Y-44958000D02*
X73533000Y-46083300D01*
X73533000Y-51308000D02*
X73533000Y-50182700D01*
X74658300Y-49057400D02*
X73533000Y-50182700D01*
X73533000Y-46083300D02*
X74658300Y-47208600D01*
X74658300Y-47208600D02*
X74658300Y-49057400D01*
%TO.N,Net-(R11-Pad1)*%
X60970000Y-43284300D02*
X60970000Y-46365000D01*
X60970000Y-46365000D02*
X65913000Y-51308000D01*
X60970000Y-39619000D02*
X60970000Y-42159000D01*
X60970000Y-42159000D02*
X60970000Y-43284300D01*
%TO.N,OUTPUT3*%
X69648900Y-72103700D02*
X68767400Y-71222200D01*
X68767400Y-35112400D02*
X65913000Y-32258000D01*
X68767400Y-71222200D02*
X68767400Y-35112400D01*
X69977000Y-72103700D02*
X69648900Y-72103700D01*
X69977000Y-73279000D02*
X69977000Y-72103700D01*
%TO.N,Net-(R16-Pad2)*%
X57949300Y-89801700D02*
X57668000Y-89801700D01*
X57668000Y-90927000D02*
X57668000Y-89801700D01*
X59139400Y-88611600D02*
X57949300Y-89801700D01*
X57446500Y-66446100D02*
X57966000Y-66446100D01*
X65151000Y-59125600D02*
X64025700Y-59125600D01*
X57966000Y-66446100D02*
X59139400Y-67619500D01*
X56389800Y-61516300D02*
X56389800Y-65389400D01*
X57655200Y-60250900D02*
X56389800Y-61516300D01*
X64025700Y-59125600D02*
X62900400Y-60250900D01*
X59139400Y-67619500D02*
X59139400Y-88611600D01*
X56389800Y-65389400D02*
X57446500Y-66446100D01*
X62900400Y-60250900D02*
X57655200Y-60250900D01*
%TO.N,in2*%
X65918800Y-40171700D02*
X67177500Y-41430400D01*
X66087900Y-36794900D02*
X64787600Y-38095200D01*
X64787600Y-39111300D02*
X65848000Y-40171700D01*
X64640100Y-77450300D02*
X64025700Y-76835900D01*
X67177500Y-41430400D02*
X67177500Y-75888100D01*
X65151000Y-73448300D02*
X65151000Y-70583800D01*
X67591800Y-36794900D02*
X66087900Y-36794900D01*
X67177500Y-75888100D02*
X65615300Y-77450300D01*
X65615300Y-77450300D02*
X64640100Y-77450300D01*
X64787600Y-38095200D02*
X64787600Y-39111300D01*
X64025700Y-76835900D02*
X64025700Y-74573600D01*
X64025700Y-74573600D02*
X65151000Y-73448300D01*
X65848000Y-40171700D02*
X65918800Y-40171700D01*
%TO.N,Net-(R19-Pad1)*%
X57668000Y-88387000D02*
X57668000Y-85847000D01*
X58665400Y-83724300D02*
X57668000Y-84721700D01*
X57531000Y-70583800D02*
X58665400Y-71718200D01*
X57668000Y-85847000D02*
X57668000Y-84721700D01*
X58665400Y-71718200D02*
X58665400Y-83724300D01*
%TO.N,VCntrl2*%
X65151000Y-76312900D02*
X65151000Y-75187600D01*
X65151000Y-57386300D02*
X66727100Y-58962400D01*
X66727100Y-73611500D02*
X65151000Y-75187600D01*
X66727100Y-58962400D02*
X66727100Y-73611500D01*
X65151000Y-56261000D02*
X65151000Y-57386300D01*
%TO.N,Net-(R20-Pad1)*%
X57668000Y-101087000D02*
X57668000Y-98547000D01*
%TO.N,OUTPUT2*%
X69541800Y-84803700D02*
X69977000Y-84803700D01*
X65347800Y-80609700D02*
X69541800Y-84803700D01*
X66276300Y-61518100D02*
X66276300Y-68253600D01*
X65095800Y-68992300D02*
X63575400Y-70512700D01*
X58676400Y-60844700D02*
X65602900Y-60844700D01*
X63575400Y-70512700D02*
X63575400Y-79250200D01*
X64934900Y-80609700D02*
X65347800Y-80609700D01*
X69977000Y-85979000D02*
X69977000Y-84803700D01*
X57531000Y-61990100D02*
X58676400Y-60844700D01*
X65602900Y-60844700D02*
X66276300Y-61518100D01*
X66276300Y-68253600D02*
X65537600Y-68992300D01*
X65537600Y-68992300D02*
X65095800Y-68992300D01*
X63575400Y-79250200D02*
X64934900Y-80609700D01*
%TO.N,INPUT1*%
X75565000Y-62484000D02*
X72781400Y-65267600D01*
X72781400Y-84836900D02*
X70274600Y-87343700D01*
X72781400Y-65267600D02*
X72781400Y-84836900D01*
X70274600Y-87343700D02*
X69977000Y-87343700D01*
X69977000Y-88519000D02*
X69977000Y-87343700D01*
%TO.N,in1*%
X83185000Y-33844000D02*
X83185000Y-56007000D01*
X79285300Y-29944300D02*
X83185000Y-33844000D01*
X83185000Y-56007000D02*
X83185000Y-59245500D01*
X79004000Y-29944300D02*
X79285300Y-29944300D01*
X79004000Y-28819000D02*
X79004000Y-29944300D01*
%TO.N,Net-(R27-Pad1)*%
X75321000Y-88514000D02*
X75321000Y-85974000D01*
%TO.N,VCntrl1*%
X79004000Y-35024300D02*
X79285300Y-35024300D01*
X79004000Y-33899000D02*
X79004000Y-35024300D01*
X83185000Y-75438000D02*
X83185000Y-78676500D01*
X79285300Y-35024300D02*
X82059700Y-37798700D01*
X82059700Y-73187400D02*
X83185000Y-74312700D01*
X82059700Y-37798700D02*
X82059700Y-73187400D01*
X83185000Y-75438000D02*
X83185000Y-74312700D01*
%TO.N,Net-(R28-Pad1)*%
X75565000Y-78676500D02*
X76696200Y-79807700D01*
X75321000Y-101214000D02*
X75321000Y-98674000D01*
X75497900Y-97548700D02*
X75321000Y-97548700D01*
X76696200Y-79807700D02*
X76696200Y-96350400D01*
X76696200Y-96350400D02*
X75497900Y-97548700D01*
X75321000Y-98674000D02*
X75321000Y-97548700D01*
%TO.N,OUTPUT1*%
X73745200Y-89022800D02*
X70344300Y-92423700D01*
X69977000Y-93599000D02*
X69977000Y-92423700D01*
X75565000Y-72199500D02*
X73745200Y-74019300D01*
X73745200Y-74019300D02*
X73745200Y-89022800D01*
X70344300Y-92423700D02*
X69977000Y-92423700D01*
%TO.N,to_CVMix1*%
X71152300Y-45714200D02*
X71152300Y-66215800D01*
X79004000Y-32484300D02*
X78722700Y-32484300D01*
X74972400Y-36234600D02*
X74972400Y-42017400D01*
X71152300Y-66215800D02*
X70344400Y-67023700D01*
X73619300Y-43370500D02*
X73496000Y-43370500D01*
X78722700Y-32484300D02*
X74972400Y-36234600D01*
X73496000Y-43370500D02*
X71152300Y-45714200D01*
X79004000Y-31359000D02*
X79004000Y-32484300D01*
X70344400Y-67023700D02*
X69977000Y-67023700D01*
X74972400Y-42017400D02*
X73619300Y-43370500D01*
X69977000Y-68199000D02*
X69977000Y-67023700D01*
%TO.N,Net-(U3-Pad13)*%
X65288000Y-85847000D02*
X65288000Y-88387000D01*
%TO.N,Net-(U4-Pad13)*%
X82941000Y-85974000D02*
X82941000Y-88514000D01*
%TO.N,CVIN1*%
X69977000Y-91059000D02*
X69977000Y-89883700D01*
X73246100Y-86981900D02*
X70344300Y-89883700D01*
X75565000Y-65722500D02*
X73246100Y-68041400D01*
X73246100Y-68041400D02*
X73246100Y-86981900D01*
X70344300Y-89883700D02*
X69977000Y-89883700D01*
%TD*%
M02*
